<?xml version="1.0" standalone="no"?>
<!DOCTYPE svg PUBLIC "-//W3C//DTD SVG 1.1//EN" "http://www.w3.org/Graphics/SVG/1.1/DTD/svg11.dtd" >
<svg xmlns="http://www.w3.org/2000/svg" xmlns:xlink="http://www.w3.org/1999/xlink" version="1.1">
<metadata>
Created by FontForge 20200427 at Fri Aug 30 05:51:32 2013
 By www
Copyright (c) 2009-13 by Village Type &#38; Design LLC. All rights reserved.
</metadata>
<defs>
<font id="Copernicus-MediumItalic" horiz-adv-x="700" >
  <font-face 
    font-family="Copernicus"
    font-weight="575"
    font-style="italic"
    font-stretch="normal"
    units-per-em="1000"
    panose-1="2 0 0 0 0 0 0 0 0 0"
    ascent="800"
    descent="-200"
    x-height="540"
    cap-height="780"
    bbox="-188 -307 1391 1047"
    underline-thickness="30"
    underline-position="-100"
    unicode-range="U+0020-F614"
  />
<missing-glyph horiz-adv-x="960" 
d="M90 0v780h780v-780h-780zM480 345l-279 -279h558zM201 714l279 -279l279 279h-558zM435 390l-275 275v-550zM525 390l275 -275v550z" />
    <glyph glyph-name="fi" unicode="fi" horiz-adv-x="693" 
d="M263 530h247q73 0 73 -64q0 -49 -33 -194t-33 -186q0 -28 23 -28q30 0 86 71l32 -22q-72 -117 -162 -117q-39 0 -60 20t-21 55q0 48 33.5 194.5t33.5 186.5q0 16 -7 22.5t-28 6.5h-192l-56 -376q-53 -349 -254 -349q-63 0 -98 25.5t-35 63.5q0 44 36 64h43
q4 -50 23 -77.5t50 -27.5q99 0 128 219l61 458h-76l10 55h74l7 39q19 106 89 173.5t170 67.5q60 0 90 -21.5t30 -59.5q0 -22 -10 -40t-24 -26h-43q-7 97 -83 97q-44 0 -71 -37t-42 -127z" />
    <glyph glyph-name="fl" unicode="fl" horiz-adv-x="680" 
d="M543 775l66 35h35q-15 -123 -70 -396.5t-55 -327.5q0 -28 23 -28q30 0 86 71l32 -22q-72 -117 -162 -117q-39 0 -60 20t-21 55q0 55 50 303.5t57 321.5q-11 32 -44 51.5t-71 19.5q-57 0 -87.5 -33t-44.5 -115l-14 -83h143l-10 -55h-141l-56 -376q-53 -349 -254 -349
q-63 0 -98 25.5t-35 63.5q0 44 36 64h43q4 -50 23 -77.5t50 -27.5q99 0 128 219l61 458h-76l10 55h74l7 39q19 105 88.5 173t164.5 68q80 0 122 -35z" />
    <glyph glyph-name=".notdef" horiz-adv-x="960" 
d="M90 0v780h780v-780h-780zM480 345l-279 -279h558zM201 714l279 -279l279 279h-558zM435 390l-275 275v-550zM525 390l275 -275v550z" />
    <glyph glyph-name=".null" horiz-adv-x="0" 
 />
    <glyph glyph-name="nonmarkingreturn" horiz-adv-x="333" 
 />
    <glyph glyph-name="space" unicode=" " horiz-adv-x="200" 
 />
    <glyph glyph-name="exclam" unicode="!" horiz-adv-x="324" 
d="M316 780l-7 -46l-64 -264q-61 -253 -61 -255h-52q12 132 17 256l12 263l7 46h148zM65 67q0 32 22.5 54.5t54.5 22.5t54.5 -22.5t22.5 -54.5t-22.5 -54.5t-54.5 -22.5t-54.5 22.5t-22.5 54.5z" />
    <glyph glyph-name="quotedbl" unicode="&#x22;" horiz-adv-x="378" 
d="M182 510h-62l7 270h114zM346 510h-62l7 270h114z" />
    <glyph glyph-name="numbersign" unicode="#" horiz-adv-x="680" 
d="M631 780l-85 -252h114l-6 -48h-124l-60 -180h105l-6 -48h-115l-84 -252h-52l84 252h-177l-84 -252h-52l84 252h-119l6 48h129l60 180h-110l6 48h120l85 252h52l-85 -252h177l85 252h52zM301 480l-60 -180h177l60 180h-177z" />
    <glyph glyph-name="dollar" unicode="$" horiz-adv-x="643" 
d="M302 -10q-3 0 -9 0.5t-9 0.5l-23 -116h-50l24 120q-120 16 -178 70l15 184h38q17 -86 49.5 -132t88.5 -61l62 301l-12 7q-87 45 -127.5 96.5t-40.5 121.5q0 101 65.5 154.5t177.5 53.5q18 0 26 -1l24 116h50l-25 -121q88 -15 149 -60l-19 -162h-37q-24 124 -107 156
l-56 -271q96 -51 144 -104.5t48 -133.5q0 -104 -76 -161.5t-192 -57.5zM467 181q0 49 -26.5 83t-85.5 69l-59 -284h18q153 0 153 132zM227 609q0 -43 25 -75t81 -64l54 259q-20 2 -30 2q-60 0 -95 -33t-35 -89z" />
    <glyph glyph-name="percent" unicode="%" horiz-adv-x="1037" 
d="M868 780l-612 -780h-68l612 780h68zM269 375q-79 0 -126.5 47t-47.5 130q0 103 52 170.5t144 67.5q79 0 126.5 -47t47.5 -130q0 -103 -52 -170.5t-144 -67.5zM382 629q0 115 -91 115q-41 0 -67.5 -34.5t-36 -78.5t-9.5 -95q0 -115 91 -115q41 0 67.5 34.5t36 78.5t9.5 95
zM787 359q-41 0 -67.5 -34.5t-36 -78.5t-9.5 -95q0 -115 91 -115q41 0 67.5 34.5t36 78.5t9.5 95q0 115 -91 115zM787 405q79 0 126.5 -47t47.5 -130q0 -103 -52 -170.5t-144 -67.5q-79 0 -126.5 47t-47.5 130q0 103 52 170.5t144 67.5z" />
    <glyph glyph-name="ampersand" unicode="&#x26;" horiz-adv-x="943" 
d="M819 350q-47 0 -97 32q28 -35 28 -90q0 -41 -11 -80.5t-38.5 -80.5t-68.5 -71.5t-108.5 -50t-151.5 -19.5q-163 0 -251.5 67.5t-88.5 181.5q0 85 56 142.5t144 89.5q-31 17 -48.5 50t-17.5 70q0 81 72 140t176 59q86 0 133.5 -32.5t47.5 -86.5q0 -50 -54 -67h-56
q3 22 3 42q0 94 -90 94q-57 0 -95 -35.5t-38 -88.5q0 -92 104 -106l-9 -35q-107 -15 -161.5 -71t-54.5 -140q0 -94 71 -149t186 -55q151 0 225.5 67.5t74.5 166.5q0 70 -43.5 112t-116.5 42q-38 0 -61 -17t-23 -45q0 -24 20 -36t74 -13v-27q0 -23 -18 -38t-46 -15
q-37 0 -57.5 24.5t-20.5 71.5q0 66 41.5 119t122.5 53q47 0 98 -25.5t96.5 -50.5t78.5 -25q63 0 63 49q0 64 -107 65v27q0 23 18 38t46 15q39 0 65 -28t26 -81q0 -71 -35.5 -115t-102.5 -44z" />
    <glyph glyph-name="quotesingle" unicode="'" horiz-adv-x="214" 
d="M182 510h-62l7 270h114z" />
    <glyph glyph-name="parenleft" unicode="(" horiz-adv-x="395" 
d="M378 830l38 -36q-127 -108 -193.5 -234t-66.5 -300q0 -110 36 -191.5t112 -163.5l-43 -35q-166 163 -166 390q0 347 283 570z" />
    <glyph glyph-name="parenright" unicode=")" horiz-adv-x="395" 
d="M50 -130l-38 36q127 108 193.5 234t66.5 300q0 110 -36 191.5t-112 163.5l43 35q166 -163 166 -390q0 -347 -283 -570z" />
    <glyph glyph-name="asterisk" unicode="*" horiz-adv-x="394" 
d="M232 562l-107 -86l-31 34l97 97l-114 75l23 40l122 -63l37 133l45 -10l-22 -136l137 6l4 -46l-136 -20l49 -129l-43 -18z" />
    <glyph glyph-name="plus" unicode="+" 
d="M274 20l29 238h-238l8 64h238l30 238h64l-30 -238h238l-8 -64h-238l-29 -238h-64z" />
    <glyph glyph-name="comma" unicode="," horiz-adv-x="333" 
d="M158 1h-42q-53 12 -53 69q0 30 20 52t54 22q40 0 64.5 -30.5t24.5 -76.5q0 -74 -63.5 -135t-158.5 -66l8 46q63 9 104.5 43t41.5 76z" />
    <glyph glyph-name="hyphen" unicode="-" horiz-adv-x="380" 
d="M325 297h-260l10 76h260z" />
    <glyph glyph-name="period" unicode="." horiz-adv-x="324" 
d="M65 67q0 32 22.5 54.5t54.5 22.5t54.5 -22.5t22.5 -54.5t-22.5 -54.5t-54.5 -22.5t-54.5 22.5t-22.5 54.5z" />
    <glyph glyph-name="slash" unicode="/" horiz-adv-x="385" 
d="M437 830l-407 -951h-66l406 951h67z" />
    <glyph glyph-name="zero" unicode="0" 
d="M309 45q49 0 87.5 27t63 73.5t39.5 96.5t24 108q10 70 10 142q0 68 -12 119.5t-45 87.5t-86 36q-49 0 -87.5 -27t-63 -73.5t-39.5 -96.5t-24 -108q-10 -70 -10 -142q0 -68 12 -119.5t45 -87.5t86 -36zM304 -10q-126 0 -194.5 92t-68.5 235q0 64 12.5 128.5t41 127
t68.5 110.5t100 77.5t132 29.5q126 0 194.5 -92t68.5 -235q0 -64 -12.5 -128.5t-41 -127t-68.5 -110.5t-100 -77.5t-132 -29.5z" />
    <glyph glyph-name="one" unicode="1" 
d="M456 790h24l-78 -641q-3 -24 -3 -40q0 -19 11 -31t38.5 -18.5t54 -9t76.5 -5.5l-8 -45h-506l8 45q54 2 85 5t63.5 11t48 23.5t18.5 39.5l63 516h-185l4 34l35 5q94 14 150.5 36t100.5 75z" />
    <glyph glyph-name="two" unicode="2" 
d="M168 94h172q77 0 111.5 19t84.5 96h34l-54 -209h-512l3 24q125 106 197 170.5t127 120t78 95t33.5 75t10.5 82.5q0 61 -35 94.5t-97 33.5q-67 0 -110.5 -24.5t-95.5 -75.5l-23 25q99 170 268 170q102 0 158.5 -53.5t56.5 -140.5q0 -41 -9 -78t-31 -72.5t-44.5 -64
t-64 -66.5t-73.5 -65t-89 -74.5t-96 -81.5z" />
    <glyph glyph-name="three" unicode="3" 
d="M236 413q231 70 231 191q0 44 -30.5 70t-84.5 26q-110 0 -196 -102l-24 27q98 165 265 165q88 0 138.5 -43.5t50.5 -117.5q0 -127 -184 -187q88 -13 135.5 -67t47.5 -137q0 -118 -87 -183t-200 -65q-121 0 -185 51t-64 116q0 61 59 91h64q-9 -36 -9 -69q0 -60 33.5 -100
t101.5 -40q84 0 128.5 48.5t44.5 136.5q0 71 -41.5 116t-111.5 45q-35 0 -72 -9z" />
    <glyph glyph-name="four" unicode="4" 
d="M90 258h314l46 371zM388 124l9 76h-397l5 42l517 538h54l-64 -522h134l-7 -58h-134l-7 -58q-3 -22 -3 -40q0 -34 24.5 -45t81.5 -14l-5 -43h-338l5 43q62 3 90.5 18.5t34.5 62.5z" />
    <glyph glyph-name="five" unicode="5" 
d="M314 39q75 0 122 46.5t47 123.5q0 60 -25.5 101.5t-74 62.5t-103 30t-126.5 9l87 368h241q43 0 67 11t44 44h38l-68 -160h-292l-38 -168q70 -1 132 -16.5t112.5 -45.5t80 -81.5t29.5 -117.5q0 -115 -77 -185.5t-196 -70.5q-126 0 -187.5 51.5t-61.5 118.5q0 32 17.5 55.5
t41.5 35.5h63q-9 -36 -9 -69q0 -62 31.5 -102.5t104.5 -40.5z" />
    <glyph glyph-name="six" unicode="6" 
d="M611 748q-140 -36 -247 -117.5t-153 -199.5q74 65 170 65q106 0 167.5 -65t61.5 -164q0 -126 -79.5 -201.5t-197.5 -75.5q-128 0 -195.5 81.5t-67.5 206.5q0 183 141 326.5t389 185.5zM334 433q-76 0 -139 -55q-12 -50 -12 -105q0 -104 36 -166t115 -62q81 0 122 54.5
t41 148.5q0 85 -42.5 135t-120.5 50z" />
    <glyph glyph-name="seven" unicode="7" 
d="M548 674h-296q-42 0 -67.5 -14.5t-53.5 -57.5h-38l79 178h472l-4 -31l-407 -749h-121z" />
    <glyph glyph-name="eight" unicode="8" 
d="M615 606q0 -72 -51 -118t-131 -67l33 -21q61 -38 91.5 -81.5t30.5 -106.5q0 -92 -70 -157t-195 -65q-117 0 -189.5 59.5t-72.5 149.5q0 79 55 128.5t148 73.5l-15 9q-43 25 -71 70.5t-28 101.5q0 88 63.5 148t169.5 60q107 0 169.5 -51.5t62.5 -132.5zM391 325l-91 55
q-74 -32 -104 -75t-30 -104q0 -71 42 -114.5t115 -43.5t116.5 39t43.5 113q0 73 -92 130zM333 485l66 -41q67 33 92 67.5t25 94.5q0 57 -35 94t-98 37q-60 0 -94.5 -34t-34.5 -91q0 -78 79 -127z" />
    <glyph glyph-name="nine" unicode="9" 
d="M88 32q139 37 246.5 118t152.5 199q-72 -65 -169 -65q-106 0 -167.5 65t-61.5 164q0 126 79.5 201.5t197.5 75.5q128 0 195.5 -81.5t67.5 -206.5q0 -183 -141 -326.5t-389 -185.5zM365 347q73 0 139 54q12 49 12 106q0 104 -36 166t-115 62q-81 0 -122 -54.5t-41 -148.5
q0 -85 42.5 -135t120.5 -50z" />
    <glyph glyph-name="colon" unicode=":" horiz-adv-x="324" 
d="M65 67q0 32 22.5 54.5t54.5 22.5t54.5 -22.5t22.5 -54.5t-22.5 -54.5t-54.5 -22.5t-54.5 22.5t-22.5 54.5zM108 379q0 32 22.5 54.5t54.5 22.5t54.5 -22.5t22.5 -54.5t-22.5 -54.5t-54.5 -22.5t-54.5 22.5t-22.5 54.5z" />
    <glyph glyph-name="semicolon" unicode=";" horiz-adv-x="333" 
d="M108 379q0 32 22.5 54.5t54.5 22.5t54.5 -22.5t22.5 -54.5t-22.5 -54.5t-54.5 -22.5t-54.5 22.5t-22.5 54.5zM158 1h-42q-53 12 -53 69q0 30 20 52t54 22q40 0 64.5 -30.5t24.5 -76.5q0 -74 -63.5 -135t-158.5 -66l8 46q63 9 104.5 43t41.5 76z" />
    <glyph glyph-name="less" unicode="&#x3c;" 
d="M277 346l-153 -59l138 -59l322 -149l-8 -69l-510 244l9 72l570 244l-9 -75z" />
    <glyph glyph-name="equal" unicode="=" 
d="M619 338h-540l8 64h540zM600 178h-540l7 64h540z" />
    <glyph glyph-name="greater" unicode="&#x3e;" 
d="M415 234l153 59l-138 59l-322 149l8 69l510 -244l-9 -72l-570 -244l9 75z" />
    <glyph glyph-name="question" unicode="?" horiz-adv-x="487" 
d="M294 483q62 36 89.5 69t27.5 85q0 47 -28 74t-76 27q-55 0 -84.5 -33.5t-29.5 -88.5q0 -15 5 -40h-87q-21 23 -21 58q0 68 63.5 112t155.5 44q95 0 149 -44t54 -120q0 -78 -40.5 -128.5t-118.5 -93.5q-68 -37 -95.5 -71.5t-27.5 -85.5v-32h-34q-25 44 -25 99
q0 98 123 169zM126 67q0 32 22.5 54.5t54.5 22.5t54.5 -22.5t22.5 -54.5t-22.5 -54.5t-54.5 -22.5t-54.5 22.5t-22.5 54.5z" />
    <glyph glyph-name="at" unicode="@" horiz-adv-x="1116" 
d="M458 78q28 0 56.5 23.5t69.5 79.5q42 59 73 135.5t34 123.5q-19 37 -69 37q-62 0 -112 -45t-75.5 -112t-26.5 -138q0 -104 50 -104zM750 67q97 0 164 84.5t67 219.5q0 165 -100 266t-281 101q-126 0 -231 -68t-165 -184.5t-60 -254.5q0 -182 125 -303t316 -121
q175 0 329 92l18 -37q-62 -51 -158 -81.5t-201 -30.5q-226 0 -369.5 133t-143.5 350q0 113 42 216t113.5 177.5t172 119t212.5 44.5q208 0 332 -116.5t124 -302.5q0 -162 -94 -258.5t-242 -96.5q-83 0 -83 69q0 15 6 44.5t17 76t14 58.5h-4q-34 -76 -65 -120
q-92 -128 -179 -128q-56 0 -84 40t-28 106q0 142 96 252t214 110q78 0 102 -51l62 58h34l-34 -103q-22 -88 -41 -193t-19 -142q0 -26 22 -26z" />
    <glyph glyph-name="A" unicode="A" horiz-adv-x="796" 
d="M570 143l-30 109h-322l-58 -110q-19 -35 -19 -57t18.5 -31t76.5 -11l-5 -43h-250l5 43q58 9 75 41l342 637l-23 69h123l201 -706q5 -20 20 -28.5t43 -12.5l-5 -43h-297l5 43q61 2 85 11.5t24 33.5t-9 55zM430 656l-183 -349h278z" />
    <glyph glyph-name="B" unicode="B" horiz-adv-x="776" 
d="M411 373h-118l-26 -211q-4 -35 -4 -52q0 -31 24.5 -43t81.5 -12h25q200 0 200 169q0 68 -44 108.5t-139 40.5zM441 725h-104l-37 -297h93q103 0 153.5 37t50.5 128q0 132 -156 132zM117 780h356q117 0 182.5 -45.5t65.5 -128.5q0 -93 -64.5 -142.5t-159.5 -61.5
q112 -9 167.5 -56t55.5 -123q0 -108 -88 -165.5t-237 -57.5h-373l5 43q62 3 90.5 18.5t34.5 62.5l64 524q2 16 2 24q0 37 -24.5 50t-81.5 15z" />
    <glyph glyph-name="C" unicode="C" horiz-adv-x="785" 
d="M420 49q96 0 154.5 46t108.5 146h44l-45 -189q-109 -62 -272 -62q-153 0 -249 91.5t-96 248.5q0 87 27.5 168t78.5 147t132 105.5t179 39.5q150 0 268 -74l-15 -170h-38q-35 185 -222 185q-71 0 -128 -36t-90.5 -94.5t-51 -126.5t-17.5 -138q0 -139 63 -213t169 -74z" />
    <glyph glyph-name="D" unicode="D" horiz-adv-x="869" 
d="M407 0h-385l5 43q62 3 90.5 18.5t34.5 62.5l64 524q2 16 2 24q0 37 -24.5 50t-81.5 15l5 43h349q185 0 282 -89.5t97 -235.5q0 -206 -124.5 -330.5t-313.5 -124.5zM369 55h27q147 0 234.5 102.5t87.5 287.5q0 280 -274 280h-107l-70 -563q-4 -35 -4 -52q0 -31 24.5 -43
t81.5 -12z" />
    <glyph glyph-name="E" unicode="E" horiz-adv-x="773" 
d="M663 0h-641l5 43q62 3 90.5 18.5t34.5 62.5l64 524q2 16 2 24q0 37 -24.5 50t-81.5 15l5 43h636l-20 -186h-33q-23 75 -52.5 103t-95.5 28h-215l-37 -300h191q36 0 57 24t37 76h38l-31 -255h-38q-3 53 -18.5 76.5t-51.5 23.5h-191l-26 -208q-4 -35 -4 -52q0 -31 24.5 -43
t81.5 -12h107q38 0 61.5 5t49 25.5t42.5 41.5t56 73h37z" />
    <glyph glyph-name="F" unicode="F" horiz-adv-x="703" 
d="M117 780h616l-20 -186h-33q-23 75 -52.5 103t-95.5 28h-195l-40 -320h171q36 0 57 24t37 76h38l-31 -255h-38q-3 53 -18.5 76.5t-51.5 23.5h-171l-23 -188q-4 -35 -4 -52q0 -33 26.5 -48t98.5 -19l-5 -43h-361l5 43q62 3 90.5 18.5t34.5 62.5l64 524q2 16 2 24
q0 37 -24.5 50t-81.5 15z" />
    <glyph glyph-name="G" unicode="G" horiz-adv-x="823" 
d="M575 98l19 138q2 16 2 24q0 37 -24.5 50t-81.5 15l5 43h341l-5 -43q-62 -2 -90.5 -18t-34.5 -63l-22 -181q-113 -73 -277 -73q-153 0 -247.5 91.5t-94.5 248.5q0 87 27.5 168t78.5 147t132 105.5t179 39.5q150 0 268 -74l-15 -170h-38q-35 185 -222 185q-71 0 -128 -36
t-90.5 -94.5t-51 -126.5t-17.5 -138q0 -140 61.5 -213.5t167.5 -73.5q109 0 158 49z" />
    <glyph glyph-name="H" unicode="H" horiz-adv-x="961" 
d="M643 780h341l-5 -43q-62 -2 -90.5 -18t-34.5 -63l-63 -514q-3 -22 -3 -40q0 -34 24.5 -45t81.5 -14l-5 -43h-341l5 43q62 3 90.5 18.5t34.5 62.5l30 246h-415l-28 -228q-3 -22 -3 -40q0 -34 24.5 -45t81.5 -14l-5 -43h-341l5 43q62 3 90.5 18.5t34.5 62.5l64 524
q2 16 2 24q0 37 -24.5 50t-81.5 15l5 43h341l-5 -43q-62 -2 -90.5 -18t-34.5 -63l-29 -231h415l28 223q2 16 2 24q0 37 -24.5 50t-81.5 15z" />
    <glyph glyph-name="I" unicode="I" horiz-adv-x="435" 
d="M117 780h341l-5 -43q-62 -2 -90.5 -18t-34.5 -63l-63 -514q-3 -22 -3 -40q0 -34 24.5 -45t81.5 -14l-5 -43h-341l5 43q62 3 90.5 18.5t34.5 62.5l64 524q2 16 2 24q0 37 -24.5 50t-81.5 15z" />
    <glyph glyph-name="J" unicode="J" horiz-adv-x="577" 
d="M339 204l54 444q2 16 2 24q0 37 -24.5 50t-81.5 15l5 43h341l-5 -43q-62 -2 -90.5 -18t-34.5 -63l-53 -435q-14 -118 -75 -174.5t-174 -56.5q-101 0 -150 41.5t-49 103.5q0 55 46 79h78q-10 -30 -10 -65q0 -55 21 -83t71 -28q59 0 88.5 37t40.5 129z" />
    <glyph glyph-name="K" unicode="K" horiz-adv-x="836" 
d="M421 427l207 -265q54 -69 92.5 -93.5t95.5 -25.5l-5 -43h-179q-56 49 -121 134l-203 263l295 266q32 28 32 43t-15 21t-65 10l5 43h280l-5 -43q-40 -2 -68.5 -14.5t-62.5 -42.5zM117 780h341l-5 -43q-62 -2 -90.5 -18t-34.5 -63l-63 -514q-3 -22 -3 -40q0 -34 24.5 -45
t81.5 -14l-5 -43h-341l5 43q62 3 90.5 18.5t34.5 62.5l64 524q2 16 2 24q0 37 -24.5 50t-81.5 15z" />
    <glyph glyph-name="L" unicode="L" horiz-adv-x="727" 
d="M328 656l-61 -494q-4 -35 -4 -52q0 -31 24.5 -43t81.5 -12h89q34 0 58.5 8t51 33t45 47.5t57.5 76.5h37l-64 -220h-621l5 43q62 3 90.5 18.5t34.5 62.5l64 524q2 16 2 24q0 37 -24.5 50t-81.5 15l5 43h341l-5 -43q-62 -2 -90.5 -18t-34.5 -63z" />
    <glyph glyph-name="M" unicode="M" horiz-adv-x="1054" 
d="M519 174l281 544q19 36 24 62h205l-5 -43q-56 -2 -78 -19t-27 -62l4 -546q0 -36 19 -50.5t68 -16.5l-5 -43h-317l5 43q62 3 90 21.5t28 76.5l-2 470l-319 -611h-38l-153 611l-126 -470q-7 -26 -7 -44q0 -29 22 -40t79 -14l-5 -43h-267l5 43q50 2 71.5 15.5t31.5 51.5
l145 546q0 46 -15.5 62.5t-69.5 18.5l5 43h206q0 -19 11 -67z" />
    <glyph glyph-name="N" unicode="N" horiz-adv-x="928" 
d="M706 190l55 458q2 16 2 24q0 37 -24.5 50t-81.5 15l5 43h296l-5 -43q-62 -2 -90.5 -18t-34.5 -63l-80 -656h-47l-422 621l-59 -479q-3 -22 -3 -40q0 -34 24.5 -45t81.5 -14l-5 -43h-296l5 43q62 3 90.5 18.5t34.5 62.5l67 547q-31 41 -49 53t-58 13l5 43h187z" />
    <glyph glyph-name="O" unicode="O" horiz-adv-x="816" 
d="M389 49q72 0 128 36.5t88 96t48 126.5t16 136q0 137 -54.5 212t-146.5 75q-72 0 -128 -36.5t-88 -96t-48 -126.5t-16 -136q0 -137 54.5 -212t146.5 -75zM380 -10q-143 0 -229 91t-86 249q0 85 26 165.5t75 147t130 107t181 40.5q143 0 229 -91t86 -249q0 -85 -26 -165.5
t-75 -147t-130 -107t-181 -40.5z" />
    <glyph glyph-name="P" unicode="P" horiz-adv-x="732" 
d="M287 326l-20 -164q-4 -35 -4 -52q0 -33 26.5 -48t98.5 -19l-5 -43h-361l5 43q62 3 90.5 18.5t34.5 62.5l64 524q2 16 2 24q0 37 -24.5 50t-81.5 15l5 43h339q146 0 216.5 -54t70.5 -153q0 -112 -78 -179.5t-209 -67.5h-169zM336 725l-42 -344h121q96 0 151.5 45.5
t55.5 139.5q0 159 -181 159h-105z" />
    <glyph glyph-name="Q" unicode="Q" horiz-adv-x="816" 
d="M792 450q0 -160 -85.5 -290t-240.5 -161l177 -109q38 -24 60.5 -33.5t52.5 -9.5h17v-34q-39 -26 -109 -26q-95 0 -171 67l-155 138q-126 13 -199.5 102.5t-73.5 235.5q0 85 26 165.5t75 147t130 107t181 40.5q143 0 229 -91t86 -249zM389 49q72 0 128 36.5t88 96
t48 126.5t16 136q0 137 -54.5 212t-146.5 75q-72 0 -128 -36.5t-88 -96t-48 -126.5t-16 -136q0 -137 54.5 -212t146.5 -75z" />
    <glyph glyph-name="R" unicode="R" horiz-adv-x="825" 
d="M436 725h-99l-40 -320h105q98 0 149.5 41.5t51.5 135.5q0 143 -167 143zM290 352l-25 -210q-3 -22 -3 -40q0 -34 24.5 -45t81.5 -14l-5 -43h-341l5 43q62 3 90.5 18.5t34.5 62.5l64 524q2 16 2 24q0 37 -24.5 50t-81.5 15l5 43h335q138 0 206 -50.5t68 -137.5
q0 -54 -23.5 -98t-62 -71t-79.5 -42.5t-83 -19.5l156 -212q48 -66 80 -85.5t91 -20.5l-5 -43h-180q-45 40 -110 133l-152 219h-68z" />
    <glyph glyph-name="S" unicode="S" horiz-adv-x="626" 
d="M292 -10q-75 0 -143 21.5t-102 53.5l15 184h38q22 -108 68.5 -154t135.5 -46q153 0 153 132q0 60 -38.5 97.5t-130.5 85.5q-87 45 -127.5 96.5t-40.5 121.5q0 101 65.5 154.5t177.5 53.5q137 0 224 -66l-19 -162h-37q-15 84 -59.5 126.5t-124.5 42.5q-60 0 -95 -33
t-35 -89q0 -47 31 -81.5t103 -71.5q106 -54 157.5 -108.5t51.5 -138.5q0 -104 -76 -161.5t-192 -57.5z" />
    <glyph glyph-name="T" unicode="T" horiz-adv-x="759" 
d="M388 729h-62q-31 0 -53.5 -2.5t-43 -14t-31.5 -18.5t-29.5 -33t-27 -39.5t-33.5 -54.5h-40l43 213h676l-9 -213h-36q-10 30 -13 38t-11.5 30.5t-12.5 27.5t-12.5 20t-15 18.5t-17 11.5t-22.5 10t-27 4t-33 2h-80l-72 -589q-3 -23 -3 -31q0 -38 24 -51t86 -15l-5 -43h-348
l5 43q63 3 93 18.5t36 62.5z" />
    <glyph glyph-name="U" unicode="U" horiz-adv-x="855" 
d="M142 318l40 330q2 16 2 24q0 37 -24.5 50t-81.5 15l5 43h341l-5 -43q-62 -2 -90.5 -18t-34.5 -63l-42 -341q-6 -47 -6 -78q0 -82 51 -129.5t138 -47.5q112 0 170 58.5t73 177.5l43 352q2 16 2 24q0 37 -24.5 50t-81.5 15l5 43h296l-5 -43q-62 -2 -90.5 -18t-34.5 -63
l-46 -381q-17 -136 -102 -210.5t-216 -74.5q-135 0 -212 62t-77 180q0 24 7 86z" />
    <glyph glyph-name="V" unicode="V" horiz-adv-x="776" 
d="M398 162l252 468q22 42 22 62q0 24 -20.5 33.5t-79.5 11.5l5 43h257l-5 -43q-29 -4 -46 -12t-28 -29l-386 -706h-34l-193 706q-5 20 -20.5 28.5t-43.5 12.5l5 43h299l-5 -43q-61 -2 -86.5 -12.5t-25.5 -35.5q0 -18 7 -45z" />
    <glyph glyph-name="W" unicode="W" horiz-adv-x="1145" 
d="M734 -10l-130 501l-257 -501h-34l-171 706q-5 20 -20.5 28t-43.5 13l5 43h297l-5 -43q-61 -2 -86.5 -12.5t-25.5 -35.5q0 -13 7 -45l112 -475l202 400l-32 127q-5 20 -20.5 28t-43.5 13l5 43h295l-5 -43q-61 -2 -86.5 -12.5t-25.5 -35.5q0 -15 7 -45l116 -480l235 479
q16 30 16 47q0 25 -20 35t-79 12l5 43h252l-5 -43q-20 -3 -31 -6t-23.5 -11.5t-19.5 -23.5l-356 -706h-34z" />
    <glyph glyph-name="X" unicode="X" horiz-adv-x="814" 
d="M541 136l-141 220l-194 -219q-36 -42 -36 -62q0 -17 17 -24.5t70 -7.5l-5 -43h-270l5 43q62 0 111 56l270 306l-176 276q-21 33 -40.5 44.5t-52.5 11.5l5 43h322l-5 -43q-60 0 -79.5 -8t-19.5 -28q0 -22 22 -57l117 -184l159 181q36 41 36 62q0 19 -16 26.5t-75 7.5l6 43
h271l-6 -43q-33 -1 -53.5 -12t-50.5 -44l-240 -270l200 -312q21 -33 40 -44.5t52 -11.5l-5 -43h-320l5 43q61 0 80.5 8t19.5 28q0 22 -23 57z" />
    <glyph glyph-name="Y" unicode="Y" horiz-adv-x="767" 
d="M316 124l23 189l-197 383q-10 20 -24.5 28.5t-39.5 12.5l5 43h301l-5 -43q-61 -2 -84 -12t-23 -34q0 -21 13 -47l140 -270l210 270q23 31 23 51q0 22 -19 31t-76 11l5 43h257l-5 -43q-49 -7 -74 -41l-297 -381l-21 -175q-3 -23 -3 -31q0 -38 24 -51t86 -15l-5 -43h-348
l5 43q63 3 93 18.5t36 62.5z" />
    <glyph glyph-name="Z" unicode="Z" horiz-adv-x="729" 
d="M171 55h255q69 0 104 24t112 121h37l-59 -200h-601l3 28l554 697h-237q-66 0 -102.5 -27.5t-77.5 -103.5h-35l26 186h583l-3 -29z" />
    <glyph glyph-name="bracketleft" unicode="[" horiz-adv-x="339" 
d="M230 778l-105 -856h120l-6 -52h-180l117 960h180l-6 -52h-120z" />
    <glyph glyph-name="backslash" unicode="\" horiz-adv-x="385" 
d="M283 -121l-173 951h62l173 -951h-62z" />
    <glyph glyph-name="bracketright" unicode="]" horiz-adv-x="339" 
d="M141 -78l105 856h-120l6 52h180l-117 -960h-180l6 52h120z" />
    <glyph glyph-name="asciicircum" unicode="^" horiz-adv-x="482" 
d="M291 725l-191 -325h-69l232 390h72l138 -390h-69z" />
    <glyph glyph-name="underscore" unicode="_" horiz-adv-x="300" 
d="M248 -200h-260l9 64h260z" />
    <glyph glyph-name="grave" unicode="`" horiz-adv-x="600" 
d="M200 800h132l78 -208h-45z" />
    <glyph glyph-name="a" unicode="a" horiz-adv-x="635" 
d="M190 57q28 0 58.5 26t72.5 86q44 64 76 146.5t36 133.5q-21 41 -72 41q-96 0 -159 -99.5t-64 -220.5q0 -113 52 -113zM376 65q0 17 6 48t18.5 84t14.5 62h-4q-2 -5 -9.5 -22.5t-11 -25t-11 -22.5t-16.5 -29.5t-20 -30.5q-96 -139 -186 -139q-58 0 -87.5 43t-29.5 115
q0 154 100 273t223 119q80 0 106 -55l65 63h35l-35 -112q-23 -92 -41.5 -200t-18.5 -150q0 -28 23 -28q30 0 86 71l32 -22q-72 -117 -162 -117q-77 0 -77 75z" />
    <glyph glyph-name="b" unicode="b" horiz-adv-x="605" 
d="M414 473q-41 0 -104.5 -68t-110.5 -152.5t-47 -129.5q0 -81 88 -81q53 0 97.5 35.5t71 88.5t41 109.5t14.5 103.5q0 48 -11 71t-39 23zM152 703l-72 40l5 20l151 47h34q-12 -103 -48 -280t-65 -281h4q58 127 136.5 209t166.5 82q105 0 105 -142q0 -99 -45 -193
t-125 -154.5t-172 -60.5q-69 0 -119 29.5t-63 76.5q96 494 107 607z" />
    <glyph glyph-name="c" unicode="c" horiz-adv-x="474" 
d="M302 487q-73 0 -118.5 -85.5t-45.5 -188.5q0 -159 105 -159q42 0 77.5 27t75.5 76l31 -22q-31 -58 -87 -101.5t-122 -43.5q-88 0 -133 54.5t-45 138.5q0 145 84.5 251t211.5 106q58 0 89.5 -26.5t31.5 -64.5q0 -40 -36 -60h-43q-10 98 -76 98z" />
    <glyph glyph-name="d" unicode="d" horiz-adv-x="642" 
d="M190 57q58 0 136 112q43 62 72 139t36 131q-14 51 -73 51q-96 0 -159 -99.5t-64 -220.5q0 -113 52 -113zM489 703l-72 40l5 20l151 47h34q-31 -157 -78.5 -421t-47.5 -303q0 -28 23 -28q30 0 86 71l32 -22q-72 -117 -162 -117q-39 0 -59 19.5t-20 55.5q0 17 6 48t18.5 84
t14.5 62h-4q-2 -5 -9.5 -22.5t-11 -25t-11 -22.5t-16.5 -29.5t-20 -30.5q-96 -139 -191 -139q-58 0 -87.5 43t-29.5 115q0 101 46.5 192.5t121 145.5t153.5 54q77 0 98 -47q22 129 30 210z" />
    <glyph glyph-name="e" unicode="e" horiz-adv-x="491" 
d="M414 162l37 -22q-77 -150 -225 -150q-94 0 -140 52t-46 148q0 135 81.5 242.5t209.5 107.5q61 0 95.5 -26.5t34.5 -77.5q0 -24 -10 -46t-23.5 -38.5t-39 -34t-45 -28t-53.5 -24.5t-52 -20.5t-53.5 -18t-46.5 -15.5v-13q0 -73 29 -108.5t79 -35.5q55 0 93 27t75 81z
M308 488q-66 0 -110.5 -69.5t-56.5 -167.5q121 41 175 79.5t54 93.5q0 64 -62 64z" />
    <glyph glyph-name="f" unicode="f" horiz-adv-x="383" 
d="M255 475l-56 -376q-53 -349 -254 -349q-63 0 -98 25.5t-35 63.5q0 44 36 64h43q4 -50 23 -77.5t50 -27.5q99 0 128 219l61 458h-76l10 55h74l7 39q20 108 83 174.5t160 66.5q54 0 82.5 -21.5t28.5 -59.5q0 -22 -10 -40t-24 -26h-43q-7 97 -75 97q-70 0 -89 -121l-18 -109
h143l-10 -55h-141z" />
    <glyph glyph-name="g" unicode="g" horiz-adv-x="571" 
d="M235 154q-25 0 -53 7q-38 -17 -38 -42q0 -14 10 -21t32 -13l159 -42q64 -18 96.5 -47t32.5 -85q0 -30 -12.5 -56.5t-41 -51t-84 -39t-131.5 -14.5q-115 0 -179.5 40.5t-64.5 98.5q0 101 158 131q-50 24 -50 68q0 58 81 86q-33 15 -53.5 49t-20.5 75q0 109 71 175.5
t173 66.5q80 0 128 -45q44 56 95 56q27 0 45 -15t18 -41q0 -20 -10.5 -36.5t-26.5 -21.5h-31q0 43 -32 43t-43 -7q20 -30 20 -70q0 -114 -72.5 -181.5t-175.5 -67.5zM290 -36l-144 42q-51 -18 -73 -41.5t-22 -62.5q0 -51 44.5 -77.5t122.5 -26.5q167 0 167 90
q0 30 -23.5 45.5t-71.5 30.5zM252 198q53 0 89.5 55t36.5 139q0 46 -20.5 73.5t-58.5 27.5q-52 0 -88 -55t-36 -139q0 -47 20 -74t57 -27z" />
    <glyph glyph-name="h" unicode="h" horiz-adv-x="656" 
d="M143 0h-98q104 538 120 703l-72 40l5 20l151 47h34q-16 -128 -57.5 -334.5t-73.5 -315.5h4q161 380 324 380q72 0 72 -83q0 -50 -36.5 -197.5t-36.5 -173.5q0 -28 23 -28q30 0 86 71l32 -22q-72 -117 -162 -117q-39 0 -60 20t-21 55q0 32 36.5 182.5t36.5 189.5
q0 31 -21 31q-51 0 -138 -137t-148 -331z" />
    <glyph glyph-name="i" unicode="i" horiz-adv-x="389" 
d="M271 469q0 -49 -33 -195.5t-33 -187.5q0 -28 23 -28q30 0 86 71l32 -22q-72 -117 -162 -117q-39 0 -60 20t-21 55q0 47 33 191.5t33 188.5q0 22 -24 22q-35 0 -90 -78l-33 22q68 129 173 129q76 0 76 -71zM241 626q-28 0 -47 19t-19 47q0 31 21.5 52.5t51.5 21.5
q28 0 47 -19t19 -47q0 -31 -21.5 -52.5t-51.5 -21.5z" />
    <glyph glyph-name="j" unicode="j" horiz-adv-x="322" 
d="M138 467q-37 0 -92 -78l-33 22q68 129 173 129q76 0 76 -74q0 -35 -7 -81l-41 -266q-21 -139 -55 -222t-75 -115t-98 -32t-90.5 25.5t-33.5 63.5q0 44 36 64h43q8 -110 61 -110q23 0 37 13.5t28.5 60.5t29.5 139l58 354q8 54 8 76q0 31 -25 31zM229 626q-28 0 -47 19
t-19 47q0 31 21.5 52.5t51.5 21.5q28 0 47 -19t19 -47q0 -31 -21.5 -52.5t-51.5 -21.5z" />
    <glyph glyph-name="k" unicode="k" horiz-adv-x="609" 
d="M165 703l-72 40l5 20l150 47h35q-18 -148 -75 -428q53 78 112.5 118t115.5 40q50 0 76 -26.5t26 -72.5q0 -116 -179 -194l55 -123q17 -39 28.5 -52.5t26.5 -13.5q32 0 88 71l32 -22q-72 -117 -162 -117q-34 0 -56.5 21t-40.5 67l-54 139q-56 -16 -104 -24l-36 -193h-91
q104 534 120 703zM198 327l-19 -95q122 25 189.5 72t67.5 111q0 54 -48 54q-38 0 -78.5 -30.5t-111.5 -111.5z" />
    <glyph glyph-name="l" unicode="l" horiz-adv-x="324" 
d="M56 65q0 55 51 310t58 328l-72 40l5 20l150 47h32q-15 -123 -70 -396.5t-55 -327.5q0 -28 23 -28q30 0 86 71l32 -22q-72 -117 -162 -117q-78 0 -78 75z" />
    <glyph glyph-name="m" unicode="m" horiz-adv-x="1007" 
d="M556 314l-38 -161h4q25 69 54.5 130.5t68.5 122.5t87 97.5t96 36.5q36 0 54 -22t18 -60q0 -58 -35 -197.5t-35 -174.5q0 -28 23 -28q30 0 86 71l32 -22q-72 -117 -162 -117q-39 0 -60 20t-21 55q0 46 35 183.5t35 185.5q0 34 -21 34q-48 0 -133 -146t-134 -322h-97
q5 28 25.5 133.5t31 177t10.5 118.5q0 20 -5 29.5t-23 9.5q-46 0 -129.5 -145t-127.5 -323h-97l73 409q4 24 4 36q0 22 -24 22q-35 0 -90 -78l-33 22q68 129 173 129q73 0 73 -71q0 -26 -14 -81l-61 -235h4q140 387 306 387q67 0 67 -73q0 -66 -20 -153z" />
    <glyph glyph-name="n" unicode="n" horiz-adv-x="708" 
d="M429 65q0 32 36.5 182.5t36.5 189.5q0 31 -21 31q-51 0 -138 -137t-148 -331h-97l73 409q4 24 4 36q0 22 -24 22q-35 0 -90 -78l-33 22q68 129 173 129q73 0 73 -71q0 -26 -14 -81l-56 -228h4q161 380 324 380q72 0 72 -83q0 -50 -36.5 -197.5t-36.5 -173.5q0 -28 23 -28
q30 0 86 71l32 -22q-72 -117 -162 -117q-39 0 -60 20t-21 55z" />
    <glyph glyph-name="o" unicode="o" horiz-adv-x="542" 
d="M235 39q49 0 87 46t56.5 113t18.5 141q0 152 -90 152q-49 0 -87 -46t-56.5 -113t-18.5 -141q0 -152 90 -152zM221 -10q-90 0 -135.5 56t-45.5 146q0 137 78 242.5t203 105.5q90 0 135.5 -56t45.5 -146q0 -137 -78 -242.5t-203 -105.5z" />
    <glyph glyph-name="p" unicode="p" horiz-adv-x="679" 
d="M309 38q53 0 97.5 36t71.5 90t41.5 111t14.5 104q0 48 -11 71t-39 23q-46 0 -111 -73.5t-112.5 -167.5t-51.5 -154q25 -40 100 -40zM301 -10q-68 0 -103 33q-25 -146 -25 -167q0 -32 16.5 -42t57.5 -15l-6 -39h-260l6 39q28 4 42 7.5t26.5 15.5t16.5 34l100 553
q4 24 4 36q0 22 -24 22q-35 0 -90 -78l-33 22q68 129 173 129q73 0 73 -71q0 -26 -14 -81l-37 -144h5q59 129 137.5 212.5t167.5 83.5q105 0 105 -142q0 -108 -50 -203.5t-128 -150t-160 -54.5z" />
    <glyph glyph-name="q" unicode="q" horiz-adv-x="589" 
d="M157 -10q-58 0 -87.5 43t-29.5 115q0 101 46.5 192.5t121 145.5t153.5 54q81 0 108 -55l65 63h35l-35 -112q-23 -92 -60.5 -315t-37.5 -265q0 -32 16.5 -42t57.5 -15l-6 -39h-259l6 39q29 4 42.5 7.5t26.5 15.5t16 34q24 150 38.5 217t45.5 186h-4q-2 -5 -9.5 -22.5
t-11 -25t-11 -22.5t-16.5 -29.5t-20 -30.5q-96 -139 -191 -139zM190 57q58 0 136 112q43 62 72 139t36 131q-14 51 -73 51q-96 0 -159 -99.5t-64 -220.5q0 -113 52 -113z" />
    <glyph glyph-name="r" unicode="r" horiz-adv-x="534" 
d="M207 149h4q97 274 165 347q40 44 91 44q30 0 48.5 -17t18.5 -50q0 -39 -38 -71h-41q-3 37 -32 37q-41 0 -99 -112.5t-125 -326.5h-96l73 409q4 24 4 36q0 22 -24 22q-35 0 -90 -78l-33 22q68 129 173 129q73 0 73 -71q0 -26 -14 -81z" />
    <glyph glyph-name="s" unicode="s" horiz-adv-x="435" 
d="M201 40q32 0 52 17t20 45q0 27 -19.5 56.5t-46.5 56t-54.5 54.5t-47 62t-19.5 69q0 63 43.5 101.5t125.5 38.5q64 0 101.5 -25.5t37.5 -66.5q0 -31 -34 -49h-35q-9 39 -35.5 63.5t-66.5 24.5q-29 0 -45 -14t-16 -38q0 -29 31 -66.5t67.5 -70t67.5 -77t31 -84.5
q0 -63 -49 -105t-138 -42q-69 0 -112 29t-43 72q0 39 40 57h31q11 -52 40 -80t73 -28z" />
    <glyph glyph-name="t" unicode="t" horiz-adv-x="421" 
d="M243 475l-59 -330q-7 -42 -7 -58q0 -28 27 -28q28 0 66.5 28t70.5 73l34 -26q-40 -65 -98.5 -104.5t-115.5 -39.5q-83 0 -83 80q0 25 8 73l57 332h-73l7 38q77 35 162 131h34l-20 -114h138l-10 -55h-138z" />
    <glyph glyph-name="u" unicode="u" horiz-adv-x="688" 
d="M421 65q0 20 7.5 58.5t16 72.5t23.5 92.5t22 88.5h-4q-42 -105 -88.5 -188t-105 -141t-112.5 -58q-81 0 -81 95q0 50 36.5 187.5t36.5 172.5q0 22 -24 22q-35 0 -90 -78l-33 22q68 129 173 129q76 0 76 -71q0 -45 -37.5 -184t-37.5 -181q0 -39 24 -39q38 0 96 82
t107.5 188t77.5 195h94q-5 -27 -22 -110t-28 -139t-21 -115.5t-10 -79.5q0 -28 23 -28q33 0 89 71l32 -22q-72 -117 -162 -117q-78 0 -78 75z" />
    <glyph glyph-name="v" unicode="v" horiz-adv-x="567" 
d="M451 391q0 37 -18.5 57.5t-60.5 26.5v31q28 34 73 34q49 0 70.5 -31t21.5 -72q0 -158 -291 -447h-39q-45 339 -65 411q-4 17 -7 25t-7.5 19.5t-10 16.5t-12.5 5q-13 0 -27 -11t-24.5 -24t-28.5 -38l-33 22q65 124 157 124q39 0 55.5 -22t28.5 -68q16 -61 30 -168.5
t18 -192.5q170 188 170 302z" />
    <glyph glyph-name="w" unicode="w" horiz-adv-x="853" 
d="M737 391q0 37 -18.5 57.5t-60.5 26.5v31q28 34 73 34q49 0 70.5 -31t21.5 -72q0 -88 -83.5 -208.5t-202.5 -238.5h-39q-22 240 -44 332h-4q-3 -21 -19 -62t-67 -120t-123 -150h-39q-48 358 -60 411q-16 66 -37 66q-13 0 -27 -11t-24.5 -24t-28.5 -38l-33 22
q65 124 157 124q39 0 56 -22.5t28 -67.5q14 -61 26.5 -167t16.5 -191q59 74 105.5 169t46.5 158q0 23 -12.5 53.5t-28.5 51.5q21 16 58 16q30 0 46.5 -19t29.5 -70q15 -56 31 -170.5t20 -191.5q165 182 165 302z" />
    <glyph glyph-name="x" unicode="x" horiz-adv-x="595" 
d="M288 116l-17 79q-50 -102 -98 -153.5t-103 -51.5q-34 0 -55.5 18.5t-21.5 54.5q0 38 39 61h26q10 -59 53 -59q55 0 147 192l-22 104q-13 64 -25 85t-33 21q-18 0 -36.5 -18t-45.5 -55l-32 22q71 124 162 124q41 0 60 -28t34 -100l10 -48q42 86 84.5 131t97.5 45
q34 0 55.5 -18.5t21.5 -54.5q0 -38 -39 -61h-26q-10 59 -53 59q-48 0 -129 -164l31 -148q12 -57 23 -76t32 -19q29 0 89 71l30 -22q-76 -117 -162 -117q-42 0 -62 27.5t-35 98.5z" />
    <glyph glyph-name="y" unicode="y" horiz-adv-x="592" 
d="M251 450q56 -174 89 -452q68 119 101 198.5t33 152.5q0 54 -25 88.5t-75 35.5v33q28 34 74 34q51 0 76 -32t25 -89q0 -173 -151 -408q-96 -149 -180 -205t-180 -56q-52 0 -87.5 23.5t-35.5 66.5q0 22 11 40t28 25h36q3 -44 26 -69t63 -25q56 0 95 23t92 80
q-19 143 -51 279.5t-55 207.5q-12 38 -20.5 52t-22.5 14q-13 0 -27 -11t-24.5 -24t-28.5 -38l-33 22q65 124 157 124q39 0 57 -22.5t33 -67.5z" />
    <glyph glyph-name="z" unicode="z" horiz-adv-x="560" 
d="M100 171l317 238q-43 2 -111 23t-102 21q-26 0 -43.5 -12t-17.5 -36q0 -25 24 -38l-28 -33q-48 24 -48 80q0 58 39.5 92t96.5 34q39 0 114.5 -26.5t132.5 -35.5v48q11 14 31 14q33 0 33 -42q0 -34 -19 -63.5t-71 -67.5l-324 -239q29 11 56 11q49 0 118.5 -35t102.5 -35
q22 0 36 12.5t14 34.5q0 32 -27 53l31 28q44 -28 44 -88q0 -55 -36.5 -87t-96.5 -32q-57 0 -135 38.5t-118 38.5q-18 0 -36 -9v-52q-13 -16 -33 -16q-32 0 -32 44q0 38 20 69.5t68 67.5z" />
    <glyph glyph-name="braceleft" unicode="{" horiz-adv-x="410" 
d="M144 350q92 -29 92 -122q0 -30 -25 -102t-25 -117t30.5 -66.5t99.5 -21.5l-6 -51q-184 0 -184 139q0 44 24.5 116t24.5 103q0 93 -133 93l7 58q91 0 126.5 38t35.5 102q0 17 -3.5 52.5t-3.5 54.5q0 43 9.5 77t33 64t69 46.5t111.5 16.5l-6 -51q-85 0 -121.5 -36
t-36.5 -113q0 -21 4 -57.5t4 -53.5q0 -59 -32 -105t-95 -64z" />
    <glyph glyph-name="bar" unicode="|" horiz-adv-x="262" 
d="M236 830l-116 -951h-62l116 951h62z" />
    <glyph glyph-name="braceright" unicode="}" horiz-adv-x="410" 
d="M301 350q-92 29 -92 122q0 30 25 102t25 117t-30.5 66.5t-99.5 21.5l6 51q184 0 184 -139q0 -44 -24.5 -116t-24.5 -103q0 -93 133 -93l-7 -58q-91 0 -126.5 -38t-35.5 -102q0 -17 3.5 -52.5t3.5 -54.5q0 -43 -9.5 -77t-33 -64t-69 -46.5t-111.5 -16.5l6 51
q85 0 121.5 36t36.5 113q0 21 -4 57.5t-4 53.5q0 59 32 105t95 64z" />
    <glyph glyph-name="asciitilde" unicode="~" horiz-adv-x="537" 
d="M82 275h-42q46 135 133 135q45 0 115 -30.5t98 -30.5q23 0 36.5 12.5t32.5 46.5h42q-46 -135 -133 -135q-45 0 -115 30.5t-98 30.5q-23 0 -36.5 -12.5t-32.5 -46.5z" />
    <glyph glyph-name="nbspace" unicode="&#xa0;" horiz-adv-x="240" 
 />
    <glyph glyph-name="exclamdown" unicode="&#xa1;" horiz-adv-x="324" 
d="M17 -240l7 46l64 264q61 253 61 255h52q-11 -132 -17 -256l-12 -263l-7 -46h-148zM268 473q0 -32 -22.5 -54.5t-54.5 -22.5t-54.5 22.5t-22.5 54.5t22.5 54.5t54.5 22.5t54.5 -22.5t22.5 -54.5z" />
    <glyph glyph-name="cent" unicode="&#xa2;" horiz-adv-x="583" 
d="M197 0l30 106q-74 18 -114.5 74t-40.5 134q0 142 91 250t230 117l29 99h50l-29 -100q60 -7 96 -37.5t36 -71.5q0 -24 -12 -44.5t-28 -28.5h-53q0 98 -57 120l-130 -450q16 -2 24 -2q50 0 91 30t91 89l32 -23q-38 -69 -100.5 -116.5t-136.5 -47.5h-21l-28 -98h-50z
M182 331q0 -107 68 -147l127 441q-84 -4 -139.5 -90t-55.5 -204z" />
    <glyph glyph-name="sterling" unicode="&#xa3;" horiz-adv-x="798" 
d="M148 379l7 48h122l38 122q38 120 100 180.5t164 60.5q78 0 125 -34t47 -87q0 -55 -45 -72h-77q9 25 9 56q0 34 -17 59.5t-58 25.5q-21 0 -38 -10t-28 -22t-24 -41.5t-19.5 -47t-20.5 -60.5q-3 -10 -5 -15l-38 -115h203l-7 -48h-212l-70 -214q10 -4 48.5 -18.5t58 -21
t52 -16t58.5 -14t50 -4.5q91 0 91 72q0 34 -31 59l35 30q67 -41 67 -114t-47.5 -110.5t-128.5 -37.5q-30 0 -60.5 6.5t-66 23.5t-52.5 25.5t-56.5 32.5t-42.5 26q-19 -52 -61 -83t-99 -31q-59 0 -87.5 29t-28.5 71q0 56 34.5 89t93.5 33q35 0 75 -15l56 182h-114zM111 44
q53 0 79 102q-33 14 -62 14q-31 0 -48.5 -18t-17.5 -45q0 -25 13 -39t36 -14z" />
    <glyph glyph-name="currency" unicode="&#xa4;" horiz-adv-x="640" 
d="M305 75q-95 0 -154 50l-75 -66l-35 40l74 66q-36 51 -36 123q0 106 65 177l-50 57l42 37l50 -58q61 43 143 43q93 0 154 -51l75 66l34 -39l-74 -66q37 -52 37 -123q0 -104 -64 -176l50 -56l-43 -38l-50 56q-62 -42 -143 -42zM305 126q71 0 112 61t41 154q0 69 -32 110.5
t-97 41.5q-71 0 -112 -61t-41 -154q0 -69 32 -110.5t97 -41.5z" />
    <glyph glyph-name="yen" unicode="&#xa5;" horiz-adv-x="762" 
d="M663 387l-6 -48h-205l-18 -24l-5 -42h220l-6 -48h-220l-10 -85q-3 -23 -3 -31q0 -38 24 -51t86 -15l-5 -43h-348l5 43q63 3 93 18.5t36 62.5l12 101h-208l6 48h208l5 40l-14 26h-191l6 48h161l-159 309q-10 20 -24.5 28.5t-39.5 12.5l5 43h301l-5 -43q-61 -2 -84 -12
t-23 -34q0 -21 13 -47l140 -270l210 270q23 31 23 51q0 22 -19 31t-76 11l5 43h257l-5 -43q-49 -7 -74 -41l-241 -309h173z" />
    <glyph glyph-name="brokenbar" unicode="&#xa6;" horiz-adv-x="262" 
d="M170 285l-50 -406h-62l50 406h62zM236 830l-50 -406h-62l50 406h62z" />
    <glyph glyph-name="section" unicode="&#xa7;" horiz-adv-x="518" 
d="M414 152q0 -100 -34 -189.5t-107 -151t-172 -61.5q-67 0 -101.5 24.5t-34.5 62.5q0 51 54 73h60q-8 -19 -8 -43q0 -30 17 -47.5t49 -17.5q51 0 77 30.5t26 82.5q0 48 -22 108t-48 111.5t-48 128t-22 153.5q0 100 34 189.5t107 151t172 61.5q67 0 101.5 -24.5t34.5 -62.5
q0 -51 -54 -73h-60q8 19 8 43q0 30 -17 47.5t-49 17.5q-51 0 -77 -30.5t-26 -82.5q0 -48 22 -108t48 -111.5t48 -128t22 -153.5zM148 416q0 -64 22 -136t48.5 -124.5t48.5 -116.5t22 -115q0 -29 -10 -50q39 48 63 121.5t24 156.5q0 64 -22 136t-48.5 124.5t-48.5 116.5
t-22 115q0 29 10 50q-39 -48 -63 -121.5t-24 -156.5z" />
    <glyph glyph-name="dieresis" unicode="&#xa8;" horiz-adv-x="600" 
d="M196 626q-28 0 -47 19t-19 47q0 31 21.5 52.5t51.5 21.5q28 0 47 -19t19 -47q0 -31 -21.5 -52.5t-51.5 -21.5zM396 626q-28 0 -47 19t-19 47q0 31 21.5 52.5t51.5 21.5q28 0 47 -19t19 -47q0 -31 -21.5 -52.5t-51.5 -21.5z" />
    <glyph glyph-name="copyright" unicode="&#xa9;" horiz-adv-x="890" 
d="M62 390q0 166 117 283t283 117t283 -117t117 -283t-117 -283t-283 -117t-283 117t-117 283zM92 390q0 -153 108.5 -261.5t261.5 -108.5t261.5 108.5t108.5 261.5t-108.5 261.5t-261.5 108.5t-261.5 -108.5t-108.5 -261.5zM459 186q106 0 170 123h33l-32 -127
q-78 -42 -180 -42q-107 0 -170 58.5t-63 157.5q0 121 77 205t205 84q97 0 173 -51l-13 -109h-29q-25 114 -136 114q-90 0 -136 -69t-46 -176q0 -82 39 -125t108 -43z" />
    <glyph glyph-name="ordfeminine" unicode="&#xaa;" horiz-adv-x="460" 
d="M176 403q37 0 89 83q28 43 49 97.5t25 88.5q-15 24 -48 24q-64 0 -107 -70.5t-43 -152.5q0 -70 35 -70zM297 403q0 23 26 132h-2q-24 -56 -49 -93q-62 -97 -130 -97q-42 0 -64 31t-22 83q0 110 70 192t164 82q56 0 83 -37l45 43h32l-25 -79q-42 -168 -42 -242
q0 -19 15 -19q21 0 56 43l23 -18q-55 -79 -122 -79q-58 0 -58 58z" />
    <glyph glyph-name="guillemotleft" unicode="&#xab;" horiz-adv-x="477" 
d="M44 269l1 10l190 190h52l-149 -195l101 -195h-45zM213 269l1 10l190 190h52l-149 -195l101 -195h-45z" />
    <glyph glyph-name="logicalnot" unicode="&#xac;" 
d="M534 208l37 303h-479l8 61h540l-45 -364h-61z" />
    <glyph glyph-name="uni00AD" unicode="&#xad;" horiz-adv-x="380" 
d="M325 297h-260l10 76h260z" />
    <glyph glyph-name="registered" unicode="&#xae;" horiz-adv-x="471" 
d="M96 603q0 78 54 132.5t130 54.5q78 0 132.5 -54.5t54.5 -132.5q0 -76 -54.5 -130t-132.5 -54q-76 0 -130 54t-54 130zM122 603q0 -66 46.5 -113.5t111.5 -47.5q66 0 113 47.5t47 113.5q0 67 -47 115t-113 48q-65 0 -111.5 -48t-46.5 -115zM203 714h99q76 0 76 -53
q0 -26 -19.5 -42t-46.5 -19l37 -50q24 -31 39 -31l-1 -17h-45q-19 17 -39 45l-33 48h-17l-5 -39q-2 -14 -2 -19q0 -10 5 -14t19 -4l-2 -17h-91l2 17q16 0 20.5 4.5t6.5 19.5l15 117q2 16 2 19q0 11 -4 14.5t-18 3.5zM266 693l-11 -80h24q56 0 56 48q0 32 -42 32h-27z" />
    <glyph glyph-name="macron" unicode="&#xaf;" horiz-adv-x="600" 
d="M160 644l8 64h272l-8 -64h-272z" />
    <glyph glyph-name="degree" unicode="&#xb0;" horiz-adv-x="488" 
d="M250 471q58 0 96.5 43t38.5 107q0 49 -27 81.5t-74 32.5q-58 0 -96.5 -43t-38.5 -107q0 -49 27 -81.5t74 -32.5zM253 416q-79 0 -125.5 47.5t-46.5 119.5q0 87 56 147t144 60q79 0 125.5 -47.5t46.5 -119.5q0 -87 -56 -147t-144 -60z" />
    <glyph glyph-name="plusminus" unicode="&#xb1;" 
d="M300 170l20 163h-238l8 64h238l20 163h64l-20 -163h238l-8 -64h-238l-20 -163h-64zM587 53h-540l8 64h540z" />
    <glyph glyph-name="twosuperior" unicode="&#xb2;" horiz-adv-x="399" 
d="M135 372h102q47 0 66 11.5t50 59.5h28l-40 -147h-326l3 24q173 148 219 204t46 115q0 36 -21 56t-59 20q-57 0 -110 -57l-20 18q60 110 171 110q64 0 100.5 -32.5t36.5 -87.5q0 -28 -9 -53.5t-21.5 -45t-39 -45t-47.5 -43t-61.5 -51t-67.5 -56.5z" />
    <glyph glyph-name="threesuperior" unicode="&#xb3;" horiz-adv-x="404" 
d="M159 552q62 21 98.5 46.5t36.5 65.5q0 27 -17 43t-48 16q-57 0 -109 -57l-20 20q56 100 165 100q57 0 89.5 -27t32.5 -73q0 -83 -118 -114q55 -7 86.5 -41t31.5 -85q0 -76 -55 -116t-132 -40t-117 31t-40 72q0 42 39 60h50q-5 -25 -5 -43q0 -37 19 -61t56 -24
q44 0 68.5 29t24.5 81q0 44 -24 70t-65 26q-8 0 -40 -4z" />
    <glyph glyph-name="acute" unicode="&#xb4;" horiz-adv-x="600" 
d="M290 800h146l-227 -208h-45z" />
    <glyph glyph-name="paragraph" unicode="&#xb6;" horiz-adv-x="718" 
d="M273 -240l73 594q-118 0 -183.5 49t-65.5 142q0 114 80.5 174.5t211.5 60.5h324l-5 -43q-62 -2 -90.5 -18t-34.5 -63l-110 -896h-52l120 977h-96l-120 -977h-52z" />
    <glyph glyph-name="periodcentered" unicode="&#xb7;" horiz-adv-x="324" 
d="M95 317q0 32 22.5 54.5t54.5 22.5t54.5 -22.5t22.5 -54.5t-22.5 -54.5t-54.5 -22.5t-54.5 22.5t-22.5 54.5z" />
    <glyph glyph-name="cedilla" unicode="&#xb8;" horiz-adv-x="600" 
d="M289 12h32l-28 -55q50 -7 82 -32.5t32 -70.5q0 -50 -32.5 -77t-79.5 -27q-63 0 -103 36l18 26q36 -20 79 -20q55 0 55 44q0 57 -111 65z" />
    <glyph glyph-name="onesuperior" unicode="&#xb9;" horiz-adv-x="363" 
d="M283 786h25l-48 -394q-2 -18 -2 -26q0 -20 25 -26.5t82 -9.5l-3 -34h-321l4 34q35 2 51.5 3.5t36.5 6.5t28.5 14.5t10.5 24.5l35 286h-122l3 30l46 8q52 9 85 27.5t64 55.5z" />
    <glyph glyph-name="ordmasculine" unicode="&#xba;" horiz-adv-x="396" 
d="M202 381q48 0 78 68.5t30 147.5q0 100 -56 100q-32 0 -57.5 -34.5t-38 -83t-12.5 -97.5q0 -101 56 -101zM196 345q-68 0 -104 41t-36 107q0 97 57 168.5t148 71.5q68 0 103.5 -40.5t35.5 -106.5q0 -98 -56.5 -169.5t-147.5 -71.5z" />
    <glyph glyph-name="guillemotright" unicode="&#xbb;" horiz-adv-x="477" 
d="M264 279l-1 -10l-190 -190h-52l149 195l-101 195h45zM433 279l-1 -10l-190 -190h-52l149 195l-101 195h45z" />
    <glyph glyph-name="onequarter" unicode="&#xbc;" horiz-adv-x="940" 
d="M283 786h25l-48 -394q-2 -18 -2 -26q0 -20 25 -26.5t82 -9.5l-3 -34h-321l4 34q35 2 51.5 3.5t36.5 6.5t28.5 14.5t10.5 24.5l35 286h-122l3 30l46 8q52 9 85 27.5t64 55.5zM178 0l641 780h68l-641 -780h-68zM565 167h174l27 214zM805 0h-87l16 124h-235l4 33l303 327h59
l-39 -317h80l-5 -43h-80z" />
    <glyph glyph-name="onehalf" unicode="&#xbd;" horiz-adv-x="1005" 
d="M283 786h25l-48 -394q-2 -18 -2 -26q0 -20 25 -26.5t82 -9.5l-3 -34h-321l4 34q35 2 51.5 3.5t36.5 6.5t28.5 14.5t10.5 24.5l35 286h-122l3 30l46 8q52 9 85 27.5t64 55.5zM178 0l641 780h68l-641 -780h-68zM711 76h102q47 0 66 11.5t50 59.5h28l-40 -147h-326l3 24
q173 148 219 204t46 115q0 36 -21 56t-59 20q-57 0 -110 -57l-20 18q60 110 171 110q64 0 100.5 -32.5t36.5 -87.5q0 -28 -9 -53.5t-21.5 -45t-39 -45t-47.5 -43t-61.5 -51t-67.5 -56.5z" />
    <glyph glyph-name="threequarters" unicode="&#xbe;" horiz-adv-x="942" 
d="M159 552q62 21 98.5 46.5t36.5 65.5q0 27 -17 43t-48 16q-57 0 -109 -57l-20 20q56 100 165 100q57 0 89.5 -27t32.5 -73q0 -83 -118 -114q55 -7 86.5 -41t31.5 -85q0 -76 -55 -116t-132 -40t-117 31t-40 72q0 42 39 60h50q-5 -25 -5 -43q0 -37 19 -61t56 -24
q44 0 68.5 29t24.5 81q0 44 -24 70t-65 26q-8 0 -40 -4zM179 0l641 780h68l-641 -780h-68zM567 167h174l27 214zM807 0h-87l16 124h-235l4 33l303 327h59l-39 -317h80l-5 -43h-80z" />
    <glyph glyph-name="questiondown" unicode="&#xbf;" horiz-adv-x="487" 
d="M234 47q-62 -36 -89.5 -69t-27.5 -85q0 -47 28 -74t76 -27q55 0 84.5 33.5t29.5 88.5q0 15 -5 40h87q21 -23 21 -58q0 -68 -63.5 -112t-155.5 -44q-95 0 -149 44t-54 120q0 78 40.5 128.5t118.5 93.5q68 37 95.5 71.5t27.5 85.5v32h34q25 -44 25 -99q0 -98 -123 -169z
M402 463q0 -32 -22.5 -54.5t-54.5 -22.5t-54.5 22.5t-22.5 54.5t22.5 54.5t54.5 22.5t54.5 -22.5t22.5 -54.5z" />
    <glyph glyph-name="Agrave" unicode="&#xc0;" horiz-adv-x="796" 
d="M570 143l-30 109h-322l-58 -110q-19 -35 -19 -57t18.5 -31t76.5 -11l-5 -43h-250l5 43q58 9 75 41l342 637l-23 69h123l201 -706q5 -20 20 -28.5t43 -12.5l-5 -43h-297l5 43q61 2 85 11.5t24 33.5t-9 55zM430 656l-183 -349h278zM274 1030h132l78 -208h-45z" />
    <glyph glyph-name="Aacute" unicode="&#xc1;" horiz-adv-x="796" 
d="M570 143l-30 109h-322l-58 -110q-19 -35 -19 -57t18.5 -31t76.5 -11l-5 -43h-250l5 43q58 9 75 41l342 637l-23 69h123l201 -706q5 -20 20 -28.5t43 -12.5l-5 -43h-297l5 43q61 2 85 11.5t24 33.5t-9 55zM430 656l-183 -349h278zM552 1030h146l-227 -208h-45z" />
    <glyph glyph-name="Acircumflex" unicode="&#xc2;" horiz-adv-x="796" 
d="M570 143l-30 109h-322l-58 -110q-19 -35 -19 -57t18.5 -31t76.5 -11l-5 -43h-250l5 43q58 9 75 41l342 637l-23 69h123l201 -706q5 -20 20 -28.5t43 -12.5l-5 -43h-297l5 43q61 2 85 11.5t24 33.5t-9 55zM430 656l-183 -349h278zM516 1030l121 -208h-45l-123 124
l-153 -124h-47l173 208h74z" />
    <glyph glyph-name="Atilde" unicode="&#xc3;" horiz-adv-x="796" 
d="M570 143l-30 109h-322l-58 -110q-19 -35 -19 -57t18.5 -31t76.5 -11l-5 -43h-250l5 43q58 9 75 41l342 637l-23 69h123l201 -706q5 -20 20 -28.5t43 -12.5l-5 -43h-297l5 43q61 2 85 11.5t24 33.5t-9 55zM430 656l-183 -349h278zM632 994l44 -7q-59 -128 -146 -128
q-34 0 -76.5 30.5t-62.5 30.5q-24 0 -40 -13t-38 -46l-44 7q59 128 146 128q34 0 76.5 -30.5t62.5 -30.5q24 0 40 13t38 46z" />
    <glyph glyph-name="Adieresis" unicode="&#xc4;" horiz-adv-x="796" 
d="M570 143l-30 109h-322l-58 -110q-19 -35 -19 -57t18.5 -31t76.5 -11l-5 -43h-250l5 43q58 9 75 41l342 637l-23 69h123l201 -706q5 -20 20 -28.5t43 -12.5l-5 -43h-297l5 43q61 2 85 11.5t24 33.5t-9 55zM430 656l-183 -349h278zM365 856q-28 0 -47 19t-19 47
q0 31 21.5 52.5t51.5 21.5q28 0 47 -19t19 -47q0 -31 -21.5 -52.5t-51.5 -21.5zM565 856q-28 0 -47 19t-19 47q0 31 21.5 52.5t51.5 21.5q28 0 47 -19t19 -47q0 -31 -21.5 -52.5t-51.5 -21.5z" />
    <glyph glyph-name="Aring" unicode="&#xc5;" horiz-adv-x="796" 
d="M570 143l-30 109h-322l-58 -110q-19 -35 -19 -57t18.5 -31t76.5 -11l-5 -43h-250l5 43q58 9 75 41l342 637l-23 69h123l201 -706q5 -20 20 -28.5t43 -12.5l-5 -43h-297l5 43q61 2 85 11.5t24 33.5t-9 55zM430 656l-183 -349h278zM530 939q0 55 -54 55q-33 0 -51.5 -23
t-18.5 -58q0 -55 54 -55q33 0 51.5 23t18.5 58zM583 942q0 -56 -37 -93t-92 -37q-46 0 -73.5 28t-27.5 70q0 56 37 93t92 37q46 0 73.5 -28t27.5 -70z" />
    <glyph glyph-name="AE" unicode="&#xc6;" horiz-adv-x="1147" 
d="M239 252l-75 -115q-17 -25 -17 -48q0 -22 19 -33t76 -13l-5 -43h-256l5 43q58 9 75 41l416 634q-35 19 -97 19l5 43h742l-20 -186h-33q-23 75 -52.5 103t-95.5 28h-297l23 -300h213q36 0 57 24t37 76h38l-31 -255h-38q-3 53 -18.5 76.5t-51.5 23.5h-202l19 -240
q4 -44 30.5 -59.5t90.5 -15.5h54q38 0 61.5 5t49 25.5t42.5 41.5t56 73h37l-59 -200h-598l5 43q59 3 90 15t31 46q0 16 -1 30l-10 118h-315zM522 679h-2l-245 -372h275z" />
    <glyph glyph-name="Ccedilla" unicode="&#xc7;" horiz-adv-x="785" 
d="M420 49q96 0 154.5 46t108.5 146h44l-45 -189q-107 -60 -265 -62l-17 -33q50 -7 82 -32.5t32 -70.5q0 -50 -32.5 -77t-79.5 -27q-63 0 -103 36l18 26q36 -20 79 -20q55 0 55 44q0 57 -111 65l45 90q-144 8 -232 98.5t-88 240.5q0 87 27.5 168t78.5 147t132 105.5
t179 39.5q150 0 268 -74l-15 -170h-38q-35 185 -222 185q-71 0 -128 -36t-90.5 -94.5t-51 -126.5t-17.5 -138q0 -139 63 -213t169 -74z" />
    <glyph glyph-name="Egrave" unicode="&#xc8;" horiz-adv-x="773" 
d="M663 0h-641l5 43q62 3 90.5 18.5t34.5 62.5l64 524q2 16 2 24q0 37 -24.5 50t-81.5 15l5 43h636l-20 -186h-33q-23 75 -52.5 103t-95.5 28h-215l-37 -300h191q36 0 57 24t37 76h38l-31 -255h-38q-3 53 -18.5 76.5t-51.5 23.5h-191l-26 -208q-4 -35 -4 -52q0 -31 24.5 -43
t81.5 -12h107q38 0 61.5 5t49 25.5t42.5 41.5t56 73h37zM293 1030h132l78 -208h-45z" />
    <glyph glyph-name="Eacute" unicode="&#xc9;" horiz-adv-x="773" 
d="M663 0h-641l5 43q62 3 90.5 18.5t34.5 62.5l64 524q2 16 2 24q0 37 -24.5 50t-81.5 15l5 43h636l-20 -186h-33q-23 75 -52.5 103t-95.5 28h-215l-37 -300h191q36 0 57 24t37 76h38l-31 -255h-38q-3 53 -18.5 76.5t-51.5 23.5h-191l-26 -208q-4 -35 -4 -52q0 -31 24.5 -43
t81.5 -12h107q38 0 61.5 5t49 25.5t42.5 41.5t56 73h37zM561 1030h146l-227 -208h-45z" />
    <glyph glyph-name="Ecircumflex" unicode="&#xca;" horiz-adv-x="773" 
d="M663 0h-641l5 43q62 3 90.5 18.5t34.5 62.5l64 524q2 16 2 24q0 37 -24.5 50t-81.5 15l5 43h636l-20 -186h-33q-23 75 -52.5 103t-95.5 28h-215l-37 -300h191q36 0 57 24t37 76h38l-31 -255h-38q-3 53 -18.5 76.5t-51.5 23.5h-191l-26 -208q-4 -35 -4 -52q0 -31 24.5 -43
t81.5 -12h107q38 0 61.5 5t49 25.5t42.5 41.5t56 73h37zM525 1030l121 -208h-45l-123 124l-153 -124h-47l173 208h74z" />
    <glyph glyph-name="Edieresis" unicode="&#xcb;" horiz-adv-x="773" 
d="M663 0h-641l5 43q62 3 90.5 18.5t34.5 62.5l64 524q2 16 2 24q0 37 -24.5 50t-81.5 15l5 43h636l-20 -186h-33q-23 75 -52.5 103t-95.5 28h-215l-37 -300h191q36 0 57 24t37 76h38l-31 -255h-38q-3 53 -18.5 76.5t-51.5 23.5h-191l-26 -208q-4 -35 -4 -52q0 -31 24.5 -43
t81.5 -12h107q38 0 61.5 5t49 25.5t42.5 41.5t56 73h37zM374 856q-28 0 -47 19t-19 47q0 31 21.5 52.5t51.5 21.5q28 0 47 -19t19 -47q0 -31 -21.5 -52.5t-51.5 -21.5zM574 856q-28 0 -47 19t-19 47q0 31 21.5 52.5t51.5 21.5q28 0 47 -19t19 -47q0 -31 -21.5 -52.5
t-51.5 -21.5z" />
    <glyph glyph-name="Igrave" unicode="&#xcc;" horiz-adv-x="435" 
d="M117 780h341l-5 -43q-62 -2 -90.5 -18t-34.5 -63l-63 -514q-3 -22 -3 -40q0 -34 24.5 -45t81.5 -14l-5 -43h-341l5 43q62 3 90.5 18.5t34.5 62.5l64 524q2 16 2 24q0 37 -24.5 50t-81.5 15zM112 1030h132l78 -208h-45z" />
    <glyph glyph-name="Iacute" unicode="&#xcd;" horiz-adv-x="435" 
d="M117 780h341l-5 -43q-62 -2 -90.5 -18t-34.5 -63l-63 -514q-3 -22 -3 -40q0 -34 24.5 -45t81.5 -14l-5 -43h-341l5 43q62 3 90.5 18.5t34.5 62.5l64 524q2 16 2 24q0 37 -24.5 50t-81.5 15zM390 1030h146l-227 -208h-45z" />
    <glyph glyph-name="Icircumflex" unicode="&#xce;" horiz-adv-x="435" 
d="M117 780h341l-5 -43q-62 -2 -90.5 -18t-34.5 -63l-63 -514q-3 -22 -3 -40q0 -34 24.5 -45t81.5 -14l-5 -43h-341l5 43q62 3 90.5 18.5t34.5 62.5l64 524q2 16 2 24q0 37 -24.5 50t-81.5 15zM354 1030l121 -208h-45l-123 124l-153 -124h-47l173 208h74z" />
    <glyph glyph-name="Idieresis" unicode="&#xcf;" horiz-adv-x="435" 
d="M117 780h341l-5 -43q-62 -2 -90.5 -18t-34.5 -63l-63 -514q-3 -22 -3 -40q0 -34 24.5 -45t81.5 -14l-5 -43h-341l5 43q62 3 90.5 18.5t34.5 62.5l64 524q2 16 2 24q0 37 -24.5 50t-81.5 15zM203 856q-28 0 -47 19t-19 47q0 31 21.5 52.5t51.5 21.5q28 0 47 -19t19 -47
q0 -31 -21.5 -52.5t-51.5 -21.5zM403 856q-28 0 -47 19t-19 47q0 31 21.5 52.5t51.5 21.5q28 0 47 -19t19 -47q0 -31 -21.5 -52.5t-51.5 -21.5z" />
    <glyph glyph-name="Eth" unicode="&#xd0;" horiz-adv-x="865" 
d="M73 370l7 55h108l28 223q2 16 2 24q0 37 -24.5 50t-81.5 15l5 43h349q185 0 282 -89.5t97 -235.5q0 -206 -124.5 -330.5t-313.5 -124.5h-385l5 43q62 3 90.5 18.5t34.5 62.5l30 246h-109zM369 55h27q147 0 234.5 102.5t87.5 287.5q0 280 -274 280h-107l-37 -300h212
l-8 -55h-211l-26 -208q-4 -35 -4 -52q0 -31 24.5 -43t81.5 -12z" />
    <glyph glyph-name="Ntilde" unicode="&#xd1;" horiz-adv-x="928" 
d="M706 190l55 458q2 16 2 24q0 37 -24.5 50t-81.5 15l5 43h296l-5 -43q-62 -2 -90.5 -18t-34.5 -63l-80 -656h-47l-422 621l-59 -479q-3 -22 -3 -40q0 -34 24.5 -45t81.5 -14l-5 -43h-296l5 43q62 3 90.5 18.5t34.5 62.5l67 547q-31 41 -49 53t-58 13l5 43h187zM720 994
l44 -7q-59 -128 -146 -128q-34 0 -76.5 30.5t-62.5 30.5q-24 0 -40 -13t-38 -46l-44 7q59 128 146 128q34 0 76.5 -30.5t62.5 -30.5q24 0 40 13t38 46z" />
    <glyph glyph-name="Ograve" unicode="&#xd2;" horiz-adv-x="816" 
d="M389 49q72 0 128 36.5t88 96t48 126.5t16 136q0 137 -54.5 212t-146.5 75q-72 0 -128 -36.5t-88 -96t-48 -126.5t-16 -136q0 -137 54.5 -212t146.5 -75zM380 -10q-143 0 -229 91t-86 249q0 85 26 165.5t75 147t130 107t181 40.5q143 0 229 -91t86 -249q0 -85 -26 -165.5
t-75 -147t-130 -107t-181 -40.5zM302 1030h132l78 -208h-45z" />
    <glyph glyph-name="Oacute" unicode="&#xd3;" horiz-adv-x="816" 
d="M389 49q72 0 128 36.5t88 96t48 126.5t16 136q0 137 -54.5 212t-146.5 75q-72 0 -128 -36.5t-88 -96t-48 -126.5t-16 -136q0 -137 54.5 -212t146.5 -75zM380 -10q-143 0 -229 91t-86 249q0 85 26 165.5t75 147t130 107t181 40.5q143 0 229 -91t86 -249q0 -85 -26 -165.5
t-75 -147t-130 -107t-181 -40.5zM580 1030h146l-227 -208h-45z" />
    <glyph glyph-name="Ocircumflex" unicode="&#xd4;" horiz-adv-x="816" 
d="M389 49q72 0 128 36.5t88 96t48 126.5t16 136q0 137 -54.5 212t-146.5 75q-72 0 -128 -36.5t-88 -96t-48 -126.5t-16 -136q0 -137 54.5 -212t146.5 -75zM380 -10q-143 0 -229 91t-86 249q0 85 26 165.5t75 147t130 107t181 40.5q143 0 229 -91t86 -249q0 -85 -26 -165.5
t-75 -147t-130 -107t-181 -40.5zM554 1030l121 -208h-45l-123 124l-153 -124h-47l173 208h74z" />
    <glyph glyph-name="Otilde" unicode="&#xd5;" horiz-adv-x="816" 
d="M389 49q72 0 128 36.5t88 96t48 126.5t16 136q0 137 -54.5 212t-146.5 75q-72 0 -128 -36.5t-88 -96t-48 -126.5t-16 -136q0 -137 54.5 -212t146.5 -75zM380 -10q-143 0 -229 91t-86 249q0 85 26 165.5t75 147t130 107t181 40.5q143 0 229 -91t86 -249q0 -85 -26 -165.5
t-75 -147t-130 -107t-181 -40.5zM660 994l44 -7q-59 -128 -146 -128q-34 0 -76.5 30.5t-62.5 30.5q-24 0 -40 -13t-38 -46l-44 7q59 128 146 128q34 0 76.5 -30.5t62.5 -30.5q24 0 40 13t38 46z" />
    <glyph glyph-name="Odieresis" unicode="&#xd6;" horiz-adv-x="816" 
d="M389 49q72 0 128 36.5t88 96t48 126.5t16 136q0 137 -54.5 212t-146.5 75q-72 0 -128 -36.5t-88 -96t-48 -126.5t-16 -136q0 -137 54.5 -212t146.5 -75zM380 -10q-143 0 -229 91t-86 249q0 85 26 165.5t75 147t130 107t181 40.5q143 0 229 -91t86 -249q0 -85 -26 -165.5
t-75 -147t-130 -107t-181 -40.5zM393 856q-28 0 -47 19t-19 47q0 31 21.5 52.5t51.5 21.5q28 0 47 -19t19 -47q0 -31 -21.5 -52.5t-51.5 -21.5zM593 856q-28 0 -47 19t-19 47q0 31 21.5 52.5t51.5 21.5q28 0 47 -19t19 -47q0 -31 -21.5 -52.5t-51.5 -21.5z" />
    <glyph glyph-name="multiply" unicode="&#xd7;" 
d="M62 83l235 209l-182 207l52 46l181 -208l235 210l42 -48l-236 -209l185 -209l-52 -46l-183 210l-235 -210z" />
    <glyph glyph-name="Oslash" unicode="&#xd8;" horiz-adv-x="811" 
d="M372 -10q-136 0 -220 82l-79 -83l-36 29l84 89q-64 89 -64 223q0 85 26 165.5t75 147t130 107t181 40.5q135 0 219 -82l78 82l38 -30l-84 -89q64 -87 64 -221q0 -85 -26 -165.5t-75 -147t-130 -107t-181 -40.5zM180 336q0 -83 20 -145l420 444q-53 96 -160 96
q-72 0 -128 -36.5t-88 -96t-48 -126.5t-16 -136zM381 49q72 0 128 36.5t88 96t48 126.5t16 136q0 78 -21 143l-419 -442q53 -96 160 -96z" />
    <glyph glyph-name="Ugrave" unicode="&#xd9;" horiz-adv-x="855" 
d="M142 318l40 330q2 16 2 24q0 37 -24.5 50t-81.5 15l5 43h341l-5 -43q-62 -2 -90.5 -18t-34.5 -63l-42 -341q-6 -47 -6 -78q0 -82 51 -129.5t138 -47.5q112 0 170 58.5t73 177.5l43 352q2 16 2 24q0 37 -24.5 50t-81.5 15l5 43h296l-5 -43q-62 -2 -90.5 -18t-34.5 -63
l-46 -381q-17 -136 -102 -210.5t-216 -74.5q-135 0 -212 62t-77 180q0 24 7 86zM351 1030h132l78 -208h-45z" />
    <glyph glyph-name="Uacute" unicode="&#xda;" horiz-adv-x="855" 
d="M142 318l40 330q2 16 2 24q0 37 -24.5 50t-81.5 15l5 43h341l-5 -43q-62 -2 -90.5 -18t-34.5 -63l-42 -341q-6 -47 -6 -78q0 -82 51 -129.5t138 -47.5q112 0 170 58.5t73 177.5l43 352q2 16 2 24q0 37 -24.5 50t-81.5 15l5 43h296l-5 -43q-62 -2 -90.5 -18t-34.5 -63
l-46 -381q-17 -136 -102 -210.5t-216 -74.5q-135 0 -212 62t-77 180q0 24 7 86zM629 1030h146l-227 -208h-45z" />
    <glyph glyph-name="Ucircumflex" unicode="&#xdb;" horiz-adv-x="855" 
d="M142 318l40 330q2 16 2 24q0 37 -24.5 50t-81.5 15l5 43h341l-5 -43q-62 -2 -90.5 -18t-34.5 -63l-42 -341q-6 -47 -6 -78q0 -82 51 -129.5t138 -47.5q112 0 170 58.5t73 177.5l43 352q2 16 2 24q0 37 -24.5 50t-81.5 15l5 43h296l-5 -43q-62 -2 -90.5 -18t-34.5 -63
l-46 -381q-17 -136 -102 -210.5t-216 -74.5q-135 0 -212 62t-77 180q0 24 7 86zM593 1030l121 -208h-45l-123 124l-153 -124h-47l173 208h74z" />
    <glyph glyph-name="Udieresis" unicode="&#xdc;" horiz-adv-x="855" 
d="M142 318l40 330q2 16 2 24q0 37 -24.5 50t-81.5 15l5 43h341l-5 -43q-62 -2 -90.5 -18t-34.5 -63l-42 -341q-6 -47 -6 -78q0 -82 51 -129.5t138 -47.5q112 0 170 58.5t73 177.5l43 352q2 16 2 24q0 37 -24.5 50t-81.5 15l5 43h296l-5 -43q-62 -2 -90.5 -18t-34.5 -63
l-46 -381q-17 -136 -102 -210.5t-216 -74.5q-135 0 -212 62t-77 180q0 24 7 86zM441 856q-28 0 -47 19t-19 47q0 31 21.5 52.5t51.5 21.5q28 0 47 -19t19 -47q0 -31 -21.5 -52.5t-51.5 -21.5zM641 856q-28 0 -47 19t-19 47q0 31 21.5 52.5t51.5 21.5q28 0 47 -19t19 -47
q0 -31 -21.5 -52.5t-51.5 -21.5z" />
    <glyph glyph-name="Yacute" unicode="&#xdd;" horiz-adv-x="767" 
d="M316 124l23 189l-197 383q-10 20 -24.5 28.5t-39.5 12.5l5 43h301l-5 -43q-61 -2 -84 -12t-23 -34q0 -21 13 -47l140 -270l210 270q23 31 23 51q0 22 -19 31t-76 11l5 43h257l-5 -43q-49 -7 -74 -41l-297 -381l-21 -175q-3 -23 -3 -31q0 -38 24 -51t86 -15l-5 -43h-348
l5 43q63 3 93 18.5t36 62.5zM593 1030h146l-227 -208h-45z" />
    <glyph glyph-name="Thorn" unicode="&#xde;" horiz-adv-x="732" 
d="M317 569l-42 -344h122q96 0 151.5 45.5t55.5 139.5q0 159 -181 159h-106zM438 170h-170q-5 -42 -5 -60q0 -33 26.5 -48t98.5 -19l-5 -43h-361l5 43q62 3 90.5 18.5t34.5 62.5l64 524q2 16 2 24q0 37 -24.5 50t-81.5 15l5 43h341l-5 -43q-62 -2 -90.5 -18t-34.5 -63
l-4 -32h114q146 0 216.5 -54t70.5 -153q0 -112 -78 -179.5t-209 -67.5z" />
    <glyph glyph-name="germandbls" unicode="&#xdf;" horiz-adv-x="676" 
d="M275 601l-76 -502q-53 -349 -254 -349q-63 0 -98 25.5t-35 63.5q0 44 36 64h43q4 -50 23 -77.5t50 -27.5q48 0 80 51t48 168l61 458h-76l10 55h74l7 39q20 113 96 177t184 64q88 0 136.5 -46.5t48.5 -111.5q0 -139 -171 -216q87 -63 128.5 -114t41.5 -122
q0 -93 -64.5 -151.5t-164.5 -58.5q-69 0 -112 29t-43 72q0 39 40 57h31q11 -52 40 -80t73 -28t73.5 31.5t29.5 86.5q0 67 -44 116.5t-139 117.5l6 26q104 52 138.5 94t34.5 123q0 54 -30.5 89t-87.5 35q-55 0 -90.5 -40t-47.5 -118z" />
    <glyph glyph-name="agrave" unicode="&#xe0;" horiz-adv-x="635" 
d="M190 57q28 0 58.5 26t72.5 86q44 64 76 146.5t36 133.5q-21 41 -72 41q-96 0 -159 -99.5t-64 -220.5q0 -113 52 -113zM376 65q0 17 6 48t18.5 84t14.5 62h-4q-2 -5 -9.5 -22.5t-11 -25t-11 -22.5t-16.5 -29.5t-20 -30.5q-96 -139 -186 -139q-58 0 -87.5 43t-29.5 115
q0 154 100 273t223 119q80 0 106 -55l65 63h35l-35 -112q-23 -92 -41.5 -200t-18.5 -150q0 -28 23 -28q30 0 86 71l32 -22q-72 -117 -162 -117q-77 0 -77 75zM176 800h132l78 -208h-45z" />
    <glyph glyph-name="aacute" unicode="&#xe1;" horiz-adv-x="635" 
d="M190 57q28 0 58.5 26t72.5 86q44 64 76 146.5t36 133.5q-21 41 -72 41q-96 0 -159 -99.5t-64 -220.5q0 -113 52 -113zM376 65q0 17 6 48t18.5 84t14.5 62h-4q-2 -5 -9.5 -22.5t-11 -25t-11 -22.5t-16.5 -29.5t-20 -30.5q-96 -139 -186 -139q-58 0 -87.5 43t-29.5 115
q0 154 100 273t223 119q80 0 106 -55l65 63h35l-35 -112q-23 -92 -41.5 -200t-18.5 -150q0 -28 23 -28q30 0 86 71l32 -22q-72 -117 -162 -117q-77 0 -77 75zM455 800h146l-227 -208h-45z" />
    <glyph glyph-name="acircumflex" unicode="&#xe2;" horiz-adv-x="635" 
d="M190 57q28 0 58.5 26t72.5 86q44 64 76 146.5t36 133.5q-21 41 -72 41q-96 0 -159 -99.5t-64 -220.5q0 -113 52 -113zM376 65q0 17 6 48t18.5 84t14.5 62h-4q-2 -5 -9.5 -22.5t-11 -25t-11 -22.5t-16.5 -29.5t-20 -30.5q-96 -139 -186 -139q-58 0 -87.5 43t-29.5 115
q0 154 100 273t223 119q80 0 106 -55l65 63h35l-35 -112q-23 -92 -41.5 -200t-18.5 -150q0 -28 23 -28q30 0 86 71l32 -22q-72 -117 -162 -117q-77 0 -77 75zM420 800l121 -208h-45l-123 124l-153 -124h-47l173 208h74z" />
    <glyph glyph-name="atilde" unicode="&#xe3;" horiz-adv-x="635" 
d="M190 57q28 0 58.5 26t72.5 86q44 64 76 146.5t36 133.5q-21 41 -72 41q-96 0 -159 -99.5t-64 -220.5q0 -113 52 -113zM376 65q0 17 6 48t18.5 84t14.5 62h-4q-2 -5 -9.5 -22.5t-11 -25t-11 -22.5t-16.5 -29.5t-20 -30.5q-96 -139 -186 -139q-58 0 -87.5 43t-29.5 115
q0 154 100 273t223 119q80 0 106 -55l65 63h35l-35 -112q-23 -92 -41.5 -200t-18.5 -150q0 -28 23 -28q30 0 86 71l32 -22q-72 -117 -162 -117q-77 0 -77 75zM529 745l44 -7q-59 -128 -146 -128q-34 0 -76.5 30.5t-62.5 30.5q-24 0 -40 -13t-38 -46l-44 7q59 128 146 128
q34 0 76.5 -30.5t62.5 -30.5q24 0 40 13t38 46z" />
    <glyph glyph-name="adieresis" unicode="&#xe4;" horiz-adv-x="635" 
d="M190 57q28 0 58.5 26t72.5 86q44 64 76 146.5t36 133.5q-21 41 -72 41q-96 0 -159 -99.5t-64 -220.5q0 -113 52 -113zM376 65q0 17 6 48t18.5 84t14.5 62h-4q-2 -5 -9.5 -22.5t-11 -25t-11 -22.5t-16.5 -29.5t-20 -30.5q-96 -139 -186 -139q-58 0 -87.5 43t-29.5 115
q0 154 100 273t223 119q80 0 106 -55l65 63h35l-35 -112q-23 -92 -41.5 -200t-18.5 -150q0 -28 23 -28q30 0 86 71l32 -22q-72 -117 -162 -117q-77 0 -77 75zM268 626q-28 0 -47 19t-19 47q0 31 21.5 52.5t51.5 21.5q28 0 47 -19t19 -47q0 -31 -21.5 -52.5t-51.5 -21.5z
M468 626q-28 0 -47 19t-19 47q0 31 21.5 52.5t51.5 21.5q28 0 47 -19t19 -47q0 -31 -21.5 -52.5t-51.5 -21.5z" />
    <glyph glyph-name="aring" unicode="&#xe5;" horiz-adv-x="635" 
d="M190 57q28 0 58.5 26t72.5 86q44 64 76 146.5t36 133.5q-21 41 -72 41q-96 0 -159 -99.5t-64 -220.5q0 -113 52 -113zM376 65q0 17 6 48t18.5 84t14.5 62h-4q-2 -5 -9.5 -22.5t-11 -25t-11 -22.5t-16.5 -29.5t-20 -30.5q-96 -139 -186 -139q-58 0 -87.5 43t-29.5 115
q0 154 100 273t223 119q80 0 106 -55l65 63h35l-35 -112q-23 -92 -41.5 -200t-18.5 -150q0 -28 23 -28q30 0 86 71l32 -22q-72 -117 -162 -117q-77 0 -77 75zM433 709q0 55 -54 55q-33 0 -51.5 -23t-18.5 -58q0 -55 54 -55q33 0 51.5 23t18.5 58zM486 712q0 -56 -37 -93
t-92 -37q-46 0 -73.5 28t-27.5 70q0 56 37 93t92 37q46 0 73.5 -28t27.5 -70z" />
    <glyph glyph-name="ae" unicode="&#xe6;" horiz-adv-x="811" 
d="M734 162l37 -22q-77 -150 -225 -150q-169 0 -185 167q-101 -167 -204 -167q-58 0 -87.5 43t-29.5 115q0 154 100 273t223 119q85 0 123 -61q72 61 165 61q61 0 95.5 -26.5t34.5 -77.5q0 -24 -10 -46t-23.5 -38.5t-39 -34t-45 -28t-53.5 -24.5t-52 -20.5t-53.5 -18
t-46.5 -15.5v-13q0 -73 29 -108.5t79 -35.5q55 0 93 27t75 81zM190 57q23 0 47.5 17t49 48.5t40 54t35.5 55.5q15 126 88 211q-28 47 -89 47q-96 0 -159 -99.5t-64 -220.5q0 -113 52 -113zM628 488q-66 0 -110.5 -69.5t-56.5 -167.5q121 41 175 79.5t54 93.5q0 64 -62 64z
" />
    <glyph glyph-name="ccedilla" unicode="&#xe7;" horiz-adv-x="474" 
d="M302 487q-73 0 -118.5 -85.5t-45.5 -188.5q0 -159 105 -159q42 0 77.5 27t75.5 76l31 -22q-31 -58 -87 -101.5t-122 -43.5q-10 0 -28 2l-17 -35q50 -7 82 -32.5t32 -70.5q0 -50 -32.5 -77t-79.5 -27q-63 0 -103 36l18 26q36 -20 79 -20q55 0 55 44q0 57 -111 65l48 97
q-60 16 -90.5 66t-30.5 119q0 145 84.5 251t211.5 106q58 0 89.5 -26.5t31.5 -64.5q0 -40 -36 -60h-43q-10 98 -76 98z" />
    <glyph glyph-name="egrave" unicode="&#xe8;" horiz-adv-x="491" 
d="M414 162l37 -22q-77 -150 -225 -150q-94 0 -140 52t-46 148q0 135 81.5 242.5t209.5 107.5q61 0 95.5 -26.5t34.5 -77.5q0 -24 -10 -46t-23.5 -38.5t-39 -34t-45 -28t-53.5 -24.5t-52 -20.5t-53.5 -18t-46.5 -15.5v-13q0 -73 29 -108.5t79 -35.5q55 0 93 27t75 81z
M308 488q-66 0 -110.5 -69.5t-56.5 -167.5q121 41 175 79.5t54 93.5q0 64 -62 64zM135 800h132l78 -208h-45z" />
    <glyph glyph-name="eacute" unicode="&#xe9;" horiz-adv-x="491" 
d="M414 162l37 -22q-77 -150 -225 -150q-94 0 -140 52t-46 148q0 135 81.5 242.5t209.5 107.5q61 0 95.5 -26.5t34.5 -77.5q0 -24 -10 -46t-23.5 -38.5t-39 -34t-45 -28t-53.5 -24.5t-52 -20.5t-53.5 -18t-46.5 -15.5v-13q0 -73 29 -108.5t79 -35.5q55 0 93 27t75 81z
M308 488q-66 0 -110.5 -69.5t-56.5 -167.5q121 41 175 79.5t54 93.5q0 64 -62 64zM404 800h146l-227 -208h-45z" />
    <glyph glyph-name="ecircumflex" unicode="&#xea;" horiz-adv-x="491" 
d="M414 162l37 -22q-77 -150 -225 -150q-94 0 -140 52t-46 148q0 135 81.5 242.5t209.5 107.5q61 0 95.5 -26.5t34.5 -77.5q0 -24 -10 -46t-23.5 -38.5t-39 -34t-45 -28t-53.5 -24.5t-52 -20.5t-53.5 -18t-46.5 -15.5v-13q0 -73 29 -108.5t79 -35.5q55 0 93 27t75 81z
M308 488q-66 0 -110.5 -69.5t-56.5 -167.5q121 41 175 79.5t54 93.5q0 64 -62 64zM379 800l121 -208h-45l-123 124l-153 -124h-47l173 208h74z" />
    <glyph glyph-name="edieresis" unicode="&#xeb;" horiz-adv-x="491" 
d="M414 162l37 -22q-77 -150 -225 -150q-94 0 -140 52t-46 148q0 135 81.5 242.5t209.5 107.5q61 0 95.5 -26.5t34.5 -77.5q0 -24 -10 -46t-23.5 -38.5t-39 -34t-45 -28t-53.5 -24.5t-52 -20.5t-53.5 -18t-46.5 -15.5v-13q0 -73 29 -108.5t79 -35.5q55 0 93 27t75 81z
M308 488q-66 0 -110.5 -69.5t-56.5 -167.5q121 41 175 79.5t54 93.5q0 64 -62 64zM228 626q-28 0 -47 19t-19 47q0 31 21.5 52.5t51.5 21.5q28 0 47 -19t19 -47q0 -31 -21.5 -52.5t-51.5 -21.5zM428 626q-28 0 -47 19t-19 47q0 31 21.5 52.5t51.5 21.5q28 0 47 -19t19 -47
q0 -31 -21.5 -52.5t-51.5 -21.5z" />
    <glyph glyph-name="igrave" unicode="&#xec;" horiz-adv-x="389" 
d="M271 469q0 -49 -33 -195.5t-33 -187.5q0 -28 23 -28q30 0 86 71l32 -22q-72 -117 -162 -117q-39 0 -60 20t-21 55q0 47 33 191.5t33 188.5q0 22 -24 22q-35 0 -90 -78l-33 22q68 129 173 129q76 0 76 -71zM43 800h132l78 -208h-45z" />
    <glyph glyph-name="iacute" unicode="&#xed;" horiz-adv-x="389" 
d="M271 469q0 -49 -33 -195.5t-33 -187.5q0 -28 23 -28q30 0 86 71l32 -22q-72 -117 -162 -117q-39 0 -60 20t-21 55q0 47 33 191.5t33 188.5q0 22 -24 22q-35 0 -90 -78l-33 22q68 129 173 129q76 0 76 -71zM313 800h146l-227 -208h-45z" />
    <glyph glyph-name="icircumflex" unicode="&#xee;" horiz-adv-x="389" 
d="M271 469q0 -49 -33 -195.5t-33 -187.5q0 -28 23 -28q30 0 86 71l32 -22q-72 -117 -162 -117q-39 0 -60 20t-21 55q0 47 33 191.5t33 188.5q0 22 -24 22q-35 0 -90 -78l-33 22q68 129 173 129q76 0 76 -71zM288 800l121 -208h-45l-123 124l-153 -124h-47l173 208h74z" />
    <glyph glyph-name="idieresis" unicode="&#xef;" horiz-adv-x="389" 
d="M271 469q0 -49 -33 -195.5t-33 -187.5q0 -28 23 -28q30 0 86 71l32 -22q-72 -117 -162 -117q-39 0 -60 20t-21 55q0 47 33 191.5t33 188.5q0 22 -24 22q-35 0 -90 -78l-33 22q68 129 173 129q76 0 76 -71zM136 626q-28 0 -47 19t-19 47q0 31 21.5 52.5t51.5 21.5
q28 0 47 -19t19 -47q0 -31 -21.5 -52.5t-51.5 -21.5zM336 626q-28 0 -47 19t-19 47q0 31 21.5 52.5t51.5 21.5q28 0 47 -19t19 -47q0 -31 -21.5 -52.5t-51.5 -21.5z" />
    <glyph glyph-name="eth" unicode="&#xf0;" horiz-adv-x="542" 
d="M184 608l-18 39l132 50q-41 54 -94 91v5l42 22q69 -38 119 -92l116 45l18 -38l-105 -41q108 -138 108 -335q0 -148 -77.5 -256t-203.5 -108q-90 0 -135.5 56t-45.5 146q0 88 33 166.5t98 130t148 51.5q36 0 63 -12q-18 69 -59 134zM235 39q49 0 87 46t56.5 113t18.5 141
q0 152 -90 152q-49 0 -87 -46t-56.5 -113t-18.5 -141q0 -152 90 -152z" />
    <glyph glyph-name="ntilde" unicode="&#xf1;" horiz-adv-x="708" 
d="M429 65q0 32 36.5 182.5t36.5 189.5q0 31 -21 31q-51 0 -138 -137t-148 -331h-97l73 409q4 24 4 36q0 22 -24 22q-35 0 -90 -78l-33 22q68 129 173 129q73 0 73 -71q0 -26 -14 -81l-56 -228h4q161 380 324 380q72 0 72 -83q0 -50 -36.5 -197.5t-36.5 -173.5q0 -28 23 -28
q30 0 86 71l32 -22q-72 -117 -162 -117q-39 0 -60 20t-21 55zM569 745l44 -7q-59 -128 -146 -128q-34 0 -76.5 30.5t-62.5 30.5q-24 0 -40 -13t-38 -46l-44 7q59 128 146 128q34 0 76.5 -30.5t62.5 -30.5q24 0 40 13t38 46z" />
    <glyph glyph-name="ograve" unicode="&#xf2;" horiz-adv-x="542" 
d="M235 39q49 0 87 46t56.5 113t18.5 141q0 152 -90 152q-49 0 -87 -46t-56.5 -113t-18.5 -141q0 -152 90 -152zM221 -10q-90 0 -135.5 56t-45.5 146q0 137 78 242.5t203 105.5q90 0 135.5 -56t45.5 -146q0 -137 -78 -242.5t-203 -105.5zM146 800h132l78 -208h-45z" />
    <glyph glyph-name="oacute" unicode="&#xf3;" horiz-adv-x="542" 
d="M235 39q49 0 87 46t56.5 113t18.5 141q0 152 -90 152q-49 0 -87 -46t-56.5 -113t-18.5 -141q0 -152 90 -152zM221 -10q-90 0 -135.5 56t-45.5 146q0 137 78 242.5t203 105.5q90 0 135.5 -56t45.5 -146q0 -137 -78 -242.5t-203 -105.5zM425 800h146l-227 -208h-45z" />
    <glyph glyph-name="ocircumflex" unicode="&#xf4;" horiz-adv-x="542" 
d="M235 39q49 0 87 46t56.5 113t18.5 141q0 152 -90 152q-49 0 -87 -46t-56.5 -113t-18.5 -141q0 -152 90 -152zM221 -10q-90 0 -135.5 56t-45.5 146q0 137 78 242.5t203 105.5q90 0 135.5 -56t45.5 -146q0 -137 -78 -242.5t-203 -105.5zM390 800l121 -208h-45l-123 124
l-153 -124h-47l173 208h74z" />
    <glyph glyph-name="otilde" unicode="&#xf5;" horiz-adv-x="542" 
d="M235 39q49 0 87 46t56.5 113t18.5 141q0 152 -90 152q-49 0 -87 -46t-56.5 -113t-18.5 -141q0 -152 90 -152zM221 -10q-90 0 -135.5 56t-45.5 146q0 137 78 242.5t203 105.5q90 0 135.5 -56t45.5 -146q0 -137 -78 -242.5t-203 -105.5zM500 745l44 -7q-59 -128 -146 -128
q-34 0 -76.5 30.5t-62.5 30.5q-24 0 -40 -13t-38 -46l-44 7q59 128 146 128q34 0 76.5 -30.5t62.5 -30.5q24 0 40 13t38 46z" />
    <glyph glyph-name="odieresis" unicode="&#xf6;" horiz-adv-x="542" 
d="M235 39q49 0 87 46t56.5 113t18.5 141q0 152 -90 152q-49 0 -87 -46t-56.5 -113t-18.5 -141q0 -152 90 -152zM221 -10q-90 0 -135.5 56t-45.5 146q0 137 78 242.5t203 105.5q90 0 135.5 -56t45.5 -146q0 -137 -78 -242.5t-203 -105.5zM239 626q-28 0 -47 19t-19 47
q0 31 21.5 52.5t51.5 21.5q28 0 47 -19t19 -47q0 -31 -21.5 -52.5t-51.5 -21.5zM439 626q-28 0 -47 19t-19 47q0 31 21.5 52.5t51.5 21.5q28 0 47 -19t19 -47q0 -31 -21.5 -52.5t-51.5 -21.5z" />
    <glyph glyph-name="divide" unicode="&#xf7;" 
d="M615 258h-540l8 64h540zM312 509q0 26 19 45t45 19t45 -19t19 -45t-19 -45t-45 -19t-45 19t-19 45zM259 71q0 26 19 45t45 19t45 -19t19 -45t-19 -45t-45 -19t-45 19t-19 45z" />
    <glyph glyph-name="oslash" unicode="&#xf8;" horiz-adv-x="542" 
d="M221 -10q-70 0 -117 37l-50 -59l-32 26l54 64q-36 50 -36 134q0 137 78 242.5t203 105.5q77 0 123 -44l54 64l34 -27l-60 -71q30 -51 30 -124q0 -137 -78 -242.5t-203 -105.5zM145 191q0 -20 2 -48l239 284q-19 64 -79 64q-49 0 -87 -46t-56.5 -113t-18.5 -141zM235 39
q49 0 87 46t56.5 113t18.5 141q0 23 -1 33l-237 -280q20 -53 76 -53z" />
    <glyph glyph-name="ugrave" unicode="&#xf9;" horiz-adv-x="688" 
d="M421 65q0 20 7.5 58.5t16 72.5t23.5 92.5t22 88.5h-4q-42 -105 -88.5 -188t-105 -141t-112.5 -58q-81 0 -81 95q0 50 36.5 187.5t36.5 172.5q0 22 -24 22q-35 0 -90 -78l-33 22q68 129 173 129q76 0 76 -71q0 -45 -37.5 -184t-37.5 -181q0 -39 24 -39q38 0 96 82
t107.5 188t77.5 195h94q-5 -27 -22 -110t-28 -139t-21 -115.5t-10 -79.5q0 -28 23 -28q33 0 89 71l32 -22q-72 -117 -162 -117q-78 0 -78 75zM212 800h132l78 -208h-45z" />
    <glyph glyph-name="uacute" unicode="&#xfa;" horiz-adv-x="688" 
d="M421 65q0 20 7.5 58.5t16 72.5t23.5 92.5t22 88.5h-4q-42 -105 -88.5 -188t-105 -141t-112.5 -58q-81 0 -81 95q0 50 36.5 187.5t36.5 172.5q0 22 -24 22q-35 0 -90 -78l-33 22q68 129 173 129q76 0 76 -71q0 -45 -37.5 -184t-37.5 -181q0 -39 24 -39q38 0 96 82
t107.5 188t77.5 195h94q-5 -27 -22 -110t-28 -139t-21 -115.5t-10 -79.5q0 -28 23 -28q33 0 89 71l32 -22q-72 -117 -162 -117q-78 0 -78 75zM481 800h146l-227 -208h-45z" />
    <glyph glyph-name="ucircumflex" unicode="&#xfb;" horiz-adv-x="688" 
d="M421 65q0 20 7.5 58.5t16 72.5t23.5 92.5t22 88.5h-4q-42 -105 -88.5 -188t-105 -141t-112.5 -58q-81 0 -81 95q0 50 36.5 187.5t36.5 172.5q0 22 -24 22q-35 0 -90 -78l-33 22q68 129 173 129q76 0 76 -71q0 -45 -37.5 -184t-37.5 -181q0 -39 24 -39q38 0 96 82
t107.5 188t77.5 195h94q-5 -27 -22 -110t-28 -139t-21 -115.5t-10 -79.5q0 -28 23 -28q33 0 89 71l32 -22q-72 -117 -162 -117q-78 0 -78 75zM456 800l121 -208h-45l-123 124l-153 -124h-47l173 208h74z" />
    <glyph glyph-name="udieresis" unicode="&#xfc;" horiz-adv-x="688" 
d="M421 65q0 20 7.5 58.5t16 72.5t23.5 92.5t22 88.5h-4q-42 -105 -88.5 -188t-105 -141t-112.5 -58q-81 0 -81 95q0 50 36.5 187.5t36.5 172.5q0 22 -24 22q-35 0 -90 -78l-33 22q68 129 173 129q76 0 76 -71q0 -45 -37.5 -184t-37.5 -181q0 -39 24 -39q38 0 96 82
t107.5 188t77.5 195h94q-5 -27 -22 -110t-28 -139t-21 -115.5t-10 -79.5q0 -28 23 -28q33 0 89 71l32 -22q-72 -117 -162 -117q-78 0 -78 75zM305 626q-28 0 -47 19t-19 47q0 31 21.5 52.5t51.5 21.5q28 0 47 -19t19 -47q0 -31 -21.5 -52.5t-51.5 -21.5zM505 626
q-28 0 -47 19t-19 47q0 31 21.5 52.5t51.5 21.5q28 0 47 -19t19 -47q0 -31 -21.5 -52.5t-51.5 -21.5z" />
    <glyph glyph-name="yacute" unicode="&#xfd;" horiz-adv-x="592" 
d="M251 450q56 -174 89 -452q68 119 101 198.5t33 152.5q0 54 -25 88.5t-75 35.5v33q28 34 74 34q51 0 76 -32t25 -89q0 -173 -151 -408q-96 -149 -180 -205t-180 -56q-52 0 -87.5 23.5t-35.5 66.5q0 22 11 40t28 25h36q3 -44 26 -69t63 -25q56 0 95 23t92 80
q-19 143 -51 279.5t-55 207.5q-12 38 -20.5 52t-22.5 14q-13 0 -27 -11t-24.5 -24t-28.5 -38l-33 22q65 124 157 124q39 0 57 -22.5t33 -67.5zM420 800h146l-227 -208h-45z" />
    <glyph glyph-name="thorn" unicode="&#xfe;" horiz-adv-x="613" 
d="M158 244h5q59 129 137.5 212.5t167.5 83.5q105 0 105 -142q0 -108 -50 -203.5t-128 -150t-160 -54.5q-68 0 -103 33q-25 -146 -25 -167q0 -32 16.5 -42t57.5 -15l-6 -39h-260l6 39q28 4 42 7.5t26.5 15.5t16.5 34q129 726 148 847l-72 40l5 20l150 47h32
q-42 -309 -111 -566zM243 38q53 0 97.5 36t71.5 90t41.5 111t14.5 104q0 48 -11 71t-39 23q-46 0 -111 -73.5t-112.5 -167.5t-51.5 -154q25 -40 100 -40z" />
    <glyph glyph-name="ydieresis" unicode="&#xff;" horiz-adv-x="592" 
d="M251 450q56 -174 89 -452q68 119 101 198.5t33 152.5q0 54 -25 88.5t-75 35.5v33q28 34 74 34q51 0 76 -32t25 -89q0 -173 -151 -408q-96 -149 -180 -205t-180 -56q-52 0 -87.5 23.5t-35.5 66.5q0 22 11 40t28 25h36q3 -44 26 -69t63 -25q56 0 95 23t92 80
q-19 143 -51 279.5t-55 207.5q-12 38 -20.5 52t-22.5 14q-13 0 -27 -11t-24.5 -24t-28.5 -38l-33 22q65 124 157 124q39 0 57 -22.5t33 -67.5zM234 626q-28 0 -47 19t-19 47q0 31 21.5 52.5t51.5 21.5q28 0 47 -19t19 -47q0 -31 -21.5 -52.5t-51.5 -21.5zM434 626
q-28 0 -47 19t-19 47q0 31 21.5 52.5t51.5 21.5q28 0 47 -19t19 -47q0 -31 -21.5 -52.5t-51.5 -21.5z" />
    <glyph glyph-name="Amacron" unicode="&#x100;" horiz-adv-x="796" 
d="M570 143l-30 109h-322l-58 -110q-19 -35 -19 -57t18.5 -31t76.5 -11l-5 -43h-250l5 43q58 9 75 41l342 637l-23 69h123l201 -706q5 -20 20 -28.5t43 -12.5l-5 -43h-297l5 43q61 2 85 11.5t24 33.5t-9 55zM430 656l-183 -349h278zM328 871l8 64h272l-8 -64h-272z" />
    <glyph glyph-name="amacron" unicode="&#x101;" horiz-adv-x="635" 
d="M190 57q28 0 58.5 26t72.5 86q44 64 76 146.5t36 133.5q-21 41 -72 41q-96 0 -159 -99.5t-64 -220.5q0 -113 52 -113zM376 65q0 17 6 48t18.5 84t14.5 62h-4q-2 -5 -9.5 -22.5t-11 -25t-11 -22.5t-16.5 -29.5t-20 -30.5q-96 -139 -186 -139q-58 0 -87.5 43t-29.5 115
q0 154 100 273t223 119q80 0 106 -55l65 63h35l-35 -112q-23 -92 -41.5 -200t-18.5 -150q0 -28 23 -28q30 0 86 71l32 -22q-72 -117 -162 -117q-77 0 -77 75zM231 644l8 64h272l-8 -64h-272z" />
    <glyph glyph-name="Abreve" unicode="&#x102;" horiz-adv-x="796" 
d="M570 143l-30 109h-322l-58 -110q-19 -35 -19 -57t18.5 -31t76.5 -11l-5 -43h-250l5 43q58 9 75 41l342 637l-23 69h123l201 -706q5 -20 20 -28.5t43 -12.5l-5 -43h-297l5 43q61 2 85 11.5t24 33.5t-9 55zM430 656l-183 -349h278zM467 832q-156 0 -156 152q0 22 3 46h43
q0 -130 118 -130q121 0 151 130h44q-25 -198 -203 -198z" />
    <glyph glyph-name="abreve" unicode="&#x103;" horiz-adv-x="635" 
d="M190 57q28 0 58.5 26t72.5 86q44 64 76 146.5t36 133.5q-21 41 -72 41q-96 0 -159 -99.5t-64 -220.5q0 -113 52 -113zM376 65q0 17 6 48t18.5 84t14.5 62h-4q-2 -5 -9.5 -22.5t-11 -25t-11 -22.5t-16.5 -29.5t-20 -30.5q-96 -139 -186 -139q-58 0 -87.5 43t-29.5 115
q0 154 100 273t223 119q80 0 106 -55l65 63h35l-35 -112q-23 -92 -41.5 -200t-18.5 -150q0 -28 23 -28q30 0 86 71l32 -22q-72 -117 -162 -117q-77 0 -77 75zM365 602q-156 0 -156 152q0 22 3 46h43q0 -130 118 -130q121 0 151 130h44q-25 -198 -203 -198z" />
    <glyph glyph-name="Aogonek" unicode="&#x104;" horiz-adv-x="796" 
d="M570 143l-30 109h-322l-58 -110q-19 -35 -19 -57t18.5 -31t76.5 -11l-5 -43h-250l5 43q58 9 75 41l342 637l-23 69h123l201 -706q5 -20 20 -28.5t43 -12.5l-5 -43q-63 -21 -102 -56t-39 -80q0 -26 18 -40.5t50 -14.5q35 0 67 14l6 -31q-45 -42 -110 -42q-47 0 -77.5 22.5
t-30.5 69.5q0 100 123 158h-202l5 43q61 2 85 11.5t24 33.5t-9 55zM430 656l-183 -349h278z" />
    <glyph glyph-name="aogonek" unicode="&#x105;" horiz-adv-x="635" 
d="M376 65q0 17 6 48t18.5 84t14.5 62h-4q-2 -5 -9.5 -22.5t-11 -25t-11 -22.5t-16.5 -29.5t-20 -30.5q-96 -139 -186 -139q-58 0 -87.5 43t-29.5 115q0 154 100 273t223 119q80 0 106 -55l65 63h35l-35 -112q-23 -92 -41.5 -200t-18.5 -150q0 -23 15 -23q23 0 85 59l30 -27
q-14 -13 -57.5 -51.5t-68.5 -62.5t-48 -58t-23 -61q0 -53 67 -53q35 0 67 14l6 -31q-45 -42 -110 -42q-47 0 -77.5 22.5t-30.5 69.5q0 69 102 157q-55 8 -55 66zM190 57q28 0 58.5 26t72.5 86q44 64 76 146.5t36 133.5q-21 41 -72 41q-96 0 -159 -99.5t-64 -220.5
q0 -113 52 -113z" />
    <glyph glyph-name="Cacute" unicode="&#x106;" horiz-adv-x="785" 
d="M420 49q96 0 154.5 46t108.5 146h44l-45 -189q-109 -62 -272 -62q-153 0 -249 91.5t-96 248.5q0 87 27.5 168t78.5 147t132 105.5t179 39.5q150 0 268 -74l-15 -170h-38q-35 185 -222 185q-71 0 -128 -36t-90.5 -94.5t-51 -126.5t-17.5 -138q0 -139 63 -213t169 -74z
M572 1030h146l-227 -208h-45z" />
    <glyph glyph-name="cacute" unicode="&#x107;" horiz-adv-x="474" 
d="M302 487q-73 0 -118.5 -85.5t-45.5 -188.5q0 -159 105 -159q42 0 77.5 27t75.5 76l31 -22q-31 -58 -87 -101.5t-122 -43.5q-88 0 -133 54.5t-45 138.5q0 145 84.5 251t211.5 106q58 0 89.5 -26.5t31.5 -64.5q0 -40 -36 -60h-43q-10 98 -76 98zM412 800h146l-227 -208h-45
z" />
    <glyph glyph-name="Ccircumflex" unicode="&#x108;" horiz-adv-x="785" 
d="M420 49q96 0 154.5 46t108.5 146h44l-45 -189q-109 -62 -272 -62q-153 0 -249 91.5t-96 248.5q0 87 27.5 168t78.5 147t132 105.5t179 39.5q150 0 268 -74l-15 -170h-38q-35 185 -222 185q-71 0 -128 -36t-90.5 -94.5t-51 -126.5t-17.5 -138q0 -139 63 -213t169 -74z
M556 1030l121 -208h-45l-123 124l-153 -124h-47l173 208h74z" />
    <glyph glyph-name="ccircumflex" unicode="&#x109;" horiz-adv-x="474" 
d="M302 487q-73 0 -118.5 -85.5t-45.5 -188.5q0 -159 105 -159q42 0 77.5 27t75.5 76l31 -22q-31 -58 -87 -101.5t-122 -43.5q-88 0 -133 54.5t-45 138.5q0 145 84.5 251t211.5 106q58 0 89.5 -26.5t31.5 -64.5q0 -40 -36 -60h-43q-10 98 -76 98zM387 800l121 -208h-45
l-123 124l-153 -124h-47l173 208h74z" />
    <glyph glyph-name="Cdotaccent" unicode="&#x10a;" horiz-adv-x="785" 
d="M420 49q96 0 154.5 46t108.5 146h44l-45 -189q-109 -62 -272 -62q-153 0 -249 91.5t-96 248.5q0 87 27.5 168t78.5 147t132 105.5t179 39.5q150 0 268 -74l-15 -170h-38q-35 185 -222 185q-71 0 -128 -36t-90.5 -94.5t-51 -126.5t-17.5 -138q0 -139 63 -213t169 -74z
M505 856q-28 0 -47 19t-19 47q0 31 21.5 52.5t51.5 21.5q28 0 47 -19t19 -47q0 -31 -21.5 -52.5t-51.5 -21.5z" />
    <glyph glyph-name="cdotaccent" unicode="&#x10b;" horiz-adv-x="474" 
d="M302 487q-73 0 -118.5 -85.5t-45.5 -188.5q0 -159 105 -159q42 0 77.5 27t75.5 76l31 -22q-31 -58 -87 -101.5t-122 -43.5q-88 0 -133 54.5t-45 138.5q0 145 84.5 251t211.5 106q58 0 89.5 -26.5t31.5 -64.5q0 -40 -36 -60h-43q-10 98 -76 98zM336 626q-28 0 -47 19
t-19 47q0 31 21.5 52.5t51.5 21.5q28 0 47 -19t19 -47q0 -31 -21.5 -52.5t-51.5 -21.5z" />
    <glyph glyph-name="Ccaron" unicode="&#x10c;" horiz-adv-x="785" 
d="M420 49q96 0 154.5 46t108.5 146h44l-45 -189q-109 -62 -272 -62q-153 0 -249 91.5t-96 248.5q0 87 27.5 168t78.5 147t132 105.5t179 39.5q150 0 268 -74l-15 -170h-38q-35 185 -222 185q-71 0 -128 -36t-90.5 -94.5t-51 -126.5t-17.5 -138q0 -139 63 -213t169 -74z
M457 822l-121 208h45l123 -124l153 124h47l-173 -208h-74z" />
    <glyph glyph-name="ccaron" unicode="&#x10d;" horiz-adv-x="474" 
d="M302 487q-73 0 -118.5 -85.5t-45.5 -188.5q0 -159 105 -159q42 0 77.5 27t75.5 76l31 -22q-31 -58 -87 -101.5t-122 -43.5q-88 0 -133 54.5t-45 138.5q0 145 84.5 251t211.5 106q58 0 89.5 -26.5t31.5 -64.5q0 -40 -36 -60h-43q-10 98 -76 98zM287 592l-121 208h45
l123 -124l153 124h47l-173 -208h-74z" />
    <glyph glyph-name="Dcaron" unicode="&#x10e;" horiz-adv-x="869" 
d="M407 0h-385l5 43q62 3 90.5 18.5t34.5 62.5l64 524q2 16 2 24q0 37 -24.5 50t-81.5 15l5 43h349q185 0 282 -89.5t97 -235.5q0 -206 -124.5 -330.5t-313.5 -124.5zM369 55h27q147 0 234.5 102.5t87.5 287.5q0 280 -274 280h-107l-70 -563q-4 -35 -4 -52q0 -31 24.5 -43
t81.5 -12zM448 822l-121 208h45l123 -124l153 124h47l-173 -208h-74z" />
    <glyph glyph-name="dcaron" unicode="&#x10f;" horiz-adv-x="642" 
d="M190 57q58 0 136 112q43 62 72 139t36 131q-14 51 -73 51q-96 0 -159 -99.5t-64 -220.5q0 -113 52 -113zM489 703l-72 40l5 20l151 47h34q-31 -157 -78.5 -421t-47.5 -303q0 -28 23 -28q30 0 86 71l32 -22q-72 -117 -162 -117q-39 0 -59 19.5t-20 55.5q0 17 6 48t18.5 84
t14.5 62h-4q-2 -5 -9.5 -22.5t-11 -25t-11 -22.5t-16.5 -29.5t-20 -30.5q-96 -139 -191 -139q-58 0 -87.5 43t-29.5 115q0 101 46.5 192.5t121 145.5t153.5 54q77 0 98 -47q22 129 30 210zM677 800h106l-118 -208h-49z" />
    <glyph glyph-name="Dcroat" unicode="&#x110;" horiz-adv-x="869" 
d="M73 370l7 55h108l28 223q2 16 2 24q0 37 -24.5 50t-81.5 15l5 43h349q185 0 282 -89.5t97 -235.5q0 -206 -124.5 -330.5t-313.5 -124.5h-385l5 43q62 3 90.5 18.5t34.5 62.5l30 246h-109zM369 55h27q147 0 234.5 102.5t87.5 287.5q0 280 -274 280h-107l-37 -300h212
l-8 -55h-211l-26 -208q-4 -35 -4 -52q0 -31 24.5 -43t81.5 -12z" />
    <glyph glyph-name="dcroat" unicode="&#x111;" horiz-adv-x="642" 
d="M489 703l-72 40l5 20l151 47h34q-27 -141 -31 -161h94l-8 -45h-95q-86 -471 -86 -518q0 -28 23 -28q30 0 86 71l32 -22q-72 -117 -162 -117q-39 0 -59 19.5t-20 55.5q0 17 6 48t18.5 84t14.5 62h-4q-2 -5 -9.5 -22.5t-11 -25t-11 -22.5t-16.5 -29.5t-20 -30.5
q-96 -139 -191 -139q-58 0 -87.5 43t-29.5 115q0 101 46.5 192.5t121 145.5t153.5 54q77 0 98 -47q11 60 18 111h-176l8 45h174zM190 57q58 0 136 112q43 62 72 139t36 131q-14 51 -73 51q-96 0 -159 -99.5t-64 -220.5q0 -113 52 -113z" />
    <glyph glyph-name="Emacron" unicode="&#x112;" horiz-adv-x="773" 
d="M663 0h-641l5 43q62 3 90.5 18.5t34.5 62.5l64 524q2 16 2 24q0 37 -24.5 50t-81.5 15l5 43h636l-20 -186h-33q-23 75 -52.5 103t-95.5 28h-215l-37 -300h191q36 0 57 24t37 76h38l-31 -255h-38q-3 53 -18.5 76.5t-51.5 23.5h-191l-26 -208q-4 -35 -4 -52q0 -31 24.5 -43
t81.5 -12h107q38 0 61.5 5t49 25.5t42.5 41.5t56 73h37zM337 871l8 64h272l-8 -64h-272z" />
    <glyph glyph-name="emacron" unicode="&#x113;" horiz-adv-x="491" 
d="M414 162l37 -22q-77 -150 -225 -150q-94 0 -140 52t-46 148q0 135 81.5 242.5t209.5 107.5q61 0 95.5 -26.5t34.5 -77.5q0 -24 -10 -46t-23.5 -38.5t-39 -34t-45 -28t-53.5 -24.5t-52 -20.5t-53.5 -18t-46.5 -15.5v-13q0 -73 29 -108.5t79 -35.5q55 0 93 27t75 81z
M308 488q-66 0 -110.5 -69.5t-56.5 -167.5q121 41 175 79.5t54 93.5q0 64 -62 64zM184 644l8 64h272l-8 -64h-272z" />
    <glyph glyph-name="Ebreve" unicode="&#x114;" horiz-adv-x="773" 
d="M663 0h-641l5 43q62 3 90.5 18.5t34.5 62.5l64 524q2 16 2 24q0 37 -24.5 50t-81.5 15l5 43h636l-20 -186h-33q-23 75 -52.5 103t-95.5 28h-215l-37 -300h191q36 0 57 24t37 76h38l-31 -255h-38q-3 53 -18.5 76.5t-51.5 23.5h-191l-26 -208q-4 -35 -4 -52q0 -31 24.5 -43
t81.5 -12h107q38 0 61.5 5t49 25.5t42.5 41.5t56 73h37zM476 832q-156 0 -156 152q0 22 3 46h43q0 -130 118 -130q121 0 151 130h44q-25 -198 -203 -198z" />
    <glyph glyph-name="ebreve" unicode="&#x115;" horiz-adv-x="491" 
d="M414 162l37 -22q-77 -150 -225 -150q-94 0 -140 52t-46 148q0 135 81.5 242.5t209.5 107.5q61 0 95.5 -26.5t34.5 -77.5q0 -24 -10 -46t-23.5 -38.5t-39 -34t-45 -28t-53.5 -24.5t-52 -20.5t-53.5 -18t-46.5 -15.5v-13q0 -73 29 -108.5t79 -35.5q55 0 93 27t75 81z
M308 488q-66 0 -110.5 -69.5t-56.5 -167.5q121 41 175 79.5t54 93.5q0 64 -62 64zM325 602q-156 0 -156 152q0 22 3 46h43q0 -130 118 -130q121 0 151 130h44q-25 -198 -203 -198z" />
    <glyph glyph-name="Edotaccent" unicode="&#x116;" horiz-adv-x="773" 
d="M663 0h-641l5 43q62 3 90.5 18.5t34.5 62.5l64 524q2 16 2 24q0 37 -24.5 50t-81.5 15l5 43h636l-20 -186h-33q-23 75 -52.5 103t-95.5 28h-215l-37 -300h191q36 0 57 24t37 76h38l-31 -255h-38q-3 53 -18.5 76.5t-51.5 23.5h-191l-26 -208q-4 -35 -4 -52q0 -31 24.5 -43
t81.5 -12h107q38 0 61.5 5t49 25.5t42.5 41.5t56 73h37zM474 856q-28 0 -47 19t-19 47q0 31 21.5 52.5t51.5 21.5q28 0 47 -19t19 -47q0 -31 -21.5 -52.5t-51.5 -21.5z" />
    <glyph glyph-name="edotaccent" unicode="&#x117;" horiz-adv-x="491" 
d="M414 162l37 -22q-77 -150 -225 -150q-94 0 -140 52t-46 148q0 135 81.5 242.5t209.5 107.5q61 0 95.5 -26.5t34.5 -77.5q0 -24 -10 -46t-23.5 -38.5t-39 -34t-45 -28t-53.5 -24.5t-52 -20.5t-53.5 -18t-46.5 -15.5v-13q0 -73 29 -108.5t79 -35.5q55 0 93 27t75 81z
M308 488q-66 0 -110.5 -69.5t-56.5 -167.5q121 41 175 79.5t54 93.5q0 64 -62 64zM328 626q-28 0 -47 19t-19 47q0 31 21.5 52.5t51.5 21.5q28 0 47 -19t19 -47q0 -31 -21.5 -52.5t-51.5 -21.5z" />
    <glyph glyph-name="Eogonek" unicode="&#x118;" horiz-adv-x="773" 
d="M117 780h636l-20 -186h-33q-23 75 -52.5 103t-95.5 28h-215l-37 -300h191q36 0 57 24t37 76h38l-31 -255h-38q-3 53 -18.5 76.5t-51.5 23.5h-191l-26 -208q-4 -35 -4 -52q0 -31 24.5 -43t81.5 -12h107q38 0 61.5 5t49 25.5t42.5 41.5t56 73h37l-59 -200q-63 -21 -102 -56
t-39 -80q0 -26 18 -40.5t50 -14.5q35 0 67 14l6 -31q-45 -42 -110 -42q-47 0 -77.5 22.5t-30.5 69.5q0 100 123 158h-546l5 43q62 3 90.5 18.5t34.5 62.5l64 524q2 16 2 24q0 37 -24.5 50t-81.5 15z" />
    <glyph glyph-name="eogonek" unicode="&#x119;" horiz-adv-x="491" 
d="M414 162l37 -22q-40 -79 -125 -129q-47 -28 -71.5 -59.5t-24.5 -77.5q0 -65 68 -65q35 0 67 14l6 -31q-45 -42 -110 -42q-47 0 -77.5 22.5t-30.5 69.5q0 86 83 148q-196 0 -196 200q0 135 81.5 242.5t209.5 107.5q61 0 95.5 -26.5t34.5 -77.5q0 -24 -10 -46t-23.5 -38.5
t-39 -34t-45 -28t-53.5 -24.5t-52 -20.5t-53.5 -18t-46.5 -15.5v-13q0 -73 29 -108.5t79 -35.5q55 0 93 27t75 81zM308 488q-66 0 -110.5 -69.5t-56.5 -167.5q121 41 175 79.5t54 93.5q0 64 -62 64z" />
    <glyph glyph-name="Ecaron" unicode="&#x11a;" horiz-adv-x="773" 
d="M663 0h-641l5 43q62 3 90.5 18.5t34.5 62.5l64 524q2 16 2 24q0 37 -24.5 50t-81.5 15l5 43h636l-20 -186h-33q-23 75 -52.5 103t-95.5 28h-215l-37 -300h191q36 0 57 24t37 76h38l-31 -255h-38q-3 53 -18.5 76.5t-51.5 23.5h-191l-26 -208q-4 -35 -4 -52q0 -31 24.5 -43
t81.5 -12h107q38 0 61.5 5t49 25.5t42.5 41.5t56 73h37zM426 822l-121 208h45l123 -124l153 124h47l-173 -208h-74z" />
    <glyph glyph-name="ecaron" unicode="&#x11b;" horiz-adv-x="491" 
d="M414 162l37 -22q-77 -150 -225 -150q-94 0 -140 52t-46 148q0 135 81.5 242.5t209.5 107.5q61 0 95.5 -26.5t34.5 -77.5q0 -24 -10 -46t-23.5 -38.5t-39 -34t-45 -28t-53.5 -24.5t-52 -20.5t-53.5 -18t-46.5 -15.5v-13q0 -73 29 -108.5t79 -35.5q55 0 93 27t75 81z
M308 488q-66 0 -110.5 -69.5t-56.5 -167.5q121 41 175 79.5t54 93.5q0 64 -62 64zM279 592l-121 208h45l123 -124l153 124h47l-173 -208h-74z" />
    <glyph glyph-name="Gcircumflex" unicode="&#x11c;" horiz-adv-x="823" 
d="M575 98l19 138q2 16 2 24q0 37 -24.5 50t-81.5 15l5 43h341l-5 -43q-62 -2 -90.5 -18t-34.5 -63l-22 -181q-113 -73 -277 -73q-153 0 -247.5 91.5t-94.5 248.5q0 87 27.5 168t78.5 147t132 105.5t179 39.5q150 0 268 -74l-15 -170h-38q-35 185 -222 185q-71 0 -128 -36
t-90.5 -94.5t-51 -126.5t-17.5 -138q0 -140 61.5 -213.5t167.5 -73.5q109 0 158 49zM544 1030l121 -208h-45l-123 124l-153 -124h-47l173 208h74z" />
    <glyph glyph-name="gcircumflex" unicode="&#x11d;" horiz-adv-x="571" 
d="M235 154q-25 0 -53 7q-38 -17 -38 -42q0 -14 10 -21t32 -13l159 -42q64 -18 96.5 -47t32.5 -85q0 -30 -12.5 -56.5t-41 -51t-84 -39t-131.5 -14.5q-115 0 -179.5 40.5t-64.5 98.5q0 101 158 131q-50 24 -50 68q0 58 81 86q-33 15 -53.5 49t-20.5 75q0 109 71 175.5
t173 66.5q80 0 128 -45q44 56 95 56q27 0 45 -15t18 -41q0 -20 -10.5 -36.5t-26.5 -21.5h-31q0 43 -32 43t-43 -7q20 -30 20 -70q0 -114 -72.5 -181.5t-175.5 -67.5zM290 -36l-144 42q-51 -18 -73 -41.5t-22 -62.5q0 -51 44.5 -77.5t122.5 -26.5q167 0 167 90
q0 30 -23.5 45.5t-71.5 30.5zM252 198q53 0 89.5 55t36.5 139q0 46 -20.5 73.5t-58.5 27.5q-52 0 -88 -55t-36 -139q0 -47 20 -74t57 -27zM386 800l121 -208h-45l-123 124l-153 -124h-47l173 208h74z" />
    <glyph glyph-name="Gbreve" unicode="&#x11e;" horiz-adv-x="823" 
d="M575 98l19 138q2 16 2 24q0 37 -24.5 50t-81.5 15l5 43h341l-5 -43q-62 -2 -90.5 -18t-34.5 -63l-22 -181q-113 -73 -277 -73q-153 0 -247.5 91.5t-94.5 248.5q0 87 27.5 168t78.5 147t132 105.5t179 39.5q150 0 268 -74l-15 -170h-38q-35 185 -222 185q-71 0 -128 -36
t-90.5 -94.5t-51 -126.5t-17.5 -138q0 -140 61.5 -213.5t167.5 -73.5q109 0 158 49zM495 832q-156 0 -156 152q0 22 3 46h43q0 -130 118 -130q121 0 151 130h44q-25 -198 -203 -198z" />
    <glyph glyph-name="gbreve" unicode="&#x11f;" horiz-adv-x="571" 
d="M235 154q-25 0 -53 7q-38 -17 -38 -42q0 -14 10 -21t32 -13l159 -42q64 -18 96.5 -47t32.5 -85q0 -30 -12.5 -56.5t-41 -51t-84 -39t-131.5 -14.5q-115 0 -179.5 40.5t-64.5 98.5q0 101 158 131q-50 24 -50 68q0 58 81 86q-33 15 -53.5 49t-20.5 75q0 109 71 175.5
t173 66.5q80 0 128 -45q44 56 95 56q27 0 45 -15t18 -41q0 -20 -10.5 -36.5t-26.5 -21.5h-31q0 43 -32 43t-43 -7q20 -30 20 -70q0 -114 -72.5 -181.5t-175.5 -67.5zM290 -36l-144 42q-51 -18 -73 -41.5t-22 -62.5q0 -51 44.5 -77.5t122.5 -26.5q167 0 167 90
q0 30 -23.5 45.5t-71.5 30.5zM252 198q53 0 89.5 55t36.5 139q0 46 -20.5 73.5t-58.5 27.5q-52 0 -88 -55t-36 -139q0 -47 20 -74t57 -27zM331 602q-156 0 -156 152q0 22 3 46h43q0 -130 118 -130q121 0 151 130h44q-25 -198 -203 -198z" />
    <glyph glyph-name="Gdotaccent" unicode="&#x120;" horiz-adv-x="823" 
d="M575 98l19 138q2 16 2 24q0 37 -24.5 50t-81.5 15l5 43h341l-5 -43q-62 -2 -90.5 -18t-34.5 -63l-22 -181q-113 -73 -277 -73q-153 0 -247.5 91.5t-94.5 248.5q0 87 27.5 168t78.5 147t132 105.5t179 39.5q150 0 268 -74l-15 -170h-38q-35 185 -222 185q-71 0 -128 -36
t-90.5 -94.5t-51 -126.5t-17.5 -138q0 -140 61.5 -213.5t167.5 -73.5q109 0 158 49zM493 856q-28 0 -47 19t-19 47q0 31 21.5 52.5t51.5 21.5q28 0 47 -19t19 -47q0 -31 -21.5 -52.5t-51.5 -21.5z" />
    <glyph glyph-name="gdotaccent" unicode="&#x121;" horiz-adv-x="571" 
d="M235 154q-25 0 -53 7q-38 -17 -38 -42q0 -14 10 -21t32 -13l159 -42q64 -18 96.5 -47t32.5 -85q0 -30 -12.5 -56.5t-41 -51t-84 -39t-131.5 -14.5q-115 0 -179.5 40.5t-64.5 98.5q0 101 158 131q-50 24 -50 68q0 58 81 86q-33 15 -53.5 49t-20.5 75q0 109 71 175.5
t173 66.5q80 0 128 -45q44 56 95 56q27 0 45 -15t18 -41q0 -20 -10.5 -36.5t-26.5 -21.5h-31q0 43 -32 43t-43 -7q20 -30 20 -70q0 -114 -72.5 -181.5t-175.5 -67.5zM290 -36l-144 42q-51 -18 -73 -41.5t-22 -62.5q0 -51 44.5 -77.5t122.5 -26.5q167 0 167 90
q0 30 -23.5 45.5t-71.5 30.5zM252 198q53 0 89.5 55t36.5 139q0 46 -20.5 73.5t-58.5 27.5q-52 0 -88 -55t-36 -139q0 -47 20 -74t57 -27zM334 626q-28 0 -47 19t-19 47q0 31 21.5 52.5t51.5 21.5q28 0 47 -19t19 -47q0 -31 -21.5 -52.5t-51.5 -21.5z" />
    <glyph glyph-name="Gcommaaccent" unicode="&#x122;" horiz-adv-x="823" 
d="M575 98l19 138q2 16 2 24q0 37 -24.5 50t-81.5 15l5 43h341l-5 -43q-62 -2 -90.5 -18t-34.5 -63l-22 -181q-113 -73 -277 -73q-153 0 -247.5 91.5t-94.5 248.5q0 87 27.5 168t78.5 147t132 105.5t179 39.5q150 0 268 -74l-15 -170h-38q-35 185 -222 185q-71 0 -128 -36
t-90.5 -94.5t-51 -126.5t-17.5 -138q0 -140 61.5 -213.5t167.5 -73.5q109 0 158 49zM398 -164h-39q-48 11 -48 56q0 26 18 43t49 17q37 0 58.5 -24.5t21.5 -65.5q0 -50 -36.5 -79.5t-108.5 -31.5l6 41q79 8 79 44z" />
    <glyph glyph-name="gcommaaccent" unicode="&#x123;" horiz-adv-x="571" 
d="M235 154q-25 0 -53 7q-38 -17 -38 -42q0 -14 10 -21t32 -13l159 -42q64 -18 96.5 -47t32.5 -85q0 -30 -12.5 -56.5t-41 -51t-84 -39t-131.5 -14.5q-115 0 -179.5 40.5t-64.5 98.5q0 101 158 131q-50 24 -50 68q0 58 81 86q-33 15 -53.5 49t-20.5 75q0 109 71 175.5
t173 66.5q80 0 128 -45q44 56 95 56q27 0 45 -15t18 -41q0 -20 -10.5 -36.5t-26.5 -21.5h-31q0 43 -32 43t-43 -7q20 -30 20 -70q0 -114 -72.5 -181.5t-175.5 -67.5zM290 -36l-144 42q-51 -18 -73 -41.5t-22 -62.5q0 -51 44.5 -77.5t122.5 -26.5q167 0 167 90
q0 30 -23.5 45.5t-71.5 30.5zM252 198q53 0 89.5 55t36.5 139q0 46 -20.5 73.5t-58.5 27.5q-52 0 -88 -55t-36 -139q0 -47 20 -74t57 -27zM324 715h39q48 -11 48 -56q0 -26 -18 -43t-49 -17q-37 0 -58.5 24.5t-21.5 65.5q0 50 36.5 79.5t108.5 31.5l-6 -41q-79 -8 -79 -44z
" />
    <glyph glyph-name="Hcircumflex" unicode="&#x124;" horiz-adv-x="961" 
d="M643 780h341l-5 -43q-62 -2 -90.5 -18t-34.5 -63l-63 -514q-3 -22 -3 -40q0 -34 24.5 -45t81.5 -14l-5 -43h-341l5 43q62 3 90.5 18.5t34.5 62.5l30 246h-415l-28 -228q-3 -22 -3 -40q0 -34 24.5 -45t81.5 -14l-5 -43h-341l5 43q62 3 90.5 18.5t34.5 62.5l64 524
q2 16 2 24q0 37 -24.5 50t-81.5 15l5 43h341l-5 -43q-62 -2 -90.5 -18t-34.5 -63l-29 -231h415l28 223q2 16 2 24q0 37 -24.5 50t-81.5 15zM617 1030l121 -208h-45l-123 124l-153 -124h-47l173 208h74z" />
    <glyph glyph-name="hcircumflex" unicode="&#x125;" horiz-adv-x="656" 
d="M143 0h-98q104 538 120 703l-72 40l5 20l151 47h34q-16 -128 -57.5 -334.5t-73.5 -315.5h4q161 380 324 380q72 0 72 -83q0 -50 -36.5 -197.5t-36.5 -173.5q0 -28 23 -28q30 0 86 71l32 -22q-72 -117 -162 -117q-39 0 -60 20t-21 55q0 32 36.5 182.5t36.5 189.5
q0 31 -21 31q-51 0 -138 -137t-148 -331zM296 1030l121 -208h-45l-123 124l-153 -124h-47l173 208h74z" />
    <glyph glyph-name="Hbar" unicode="&#x126;" horiz-adv-x="961" 
d="M643 780h341l-5 -43q-62 -2 -90.5 -18t-34.5 -63l-7 -53h111l-6 -53h-111l-50 -408q-3 -22 -3 -40q0 -34 24.5 -45t81.5 -14l-5 -43h-341l5 43q62 3 90.5 18.5t34.5 62.5l30 246h-415l-28 -228q-3 -22 -3 -40q0 -34 24.5 -45t81.5 -14l-5 -43h-341l5 43q62 3 90.5 18.5
t34.5 62.5l52 426h-109l7 53h108l6 45q2 16 2 24q0 37 -24.5 50t-81.5 15l5 43h341l-5 -43q-62 -2 -90.5 -18t-34.5 -63l-7 -53h415l6 45q2 16 2 24q0 37 -24.5 50t-81.5 15zM299 425h415l15 125h-415z" />
    <glyph glyph-name="hbar" unicode="&#x127;" horiz-adv-x="656" 
d="M65 604l8 45h86l6 54l-72 40l5 20l151 47h34q-7 -55 -25 -161h176l-8 -45h-176q-51 -286 -98 -444h4q161 380 324 380q72 0 72 -83q0 -50 -36.5 -197.5t-36.5 -173.5q0 -28 23 -28q30 0 86 71l32 -22q-72 -117 -162 -117q-39 0 -60 20t-21 55q0 32 36.5 182.5t36.5 189.5
q0 31 -21 31q-51 0 -138 -137t-148 -331h-98q80 417 107 604h-87z" />
    <glyph glyph-name="Itilde" unicode="&#x128;" horiz-adv-x="435" 
d="M117 780h341l-5 -43q-62 -2 -90.5 -18t-34.5 -63l-63 -514q-3 -22 -3 -40q0 -34 24.5 -45t81.5 -14l-5 -43h-341l5 43q62 3 90.5 18.5t34.5 62.5l64 524q2 16 2 24q0 37 -24.5 50t-81.5 15zM470 994l44 -7q-59 -128 -146 -128q-34 0 -76.5 30.5t-62.5 30.5q-24 0 -40 -13
t-38 -46l-44 7q59 128 146 128q34 0 76.5 -30.5t62.5 -30.5q24 0 40 13t38 46z" />
    <glyph glyph-name="itilde" unicode="&#x129;" horiz-adv-x="389" 
d="M271 469q0 -49 -33 -195.5t-33 -187.5q0 -28 23 -28q30 0 86 71l32 -22q-72 -117 -162 -117q-39 0 -60 20t-21 55q0 47 33 191.5t33 188.5q0 22 -24 22q-35 0 -90 -78l-33 22q68 129 173 129q76 0 76 -71zM397 745l44 -7q-59 -128 -146 -128q-34 0 -76.5 30.5t-62.5 30.5
q-24 0 -40 -13t-38 -46l-44 7q59 128 146 128q34 0 76.5 -30.5t62.5 -30.5q24 0 40 13t38 46z" />
    <glyph glyph-name="Imacron" unicode="&#x12a;" horiz-adv-x="435" 
d="M117 780h341l-5 -43q-62 -2 -90.5 -18t-34.5 -63l-63 -514q-3 -22 -3 -40q0 -34 24.5 -45t81.5 -14l-5 -43h-341l5 43q62 3 90.5 18.5t34.5 62.5l64 524q2 16 2 24q0 37 -24.5 50t-81.5 15zM166 871l8 64h272l-8 -64h-272z" />
    <glyph glyph-name="imacron" unicode="&#x12b;" horiz-adv-x="389" 
d="M119 644l8 64h232l-8 -64h-232zM271 469q0 -49 -33 -195.5t-33 -187.5q0 -28 23 -28q30 0 86 71l32 -22q-72 -117 -162 -117q-39 0 -60 20t-21 55q0 47 33 191.5t33 188.5q0 22 -24 22q-35 0 -90 -78l-33 22q68 129 173 129q76 0 76 -71z" />
    <glyph glyph-name="Ibreve" unicode="&#x12c;" horiz-adv-x="435" 
d="M117 780h341l-5 -43q-62 -2 -90.5 -18t-34.5 -63l-63 -514q-3 -22 -3 -40q0 -34 24.5 -45t81.5 -14l-5 -43h-341l5 43q62 3 90.5 18.5t34.5 62.5l64 524q2 16 2 24q0 37 -24.5 50t-81.5 15zM305 832q-156 0 -156 152q0 22 3 46h43q0 -130 118 -130q121 0 151 130h44
q-25 -198 -203 -198z" />
    <glyph glyph-name="ibreve" unicode="&#x12d;" horiz-adv-x="389" 
d="M271 469q0 -49 -33 -195.5t-33 -187.5q0 -28 23 -28q30 0 86 71l32 -22q-72 -117 -162 -117q-39 0 -60 20t-21 55q0 47 33 191.5t33 188.5q0 22 -24 22q-35 0 -90 -78l-33 22q68 129 173 129q76 0 76 -71zM233 602q-156 0 -156 152q0 22 3 46h43q0 -130 118 -130
q121 0 151 130h44q-25 -198 -203 -198z" />
    <glyph glyph-name="Iogonek" unicode="&#x12e;" horiz-adv-x="435" 
d="M117 780h341l-5 -43q-62 -2 -90.5 -18t-34.5 -63l-63 -514q-3 -22 -3 -40q0 -34 24.5 -45t81.5 -14l-5 -43q-63 -21 -102 -56t-39 -80q0 -26 18 -40.5t50 -14.5q35 0 67 14l6 -31q-45 -42 -110 -42q-47 0 -77.5 22.5t-30.5 69.5q0 100 123 158h-246l5 43q62 3 90.5 18.5
t34.5 62.5l64 524q2 16 2 24q0 37 -24.5 50t-81.5 15z" />
    <glyph glyph-name="iogonek" unicode="&#x12f;" horiz-adv-x="389" 
d="M205 86q0 -23 15 -23q23 0 85 59l30 -27q-14 -13 -57.5 -51.5t-68.5 -62.5t-48 -58t-23 -61q0 -53 67 -53q35 0 67 14l6 -31q-45 -42 -110 -42q-47 0 -77.5 22.5t-30.5 69.5q0 69 102 157q-27 4 -43 21.5t-16 44.5q0 47 33 191.5t33 188.5q0 22 -24 22q-35 0 -90 -78
l-33 22q68 129 173 129q76 0 76 -71q0 -49 -33 -195.5t-33 -187.5zM241 650q-28 0 -47 19t-19 47q0 31 21.5 52.5t51.5 21.5q28 0 47 -19t19 -47q0 -31 -21.5 -52.5t-51.5 -21.5z" />
    <glyph glyph-name="Idotaccent" unicode="&#x130;" horiz-adv-x="435" 
d="M117 780h341l-5 -43q-62 -2 -90.5 -18t-34.5 -63l-63 -514q-3 -22 -3 -40q0 -34 24.5 -45t81.5 -14l-5 -43h-341l5 43q62 3 90.5 18.5t34.5 62.5l64 524q2 16 2 24q0 37 -24.5 50t-81.5 15zM303 856q-28 0 -47 19t-19 47q0 31 21.5 52.5t51.5 21.5q28 0 47 -19t19 -47
q0 -31 -21.5 -52.5t-51.5 -21.5z" />
    <glyph glyph-name="dotlessi" unicode="&#x131;" horiz-adv-x="389" 
d="M271 469q0 -49 -33 -195.5t-33 -187.5q0 -28 23 -28q30 0 86 71l32 -22q-72 -117 -162 -117q-39 0 -60 20t-21 55q0 47 33 191.5t33 188.5q0 22 -24 22q-35 0 -90 -78l-33 22q68 129 173 129q76 0 76 -71z" />
    <glyph glyph-name="IJ" unicode="&#x132;" horiz-adv-x="952" 
d="M117 780h341l-5 -43q-62 -2 -90.5 -18t-34.5 -63l-63 -514q-3 -22 -3 -40q0 -34 24.5 -45t81.5 -14l-5 -43h-341l5 43q62 3 90.5 18.5t34.5 62.5l64 524q2 16 2 24q0 37 -24.5 50t-81.5 15zM723 204l54 444q2 16 2 24q0 37 -24.5 50t-81.5 15l5 43h341l-5 -43
q-62 -2 -90.5 -18t-34.5 -63l-53 -435q-14 -118 -75 -174.5t-174 -56.5q-101 0 -150 41.5t-49 103.5q0 55 46 79h78q-10 -30 -10 -65q0 -55 21 -83t71 -28q59 0 88.5 37t40.5 129z" />
    <glyph glyph-name="ij" unicode="&#x133;" horiz-adv-x="641" 
d="M271 469q0 -49 -33 -195.5t-33 -187.5q0 -28 23 -28q30 0 86 71l32 -22q-72 -117 -162 -117q-39 0 -60 20t-21 55q0 47 33 191.5t33 188.5q0 22 -24 22q-35 0 -90 -78l-33 22q68 129 173 129q76 0 76 -71zM241 626q-28 0 -47 19t-19 47q0 31 21.5 52.5t51.5 21.5
q28 0 47 -19t19 -47q0 -31 -21.5 -52.5t-51.5 -21.5zM457 467q-37 0 -92 -78l-33 22q68 129 173 129q76 0 76 -74q0 -35 -7 -81l-41 -266q-21 -139 -55 -222t-75 -115t-98 -32t-90.5 25.5t-33.5 63.5q0 44 36 64h43q8 -110 61 -110q23 0 37 13.5t28.5 60.5t29.5 139l58 354
q8 54 8 76q0 31 -25 31zM548 626q-28 0 -47 19t-19 47q0 31 21.5 52.5t51.5 21.5q28 0 47 -19t19 -47q0 -31 -21.5 -52.5t-51.5 -21.5z" />
    <glyph glyph-name="Jcircumflex" unicode="&#x134;" horiz-adv-x="577" 
d="M339 204l54 444q2 16 2 24q0 37 -24.5 50t-81.5 15l5 43h341l-5 -43q-62 -2 -90.5 -18t-34.5 -63l-53 -435q-14 -118 -75 -174.5t-174 -56.5q-101 0 -150 41.5t-49 103.5q0 55 46 79h78q-10 -30 -10 -65q0 -55 21 -83t71 -28q59 0 88.5 37t40.5 129zM526 1030l121 -208
h-45l-123 124l-153 -124h-47l173 208h74z" />
    <glyph glyph-name="jcircumflex" unicode="&#x135;" horiz-adv-x="322" 
d="M46 389l-33 22q68 129 173 129q76 0 76 -74q0 -35 -7 -81l-41 -266q-21 -139 -55 -222t-75 -115t-98 -32t-90.5 25.5t-33.5 63.5q0 44 36 64h43q8 -110 61 -110q23 0 37 13.5t28.5 60.5t29.5 139l58 354q8 54 8 76q0 31 -25 31q-37 0 -92 -78zM272 800l121 -208h-45
l-123 124l-153 -124h-47l173 208h74z" />
    <glyph glyph-name="Kcommaaccent" unicode="&#x136;" horiz-adv-x="836" 
d="M421 427l207 -265q54 -69 92.5 -93.5t95.5 -25.5l-5 -43h-179q-56 49 -121 134l-203 263l295 266q32 28 32 43t-15 21t-65 10l5 43h280l-5 -43q-40 -2 -68.5 -14.5t-62.5 -42.5zM117 780h341l-5 -43q-62 -2 -90.5 -18t-34.5 -63l-63 -514q-3 -22 -3 -40q0 -34 24.5 -45
t81.5 -14l-5 -43h-341l5 43q62 3 90.5 18.5t34.5 62.5l64 524q2 16 2 24q0 37 -24.5 50t-81.5 15zM411 -164h-39q-48 11 -48 56q0 26 18 43t49 17q37 0 58.5 -24.5t21.5 -65.5q0 -50 -36.5 -79.5t-108.5 -31.5l6 41q79 8 79 44z" />
    <glyph glyph-name="kcommaaccent" unicode="&#x137;" horiz-adv-x="609" 
d="M165 703l-72 40l5 20l150 47h35q-18 -148 -75 -428q53 78 112.5 118t115.5 40q50 0 76 -26.5t26 -72.5q0 -116 -179 -194l55 -123q17 -39 28.5 -52.5t26.5 -13.5q32 0 88 71l32 -22q-72 -117 -162 -117q-34 0 -56.5 21t-40.5 67l-54 139q-56 -16 -104 -24l-36 -193h-91
q104 534 120 703zM198 327l-19 -95q122 25 189.5 72t67.5 111q0 54 -48 54q-38 0 -78.5 -30.5t-111.5 -111.5zM252 -164h-39q-48 11 -48 56q0 26 18 43t49 17q37 0 58.5 -24.5t21.5 -65.5q0 -50 -36.5 -79.5t-108.5 -31.5l6 41q79 8 79 44z" />
    <glyph glyph-name="kgreenlandic" unicode="&#x138;" horiz-adv-x="662" 
d="M251 327l-19 -95q122 25 189.5 72t67.5 111q0 54 -48 54q-38 0 -78.5 -30.5t-111.5 -111.5zM256 379q53 78 115 119.5t118 41.5q50 0 76 -26.5t26 -72.5q0 -116 -179 -194l55 -123q17 -39 28.5 -52.5t26.5 -13.5q32 0 88 71l32 -22q-72 -117 -162 -117q-34 0 -56.5 21
t-40.5 67l-54 139q-56 -16 -104 -24l-36 -193h-91l73 409q4 24 4 36q0 22 -24 22q-35 0 -90 -78l-33 22q68 129 173 129q73 0 73 -71q0 -26 -18 -90z" />
    <glyph glyph-name="Lacute" unicode="&#x139;" horiz-adv-x="727" 
d="M328 656l-61 -494q-4 -35 -4 -52q0 -31 24.5 -43t81.5 -12h89q34 0 58.5 8t51 33t45 47.5t57.5 76.5h37l-64 -220h-621l5 43q62 3 90.5 18.5t34.5 62.5l64 524q2 16 2 24q0 37 -24.5 50t-81.5 15l5 43h341l-5 -43q-62 -2 -90.5 -18t-34.5 -63zM408 1030h146l-227 -208
h-45z" />
    <glyph glyph-name="lacute" unicode="&#x13a;" horiz-adv-x="324" 
d="M56 65q0 55 51 310t58 328l-72 40l5 20l150 47h32q-15 -123 -70 -396.5t-55 -327.5q0 -28 23 -28q30 0 86 71l32 -22q-72 -117 -162 -117q-78 0 -78 75zM325 1047h146l-227 -208h-45z" />
    <glyph glyph-name="Lcommaaccent" unicode="&#x13b;" horiz-adv-x="727" 
d="M328 656l-61 -494q-4 -35 -4 -52q0 -31 24.5 -43t81.5 -12h89q34 0 58.5 8t51 33t45 47.5t57.5 76.5h37l-64 -220h-621l5 43q62 3 90.5 18.5t34.5 62.5l64 524q2 16 2 24q0 37 -24.5 50t-81.5 15l5 43h341l-5 -43q-62 -2 -90.5 -18t-34.5 -63zM382 -164h-39
q-48 11 -48 56q0 26 18 43t49 17q37 0 58.5 -24.5t21.5 -65.5q0 -50 -36.5 -79.5t-108.5 -31.5l6 41q79 8 79 44z" />
    <glyph glyph-name="lcommaaccent" unicode="&#x13c;" horiz-adv-x="324" 
d="M56 65q0 55 51 310t58 328l-72 40l5 20l150 47h32q-15 -123 -70 -396.5t-55 -327.5q0 -28 23 -28q30 0 86 71l32 -22q-72 -117 -162 -117q-78 0 -78 75zM123 -164h-39q-48 11 -48 56q0 26 18 43t49 17q37 0 58.5 -24.5t21.5 -65.5q0 -50 -36.5 -79.5t-108.5 -31.5l6 41
q79 8 79 44z" />
    <glyph glyph-name="Lcaron" unicode="&#x13d;" horiz-adv-x="727" 
d="M328 656l-61 -494q-4 -35 -4 -52q0 -31 24.5 -43t81.5 -12h89q34 0 58.5 8t51 33t45 47.5t57.5 76.5h37l-64 -220h-621l5 43q62 3 90.5 18.5t34.5 62.5l64 524q2 16 2 24q0 37 -24.5 50t-81.5 15l5 43h341l-5 -43q-62 -2 -90.5 -18t-34.5 -63zM572 780h106l-118 -208h-49
z" />
    <glyph glyph-name="lcaron" unicode="&#x13e;" horiz-adv-x="324" 
d="M56 65q0 55 51 310t58 328l-72 40l5 20l150 47h32q-15 -123 -70 -396.5t-55 -327.5q0 -28 23 -28q30 0 86 71l32 -22q-72 -117 -162 -117q-78 0 -78 75zM354 800h106l-118 -208h-49z" />
    <glyph glyph-name="Ldot" unicode="&#x13f;" horiz-adv-x="727" 
d="M328 656l-61 -494q-4 -35 -4 -52q0 -31 24.5 -43t81.5 -12h89q34 0 58.5 8t51 33t45 47.5t57.5 76.5h37l-64 -220h-621l5 43q62 3 90.5 18.5t34.5 62.5l64 524q2 16 2 24q0 37 -24.5 50t-81.5 15l5 43h341l-5 -43q-62 -2 -90.5 -18t-34.5 -63zM528 400q0 32 22.5 54.5
t54.5 22.5t54.5 -22.5t22.5 -54.5t-22.5 -54.5t-54.5 -22.5t-54.5 22.5t-22.5 54.5z" />
    <glyph glyph-name="ldot" unicode="&#x140;" horiz-adv-x="379" 
d="M275 398q0 31 21.5 52.5t51.5 21.5q28 0 47 -19t19 -47q0 -31 -21.5 -52.5t-51.5 -21.5q-28 0 -47 19t-19 47zM56 65q0 55 51 310t58 328l-72 40l5 20l150 47h32q-15 -123 -70 -396.5t-55 -327.5q0 -28 23 -28q30 0 86 71l32 -22q-72 -117 -162 -117q-78 0 -78 75z" />
    <glyph glyph-name="Lslash" unicode="&#x141;" horiz-adv-x="727" 
d="M328 656l-29 -233l215 91l-9 -64l-214 -91l-24 -197q-4 -35 -4 -52q0 -31 24.5 -43t81.5 -12h89q34 0 58.5 8t51 33t45 47.5t57.5 76.5h37l-64 -220h-621l5 43q62 3 90.5 18.5t34.5 62.5l23 187l-115 -49l8 64l115 49l33 273q2 16 2 24q0 37 -24.5 50t-81.5 15l5 43h341
l-5 -43q-62 -2 -90.5 -18t-34.5 -63z" />
    <glyph glyph-name="lslash" unicode="&#x142;" horiz-adv-x="324" 
d="M56 65q0 51 49 302l-82 -50l10 59l84 51q41 208 48 276l-72 40l5 20l150 47h32q-15 -127 -57 -332l96 58l-10 -59l-98 -59q-56 -274 -56 -332q0 -28 23 -28q30 0 86 71l32 -22q-72 -117 -162 -117q-78 0 -78 75z" />
    <glyph glyph-name="Nacute" unicode="&#x143;" horiz-adv-x="928" 
d="M706 190l55 458q2 16 2 24q0 37 -24.5 50t-81.5 15l5 43h296l-5 -43q-62 -2 -90.5 -18t-34.5 -63l-80 -656h-47l-422 621l-59 -479q-3 -22 -3 -40q0 -34 24.5 -45t81.5 -14l-5 -43h-296l5 43q62 3 90.5 18.5t34.5 62.5l67 547q-31 41 -49 53t-58 13l5 43h187zM620 1030
h146l-227 -208h-45z" />
    <glyph glyph-name="nacute" unicode="&#x144;" horiz-adv-x="708" 
d="M429 65q0 32 36.5 182.5t36.5 189.5q0 31 -21 31q-51 0 -138 -137t-148 -331h-97l73 409q4 24 4 36q0 22 -24 22q-35 0 -90 -78l-33 22q68 129 173 129q73 0 73 -71q0 -26 -14 -81l-56 -228h4q161 380 324 380q72 0 72 -83q0 -50 -36.5 -197.5t-36.5 -173.5q0 -28 23 -28
q30 0 86 71l32 -22q-72 -117 -162 -117q-39 0 -60 20t-21 55zM486 800h146l-227 -208h-45z" />
    <glyph glyph-name="Ncommaaccent" unicode="&#x145;" horiz-adv-x="928" 
d="M706 190l55 458q2 16 2 24q0 37 -24.5 50t-81.5 15l5 43h296l-5 -43q-62 -2 -90.5 -18t-34.5 -63l-80 -656h-47l-422 621l-59 -479q-3 -22 -3 -40q0 -34 24.5 -45t81.5 -14l-5 -43h-296l5 43q62 3 90.5 18.5t34.5 62.5l67 547q-31 41 -49 53t-58 13l5 43h187zM438 -164
h-39q-48 11 -48 56q0 26 18 43t49 17q37 0 58.5 -24.5t21.5 -65.5q0 -50 -36.5 -79.5t-108.5 -31.5l6 41q79 8 79 44z" />
    <glyph glyph-name="ncommaaccent" unicode="&#x146;" horiz-adv-x="708" 
d="M429 65q0 32 36.5 182.5t36.5 189.5q0 31 -21 31q-51 0 -138 -137t-148 -331h-97l73 409q4 24 4 36q0 22 -24 22q-35 0 -90 -78l-33 22q68 129 173 129q73 0 73 -71q0 -26 -14 -81l-56 -228h4q161 380 324 380q72 0 72 -83q0 -50 -36.5 -197.5t-36.5 -173.5q0 -28 23 -28
q30 0 86 71l32 -22q-72 -117 -162 -117q-39 0 -60 20t-21 55zM313 -164h-39q-48 11 -48 56q0 26 18 43t49 17q37 0 58.5 -24.5t21.5 -65.5q0 -50 -36.5 -79.5t-108.5 -31.5l6 41q79 8 79 44z" />
    <glyph glyph-name="Ncaron" unicode="&#x147;" horiz-adv-x="928" 
d="M706 190l55 458q2 16 2 24q0 37 -24.5 50t-81.5 15l5 43h296l-5 -43q-62 -2 -90.5 -18t-34.5 -63l-80 -656h-47l-422 621l-59 -479q-3 -22 -3 -40q0 -34 24.5 -45t81.5 -14l-5 -43h-296l5 43q62 3 90.5 18.5t34.5 62.5l67 547q-31 41 -49 53t-58 13l5 43h187zM505 822
l-121 208h45l123 -124l153 124h47l-173 -208h-74z" />
    <glyph glyph-name="ncaron" unicode="&#x148;" horiz-adv-x="708" 
d="M429 65q0 32 36.5 182.5t36.5 189.5q0 31 -21 31q-51 0 -138 -137t-148 -331h-97l73 409q4 24 4 36q0 22 -24 22q-35 0 -90 -78l-33 22q68 129 173 129q73 0 73 -71q0 -26 -14 -81l-56 -228h4q161 380 324 380q72 0 72 -83q0 -50 -36.5 -197.5t-36.5 -173.5q0 -28 23 -28
q30 0 86 71l32 -22q-72 -117 -162 -117q-39 0 -60 20t-21 55zM359 592l-121 208h45l123 -124l153 124h47l-173 -208h-74z" />
    <glyph glyph-name="Eng" unicode="&#x14a;" horiz-adv-x="928" 
d="M674 -25l8 54l-403 592l-59 -479q-3 -22 -3 -40q0 -34 24.5 -45t81.5 -14l-5 -43h-296l5 43q62 3 90.5 18.5t34.5 62.5l67 547q-31 41 -49 53t-58 13l5 43h187l402 -590l55 458q2 16 2 24q0 37 -24.5 50t-81.5 15l5 43h296l-5 -43q-62 -2 -90.5 -18t-34.5 -63l-82 -675
q-14 -117 -68.5 -174t-163.5 -57q-100 0 -147.5 40t-47.5 97q0 63 46 87h78q-10 -30 -10 -65q0 -111 88 -111q69 0 104 41.5t49 135.5z" />
    <glyph glyph-name="eng" unicode="&#x14b;" horiz-adv-x="638" 
d="M430 52l60 283q12 58 12 102q0 31 -21 31q-51 0 -138 -137t-148 -331h-97l73 409q4 24 4 36q0 22 -24 22q-35 0 -90 -78l-33 22q68 129 173 129q73 0 73 -71q0 -26 -14 -81l-56 -228h4q161 380 324 380q72 0 72 -83q0 -42 -21 -137l-64 -282q-37 -165 -88.5 -226.5
t-124.5 -61.5q-57 0 -90.5 25.5t-33.5 63.5q0 44 36 64h43q8 -110 61 -110q31 0 51.5 51.5t56.5 207.5z" />
    <glyph glyph-name="Omacron" unicode="&#x14c;" horiz-adv-x="816" 
d="M389 49q72 0 128 36.5t88 96t48 126.5t16 136q0 137 -54.5 212t-146.5 75q-72 0 -128 -36.5t-88 -96t-48 -126.5t-16 -136q0 -137 54.5 -212t146.5 -75zM380 -10q-143 0 -229 91t-86 249q0 85 26 165.5t75 147t130 107t181 40.5q143 0 229 -91t86 -249q0 -85 -26 -165.5
t-75 -147t-130 -107t-181 -40.5zM356 871l8 64h272l-8 -64h-272z" />
    <glyph glyph-name="omacron" unicode="&#x14d;" horiz-adv-x="542" 
d="M235 39q49 0 87 46t56.5 113t18.5 141q0 152 -90 152q-49 0 -87 -46t-56.5 -113t-18.5 -141q0 -152 90 -152zM221 -10q-90 0 -135.5 56t-45.5 146q0 137 78 242.5t203 105.5q90 0 135.5 -56t45.5 -146q0 -137 -78 -242.5t-203 -105.5zM201 644l8 64h272l-8 -64h-272z" />
    <glyph glyph-name="Obreve" unicode="&#x14e;" horiz-adv-x="816" 
d="M389 49q72 0 128 36.5t88 96t48 126.5t16 136q0 137 -54.5 212t-146.5 75q-72 0 -128 -36.5t-88 -96t-48 -126.5t-16 -136q0 -137 54.5 -212t146.5 -75zM380 -10q-143 0 -229 91t-86 249q0 85 26 165.5t75 147t130 107t181 40.5q143 0 229 -91t86 -249q0 -85 -26 -165.5
t-75 -147t-130 -107t-181 -40.5zM495 832q-156 0 -156 152q0 22 3 46h43q0 -130 118 -130q121 0 151 130h44q-25 -198 -203 -198z" />
    <glyph glyph-name="obreve" unicode="&#x14f;" horiz-adv-x="542" 
d="M235 39q49 0 87 46t56.5 113t18.5 141q0 152 -90 152q-49 0 -87 -46t-56.5 -113t-18.5 -141q0 -152 90 -152zM221 -10q-90 0 -135.5 56t-45.5 146q0 137 78 242.5t203 105.5q90 0 135.5 -56t45.5 -146q0 -137 -78 -242.5t-203 -105.5zM336 602q-156 0 -156 152q0 22 3 46
h43q0 -130 118 -130q121 0 151 130h44q-25 -198 -203 -198z" />
    <glyph glyph-name="Ohungarumlaut" unicode="&#x150;" horiz-adv-x="816" 
d="M389 49q72 0 128 36.5t88 96t48 126.5t16 136q0 137 -54.5 212t-146.5 75q-72 0 -128 -36.5t-88 -96t-48 -126.5t-16 -136q0 -137 54.5 -212t146.5 -75zM380 -10q-143 0 -229 91t-86 249q0 85 26 165.5t75 147t130 107t181 40.5q143 0 229 -91t86 -249q0 -85 -26 -165.5
t-75 -147t-130 -107t-181 -40.5zM464 1030h102l-147 -208h-48zM624 1030h102l-147 -208h-48z" />
    <glyph glyph-name="ohungarumlaut" unicode="&#x151;" horiz-adv-x="542" 
d="M235 39q49 0 87 46t56.5 113t18.5 141q0 152 -90 152q-49 0 -87 -46t-56.5 -113t-18.5 -141q0 -152 90 -152zM221 -10q-90 0 -135.5 56t-45.5 146q0 137 78 242.5t203 105.5q90 0 135.5 -56t45.5 -146q0 -137 -78 -242.5t-203 -105.5zM310 800h102l-147 -208h-48z
M470 800h102l-147 -208h-48z" />
    <glyph glyph-name="OE" unicode="&#x152;" horiz-adv-x="1181" 
d="M380 -10q-143 0 -229 91t-86 249q0 85 26 165.5t75 147t130 107t181 40.5q42 0 87 -10h597l-20 -186h-33q-23 75 -52.5 103t-95.5 28h-283q115 -93 115 -275q0 -17 -1 -25h108q36 0 57 24t37 76h38l-31 -255h-38q-3 53 -18.5 76.5t-51.5 23.5h-106q-14 -98 -60.5 -181
t-122.5 -134h281q38 0 61.5 5t49 25.5t42.5 41.5t56 73h37l-59 -200h-596q-50 -10 -95 -10zM389 49q72 0 128 36.5t88 96t48 126.5t16 136q0 137 -54.5 212t-146.5 75q-72 0 -128 -36.5t-88 -96t-48 -126.5t-16 -136q0 -137 54.5 -212t146.5 -75z" />
    <glyph glyph-name="oe" unicode="&#x153;" horiz-adv-x="837" 
d="M760 162l37 -22q-77 -150 -225 -150q-120 0 -164 86q-78 -86 -187 -86q-90 0 -135.5 56t-45.5 146q0 137 78 242.5t203 105.5q115 0 159 -92q82 92 197 92q61 0 95.5 -26.5t34.5 -77.5q0 -24 -10 -46t-23.5 -38.5t-39 -34t-45 -28t-53.5 -24.5t-52 -20.5t-53.5 -18
t-46.5 -15.5v-13q0 -73 29 -108.5t79 -35.5q55 0 93 27t75 81zM235 39q49 0 87 46t56.5 113t18.5 141q0 152 -90 152q-49 0 -87 -46t-56.5 -113t-18.5 -141q0 -152 90 -152zM654 488q-66 0 -110.5 -69.5t-56.5 -167.5q121 41 175 79.5t54 93.5q0 64 -62 64z" />
    <glyph glyph-name="Racute" unicode="&#x154;" horiz-adv-x="825" 
d="M436 725h-99l-40 -320h105q98 0 149.5 41.5t51.5 135.5q0 143 -167 143zM290 352l-25 -210q-3 -22 -3 -40q0 -34 24.5 -45t81.5 -14l-5 -43h-341l5 43q62 3 90.5 18.5t34.5 62.5l64 524q2 16 2 24q0 37 -24.5 50t-81.5 15l5 43h335q138 0 206 -50.5t68 -137.5
q0 -54 -23.5 -98t-62 -71t-79.5 -42.5t-83 -19.5l156 -212q48 -66 80 -85.5t91 -20.5l-5 -43h-180q-45 40 -110 133l-152 219h-68zM543 1030h146l-227 -208h-45z" />
    <glyph glyph-name="racute" unicode="&#x155;" horiz-adv-x="534" 
d="M207 149h4q97 274 165 347q40 44 91 44q30 0 48.5 -17t18.5 -50q0 -39 -38 -71h-41q-3 37 -32 37q-41 0 -99 -112.5t-125 -326.5h-96l73 409q4 24 4 36q0 22 -24 22q-35 0 -90 -78l-33 22q68 129 173 129q73 0 73 -71q0 -26 -14 -81zM419 800h146l-227 -208h-45z" />
    <glyph glyph-name="Rcommaaccent" unicode="&#x156;" horiz-adv-x="825" 
d="M436 725h-99l-40 -320h105q98 0 149.5 41.5t51.5 135.5q0 143 -167 143zM290 352l-25 -210q-3 -22 -3 -40q0 -34 24.5 -45t81.5 -14l-5 -43h-341l5 43q62 3 90.5 18.5t34.5 62.5l64 524q2 16 2 24q0 37 -24.5 50t-81.5 15l5 43h335q138 0 206 -50.5t68 -137.5
q0 -54 -23.5 -98t-62 -71t-79.5 -42.5t-83 -19.5l156 -212q48 -66 80 -85.5t91 -20.5l-5 -43h-180q-45 40 -110 133l-152 219h-68zM389 -164h-39q-48 11 -48 56q0 26 18 43t49 17q37 0 58.5 -24.5t21.5 -65.5q0 -50 -36.5 -79.5t-108.5 -31.5l6 41q79 8 79 44z" />
    <glyph glyph-name="rcommaaccent" unicode="&#x157;" horiz-adv-x="534" 
d="M207 149h4q97 274 165 347q40 44 91 44q30 0 48.5 -17t18.5 -50q0 -39 -38 -71h-41q-3 37 -32 37q-41 0 -99 -112.5t-125 -326.5h-96l73 409q4 24 4 36q0 22 -24 22q-35 0 -90 -78l-33 22q68 129 173 129q73 0 73 -71q0 -26 -14 -81zM150 -164h-39q-48 11 -48 56
q0 26 18 43t49 17q37 0 58.5 -24.5t21.5 -65.5q0 -50 -36.5 -79.5t-108.5 -31.5l6 41q79 8 79 44z" />
    <glyph glyph-name="Rcaron" unicode="&#x158;" horiz-adv-x="825" 
d="M436 725h-99l-40 -320h105q98 0 149.5 41.5t51.5 135.5q0 143 -167 143zM290 352l-25 -210q-3 -22 -3 -40q0 -34 24.5 -45t81.5 -14l-5 -43h-341l5 43q62 3 90.5 18.5t34.5 62.5l64 524q2 16 2 24q0 37 -24.5 50t-81.5 15l5 43h335q138 0 206 -50.5t68 -137.5
q0 -54 -23.5 -98t-62 -71t-79.5 -42.5t-83 -19.5l156 -212q48 -66 80 -85.5t91 -20.5l-5 -43h-180q-45 40 -110 133l-152 219h-68zM428 822l-121 208h45l123 -124l153 124h47l-173 -208h-74z" />
    <glyph glyph-name="rcaron" unicode="&#x159;" horiz-adv-x="534" 
d="M207 149h4q97 274 165 347q40 44 91 44q30 0 48.5 -17t18.5 -50q0 -39 -38 -71h-41q-3 37 -32 37q-41 0 -99 -112.5t-125 -326.5h-96l73 409q4 24 4 36q0 22 -24 22q-35 0 -90 -78l-33 22q68 129 173 129q73 0 73 -71q0 -26 -14 -81zM284 592l-121 208h45l123 -124
l153 124h47l-173 -208h-74z" />
    <glyph glyph-name="Sacute" unicode="&#x15a;" horiz-adv-x="626" 
d="M292 -10q-75 0 -143 21.5t-102 53.5l15 184h38q22 -108 68.5 -154t135.5 -46q153 0 153 132q0 60 -38.5 97.5t-130.5 85.5q-87 45 -127.5 96.5t-40.5 121.5q0 101 65.5 154.5t177.5 53.5q137 0 224 -66l-19 -162h-37q-15 84 -59.5 126.5t-124.5 42.5q-60 0 -95 -33
t-35 -89q0 -47 31 -81.5t103 -71.5q106 -54 157.5 -108.5t51.5 -138.5q0 -104 -76 -161.5t-192 -57.5zM467 1030h146l-227 -208h-45z" />
    <glyph glyph-name="sacute" unicode="&#x15b;" horiz-adv-x="435" 
d="M201 40q32 0 52 17t20 45q0 27 -19.5 56.5t-46.5 56t-54.5 54.5t-47 62t-19.5 69q0 63 43.5 101.5t125.5 38.5q64 0 101.5 -25.5t37.5 -66.5q0 -31 -34 -49h-35q-9 39 -35.5 63.5t-66.5 24.5q-29 0 -45 -14t-16 -38q0 -29 31 -66.5t67.5 -70t67.5 -77t31 -84.5
q0 -63 -49 -105t-138 -42q-69 0 -112 29t-43 72q0 39 40 57h31q11 -52 40 -80t73 -28zM369 800h146l-227 -208h-45z" />
    <glyph glyph-name="Scircumflex" unicode="&#x15c;" horiz-adv-x="626" 
d="M292 -10q-75 0 -143 21.5t-102 53.5l15 184h38q22 -108 68.5 -154t135.5 -46q153 0 153 132q0 60 -38.5 97.5t-130.5 85.5q-87 45 -127.5 96.5t-40.5 121.5q0 101 65.5 154.5t177.5 53.5q137 0 224 -66l-19 -162h-37q-15 84 -59.5 126.5t-124.5 42.5q-60 0 -95 -33
t-35 -89q0 -47 31 -81.5t103 -71.5q106 -54 157.5 -108.5t51.5 -138.5q0 -104 -76 -161.5t-192 -57.5zM441 1030l121 -208h-45l-123 124l-153 -124h-47l173 208h74z" />
    <glyph glyph-name="scircumflex" unicode="&#x15d;" horiz-adv-x="435" 
d="M201 40q32 0 52 17t20 45q0 27 -19.5 56.5t-46.5 56t-54.5 54.5t-47 62t-19.5 69q0 63 43.5 101.5t125.5 38.5q64 0 101.5 -25.5t37.5 -66.5q0 -31 -34 -49h-35q-9 39 -35.5 63.5t-66.5 24.5q-29 0 -45 -14t-16 -38q0 -29 31 -66.5t67.5 -70t67.5 -77t31 -84.5
q0 -63 -49 -105t-138 -42q-69 0 -112 29t-43 72q0 39 40 57h31q11 -52 40 -80t73 -28zM334 800l121 -208h-45l-123 124l-153 -124h-47l173 208h74z" />
    <glyph glyph-name="Scedilla" unicode="&#x15e;" horiz-adv-x="626" 
d="M292 -10q-18 0 -26 1l-17 -34q50 -7 82 -32.5t32 -70.5q0 -50 -32.5 -77t-79.5 -27q-63 0 -103 36l18 26q36 -20 79 -20q55 0 55 44q0 57 -111 65l46 93q-128 14 -188 71l15 184h38q22 -108 68.5 -154t135.5 -46q153 0 153 132q0 60 -38.5 97.5t-130.5 85.5
q-87 45 -127.5 96.5t-40.5 121.5q0 101 65.5 154.5t177.5 53.5q137 0 224 -66l-19 -162h-37q-15 84 -59.5 126.5t-124.5 42.5q-60 0 -95 -33t-35 -89q0 -47 31 -81.5t103 -71.5q106 -54 157.5 -108.5t51.5 -138.5q0 -104 -76 -161.5t-192 -57.5z" />
    <glyph glyph-name="scedilla" unicode="&#x15f;" horiz-adv-x="435" 
d="M201 40q32 0 52 17t20 45q0 27 -19.5 56.5t-46.5 56t-54.5 54.5t-47 62t-19.5 69q0 63 43.5 101.5t125.5 38.5q64 0 101.5 -25.5t37.5 -66.5q0 -31 -34 -49h-35q-9 39 -35.5 63.5t-66.5 24.5q-29 0 -45 -14t-16 -38q0 -29 31 -66.5t67.5 -70t67.5 -77t31 -84.5
q0 -62 -47 -103.5t-133 -43.5l-17 -33q50 -7 82 -32.5t32 -70.5q0 -50 -32.5 -77t-79.5 -27q-63 0 -103 36l18 26q36 -20 79 -20q55 0 55 44q0 57 -111 65l45 90q-59 5 -94.5 33t-35.5 67t40 57h31q11 -52 40 -80t73 -28z" />
    <glyph glyph-name="Scaron" unicode="&#x160;" horiz-adv-x="626" 
d="M292 -10q-75 0 -143 21.5t-102 53.5l15 184h38q22 -108 68.5 -154t135.5 -46q153 0 153 132q0 60 -38.5 97.5t-130.5 85.5q-87 45 -127.5 96.5t-40.5 121.5q0 101 65.5 154.5t177.5 53.5q137 0 224 -66l-19 -162h-37q-15 84 -59.5 126.5t-124.5 42.5q-60 0 -95 -33
t-35 -89q0 -47 31 -81.5t103 -71.5q106 -54 157.5 -108.5t51.5 -138.5q0 -104 -76 -161.5t-192 -57.5zM332 822l-121 208h45l123 -124l153 124h47l-173 -208h-74z" />
    <glyph glyph-name="scaron" unicode="&#x161;" horiz-adv-x="435" 
d="M201 40q32 0 52 17t20 45q0 27 -19.5 56.5t-46.5 56t-54.5 54.5t-47 62t-19.5 69q0 63 43.5 101.5t125.5 38.5q64 0 101.5 -25.5t37.5 -66.5q0 -31 -34 -49h-35q-9 39 -35.5 63.5t-66.5 24.5q-29 0 -45 -14t-16 -38q0 -29 31 -66.5t67.5 -70t67.5 -77t31 -84.5
q0 -63 -49 -105t-138 -42q-69 0 -112 29t-43 72q0 39 40 57h31q11 -52 40 -80t73 -28zM234 592l-121 208h45l123 -124l153 124h47l-173 -208h-74z" />
    <glyph glyph-name="Tcommaaccent" unicode="&#x162;" horiz-adv-x="759" 
d="M388 729h-62q-31 0 -53.5 -2.5t-43 -14t-31.5 -18.5t-29.5 -33t-27 -39.5t-33.5 -54.5h-40l43 213h676l-9 -213h-36q-10 30 -13 38t-11.5 30.5t-12.5 27.5t-12.5 20t-15 18.5t-17 11.5t-22.5 10t-27 4t-33 2h-80l-72 -589q-3 -23 -3 -31q0 -38 24 -51t86 -15l-5 -43h-348
l5 43q63 3 93 18.5t36 62.5zM355 -164h-39q-48 11 -48 56q0 26 18 43t49 17q37 0 58.5 -24.5t21.5 -65.5q0 -50 -36.5 -79.5t-108.5 -31.5l6 41q79 8 79 44z" />
    <glyph glyph-name="tcommaaccent" unicode="&#x163;" horiz-adv-x="421" 
d="M243 475l-59 -330q-7 -42 -7 -58q0 -28 27 -28q28 0 66.5 28t70.5 73l34 -26q-40 -65 -98.5 -104.5t-115.5 -39.5q-83 0 -83 80q0 25 8 73l57 332h-73l7 38q77 35 162 131h34l-20 -114h138l-10 -55h-138zM187 -164h-39q-48 11 -48 56q0 26 18 43t49 17q37 0 58.5 -24.5
t21.5 -65.5q0 -50 -36.5 -79.5t-108.5 -31.5l6 41q79 8 79 44z" />
    <glyph glyph-name="Tcaron" unicode="&#x164;" horiz-adv-x="759" 
d="M388 729h-62q-31 0 -53.5 -2.5t-43 -14t-31.5 -18.5t-29.5 -33t-27 -39.5t-33.5 -54.5h-40l43 213h676l-9 -213h-36q-10 30 -13 38t-11.5 30.5t-12.5 27.5t-12.5 20t-15 18.5t-17 11.5t-22.5 10t-27 4t-33 2h-80l-72 -589q-3 -23 -3 -31q0 -38 24 -51t86 -15l-5 -43h-348
l5 43q63 3 93 18.5t36 62.5zM422 822l-121 208h45l123 -124l153 124h47l-173 -208h-74z" />
    <glyph glyph-name="tcaron" unicode="&#x165;" horiz-adv-x="421" 
d="M243 475l-59 -330q-7 -42 -7 -58q0 -28 27 -28q28 0 66.5 28t70.5 73l34 -26q-40 -65 -98.5 -104.5t-115.5 -39.5q-83 0 -83 80q0 25 8 73l57 332h-73l7 38q77 35 162 131h34l-20 -114h138l-10 -55h-138zM361 778h106l-118 -208h-49z" />
    <glyph glyph-name="Tbar" unicode="&#x166;" horiz-adv-x="759" 
d="M388 729h-62q-31 0 -53.5 -2.5t-43 -14t-31.5 -18.5t-29.5 -33t-27 -39.5t-33.5 -54.5h-40l43 213h676l-9 -213h-36q-10 30 -13 38t-11.5 30.5t-12.5 27.5t-12.5 20t-15 18.5t-17 11.5t-22.5 10t-27 4t-33 2h-80l-40 -326h165l-7 -55h-165l-25 -208q-3 -23 -3 -31
q0 -38 24 -51t86 -15l-5 -43h-348l5 43q63 3 93 18.5t36 62.5l27 224h-164l7 55h164z" />
    <glyph glyph-name="tbar" unicode="&#x167;" horiz-adv-x="421" 
d="M243 475l-23 -127h138l-9 -53h-138l-27 -150q-7 -42 -7 -58q0 -28 27 -28q28 0 66.5 28t70.5 73l34 -26q-40 -65 -98.5 -104.5t-115.5 -39.5q-83 0 -83 80q0 25 8 73l26 152h-73l10 53h72l22 127h-73l7 38q77 35 162 131h34l-20 -114h138l-10 -55h-138z" />
    <glyph glyph-name="Utilde" unicode="&#x168;" horiz-adv-x="855" 
d="M142 318l40 330q2 16 2 24q0 37 -24.5 50t-81.5 15l5 43h341l-5 -43q-62 -2 -90.5 -18t-34.5 -63l-42 -341q-6 -47 -6 -78q0 -82 51 -129.5t138 -47.5q112 0 170 58.5t73 177.5l43 352q2 16 2 24q0 37 -24.5 50t-81.5 15l5 43h296l-5 -43q-62 -2 -90.5 -18t-34.5 -63
l-46 -381q-17 -136 -102 -210.5t-216 -74.5q-135 0 -212 62t-77 180q0 24 7 86zM709 994l44 -7q-59 -128 -146 -128q-34 0 -76.5 30.5t-62.5 30.5q-24 0 -40 -13t-38 -46l-44 7q59 128 146 128q34 0 76.5 -30.5t62.5 -30.5q24 0 40 13t38 46z" />
    <glyph glyph-name="utilde" unicode="&#x169;" horiz-adv-x="688" 
d="M421 65q0 20 7.5 58.5t16 72.5t23.5 92.5t22 88.5h-4q-42 -105 -88.5 -188t-105 -141t-112.5 -58q-81 0 -81 95q0 50 36.5 187.5t36.5 172.5q0 22 -24 22q-35 0 -90 -78l-33 22q68 129 173 129q76 0 76 -71q0 -45 -37.5 -184t-37.5 -181q0 -39 24 -39q38 0 96 82
t107.5 188t77.5 195h94q-5 -27 -22 -110t-28 -139t-21 -115.5t-10 -79.5q0 -28 23 -28q33 0 89 71l32 -22q-72 -117 -162 -117q-78 0 -78 75zM566 745l44 -7q-59 -128 -146 -128q-34 0 -76.5 30.5t-62.5 30.5q-24 0 -40 -13t-38 -46l-44 7q59 128 146 128q34 0 76.5 -30.5
t62.5 -30.5q24 0 40 13t38 46z" />
    <glyph glyph-name="Umacron" unicode="&#x16a;" horiz-adv-x="855" 
d="M142 318l40 330q2 16 2 24q0 37 -24.5 50t-81.5 15l5 43h341l-5 -43q-62 -2 -90.5 -18t-34.5 -63l-42 -341q-6 -47 -6 -78q0 -82 51 -129.5t138 -47.5q112 0 170 58.5t73 177.5l43 352q2 16 2 24q0 37 -24.5 50t-81.5 15l5 43h296l-5 -43q-62 -2 -90.5 -18t-34.5 -63
l-46 -381q-17 -136 -102 -210.5t-216 -74.5q-135 0 -212 62t-77 180q0 24 7 86zM404 871l8 64h272l-8 -64h-272z" />
    <glyph glyph-name="umacron" unicode="&#x16b;" horiz-adv-x="688" 
d="M421 65q0 20 7.5 58.5t16 72.5t23.5 92.5t22 88.5h-4q-42 -105 -88.5 -188t-105 -141t-112.5 -58q-81 0 -81 95q0 50 36.5 187.5t36.5 172.5q0 22 -24 22q-35 0 -90 -78l-33 22q68 129 173 129q76 0 76 -71q0 -45 -37.5 -184t-37.5 -181q0 -39 24 -39q38 0 96 82
t107.5 188t77.5 195h94q-5 -27 -22 -110t-28 -139t-21 -115.5t-10 -79.5q0 -28 23 -28q33 0 89 71l32 -22q-72 -117 -162 -117q-78 0 -78 75zM267 644l8 64h272l-8 -64h-272z" />
    <glyph glyph-name="Ubreve" unicode="&#x16c;" horiz-adv-x="855" 
d="M142 318l40 330q2 16 2 24q0 37 -24.5 50t-81.5 15l5 43h341l-5 -43q-62 -2 -90.5 -18t-34.5 -63l-42 -341q-6 -47 -6 -78q0 -82 51 -129.5t138 -47.5q112 0 170 58.5t73 177.5l43 352q2 16 2 24q0 37 -24.5 50t-81.5 15l5 43h296l-5 -43q-62 -2 -90.5 -18t-34.5 -63
l-46 -381q-17 -136 -102 -210.5t-216 -74.5q-135 0 -212 62t-77 180q0 24 7 86zM544 832q-156 0 -156 152q0 22 3 46h43q0 -130 118 -130q121 0 151 130h44q-25 -198 -203 -198z" />
    <glyph glyph-name="ubreve" unicode="&#x16d;" horiz-adv-x="688" 
d="M421 65q0 20 7.5 58.5t16 72.5t23.5 92.5t22 88.5h-4q-42 -105 -88.5 -188t-105 -141t-112.5 -58q-81 0 -81 95q0 50 36.5 187.5t36.5 172.5q0 22 -24 22q-35 0 -90 -78l-33 22q68 129 173 129q76 0 76 -71q0 -45 -37.5 -184t-37.5 -181q0 -39 24 -39q38 0 96 82
t107.5 188t77.5 195h94q-5 -27 -22 -110t-28 -139t-21 -115.5t-10 -79.5q0 -28 23 -28q33 0 89 71l32 -22q-72 -117 -162 -117q-78 0 -78 75zM402 602q-156 0 -156 152q0 22 3 46h43q0 -130 118 -130q121 0 151 130h44q-25 -198 -203 -198z" />
    <glyph glyph-name="Uring" unicode="&#x16e;" horiz-adv-x="855" 
d="M142 318l40 330q2 16 2 24q0 37 -24.5 50t-81.5 15l5 43h341l-5 -43q-62 -2 -90.5 -18t-34.5 -63l-42 -341q-6 -47 -6 -78q0 -82 51 -129.5t138 -47.5q112 0 170 58.5t73 177.5l43 352q2 16 2 24q0 37 -24.5 50t-81.5 15l5 43h296l-5 -43q-62 -2 -90.5 -18t-34.5 -63
l-46 -381q-17 -136 -102 -210.5t-216 -74.5q-135 0 -212 62t-77 180q0 24 7 86zM606 939q0 55 -54 55q-33 0 -51.5 -23t-18.5 -58q0 -55 54 -55q33 0 51.5 23t18.5 58zM659 942q0 -56 -37 -93t-92 -37q-46 0 -73.5 28t-27.5 70q0 56 37 93t92 37q46 0 73.5 -28t27.5 -70z
" />
    <glyph glyph-name="uring" unicode="&#x16f;" horiz-adv-x="688" 
d="M421 65q0 20 7.5 58.5t16 72.5t23.5 92.5t22 88.5h-4q-42 -105 -88.5 -188t-105 -141t-112.5 -58q-81 0 -81 95q0 50 36.5 187.5t36.5 172.5q0 22 -24 22q-35 0 -90 -78l-33 22q68 129 173 129q76 0 76 -71q0 -45 -37.5 -184t-37.5 -181q0 -39 24 -39q38 0 96 82
t107.5 188t77.5 195h94q-5 -27 -22 -110t-28 -139t-21 -115.5t-10 -79.5q0 -28 23 -28q33 0 89 71l32 -22q-72 -117 -162 -117q-78 0 -78 75zM470 709q0 55 -54 55q-33 0 -51.5 -23t-18.5 -58q0 -55 54 -55q33 0 51.5 23t18.5 58zM523 712q0 -56 -37 -93t-92 -37
q-46 0 -73.5 28t-27.5 70q0 56 37 93t92 37q46 0 73.5 -28t27.5 -70z" />
    <glyph glyph-name="Uhungarumlaut" unicode="&#x170;" horiz-adv-x="855" 
d="M142 318l40 330q2 16 2 24q0 37 -24.5 50t-81.5 15l5 43h341l-5 -43q-62 -2 -90.5 -18t-34.5 -63l-42 -341q-6 -47 -6 -78q0 -82 51 -129.5t138 -47.5q112 0 170 58.5t73 177.5l43 352q2 16 2 24q0 37 -24.5 50t-81.5 15l5 43h296l-5 -43q-62 -2 -90.5 -18t-34.5 -63
l-46 -381q-17 -136 -102 -210.5t-216 -74.5q-135 0 -212 62t-77 180q0 24 7 86zM512 1030h102l-147 -208h-48zM672 1030h102l-147 -208h-48z" />
    <glyph glyph-name="uhungarumlaut" unicode="&#x171;" horiz-adv-x="688" 
d="M421 65q0 20 7.5 58.5t16 72.5t23.5 92.5t22 88.5h-4q-42 -105 -88.5 -188t-105 -141t-112.5 -58q-81 0 -81 95q0 50 36.5 187.5t36.5 172.5q0 22 -24 22q-35 0 -90 -78l-33 22q68 129 173 129q76 0 76 -71q0 -45 -37.5 -184t-37.5 -181q0 -39 24 -39q38 0 96 82
t107.5 188t77.5 195h94q-5 -27 -22 -110t-28 -139t-21 -115.5t-10 -79.5q0 -28 23 -28q33 0 89 71l32 -22q-72 -117 -162 -117q-78 0 -78 75zM376 800h102l-147 -208h-48zM536 800h102l-147 -208h-48z" />
    <glyph glyph-name="Uogonek" unicode="&#x172;" horiz-adv-x="855" 
d="M678 296l43 352q2 16 2 24q0 37 -24.5 50t-81.5 15l5 43h296l-5 -43q-62 -2 -90.5 -18t-34.5 -63l-46 -381q-14 -110 -73 -180t-152 -94q-59 -21 -95.5 -56.5t-36.5 -80.5q0 -26 18 -40.5t50 -14.5q35 0 67 14l6 -31q-45 -42 -110 -42q-47 0 -77.5 22.5t-30.5 69.5
q0 92 103 148q-130 3 -203 65t-73 177q0 24 7 86l40 330q2 16 2 24q0 37 -24.5 50t-81.5 15l5 43h341l-5 -43q-62 -2 -90.5 -18t-34.5 -63l-42 -341q-6 -47 -6 -78q0 -82 51 -129.5t138 -47.5q112 0 170 58.5t73 177.5z" />
    <glyph glyph-name="uogonek" unicode="&#x173;" horiz-adv-x="688" 
d="M517 86q0 -23 15 -23q23 0 85 59l30 -27q-14 -13 -57.5 -51.5t-68.5 -62.5t-48 -58t-23 -61q0 -53 67 -53q35 0 67 14l6 -31q-45 -42 -110 -42q-47 0 -77.5 22.5t-30.5 69.5q0 69 102 157q-53 7 -53 66q0 20 7.5 58.5t16 72.5t23.5 92.5t22 88.5h-4q-42 -105 -88.5 -188
t-105 -141t-112.5 -58q-81 0 -81 95q0 50 36.5 187.5t36.5 172.5q0 22 -24 22q-35 0 -90 -78l-33 22q68 129 173 129q76 0 76 -71q0 -45 -37.5 -184t-37.5 -181q0 -39 24 -39q38 0 96 82t107.5 188t77.5 195h94q-5 -27 -22 -110t-28 -139t-21 -115.5t-10 -79.5z" />
    <glyph glyph-name="Wcircumflex" unicode="&#x174;" horiz-adv-x="1145" 
d="M734 -10l-130 501l-257 -501h-34l-171 706q-5 20 -20.5 28t-43.5 13l5 43h297l-5 -43q-61 -2 -86.5 -12.5t-25.5 -35.5q0 -13 7 -45l112 -475l202 400l-32 127q-5 20 -20.5 28t-43.5 13l5 43h295l-5 -43q-61 -2 -86.5 -12.5t-25.5 -35.5q0 -15 7 -45l116 -480l235 479
q16 30 16 47q0 25 -20 35t-79 12l5 43h252l-5 -43q-20 -3 -31 -6t-23.5 -11.5t-19.5 -23.5l-356 -706h-34zM705 1030l121 -208h-45l-123 124l-153 -124h-47l173 208h74z" />
    <glyph glyph-name="wcircumflex" unicode="&#x175;" horiz-adv-x="853" 
d="M737 391q0 37 -18.5 57.5t-60.5 26.5v31q28 34 73 34q49 0 70.5 -31t21.5 -72q0 -88 -83.5 -208.5t-202.5 -238.5h-39q-22 240 -44 332h-4q-3 -21 -19 -62t-67 -120t-123 -150h-39q-48 358 -60 411q-16 66 -37 66q-13 0 -27 -11t-24.5 -24t-28.5 -38l-33 22
q65 124 157 124q39 0 56 -22.5t28 -67.5q14 -61 26.5 -167t16.5 -191q59 74 105.5 169t46.5 158q0 23 -12.5 53.5t-28.5 51.5q21 16 58 16q30 0 46.5 -19t29.5 -70q15 -56 31 -170.5t20 -191.5q165 182 165 302zM536 800l121 -208h-45l-123 124l-153 -124h-47l173 208h74z
" />
    <glyph glyph-name="Ycircumflex" unicode="&#x176;" horiz-adv-x="767" 
d="M316 124l23 189l-197 383q-10 20 -24.5 28.5t-39.5 12.5l5 43h301l-5 -43q-61 -2 -84 -12t-23 -34q0 -21 13 -47l140 -270l210 270q23 31 23 51q0 22 -19 31t-76 11l5 43h257l-5 -43q-49 -7 -74 -41l-297 -381l-21 -175q-3 -23 -3 -31q0 -38 24 -51t86 -15l-5 -43h-348
l5 43q63 3 93 18.5t36 62.5zM557 1030l121 -208h-45l-123 124l-153 -124h-47l173 208h74z" />
    <glyph glyph-name="ycircumflex" unicode="&#x177;" horiz-adv-x="592" 
d="M251 450q56 -174 89 -452q68 119 101 198.5t33 152.5q0 54 -25 88.5t-75 35.5v33q28 34 74 34q51 0 76 -32t25 -89q0 -173 -151 -408q-96 -149 -180 -205t-180 -56q-52 0 -87.5 23.5t-35.5 66.5q0 22 11 40t28 25h36q3 -44 26 -69t63 -25q56 0 95 23t92 80
q-19 143 -51 279.5t-55 207.5q-12 38 -20.5 52t-22.5 14q-13 0 -27 -11t-24.5 -24t-28.5 -38l-33 22q65 124 157 124q39 0 57 -22.5t33 -67.5zM385 800l121 -208h-45l-123 124l-153 -124h-47l173 208h74z" />
    <glyph glyph-name="Ydieresis" unicode="&#x178;" horiz-adv-x="767" 
d="M316 124l23 189l-197 383q-10 20 -24.5 28.5t-39.5 12.5l5 43h301l-5 -43q-61 -2 -84 -12t-23 -34q0 -21 13 -47l140 -270l210 270q23 31 23 51q0 22 -19 31t-76 11l5 43h257l-5 -43q-49 -7 -74 -41l-297 -381l-21 -175q-3 -23 -3 -31q0 -38 24 -51t86 -15l-5 -43h-348
l5 43q63 3 93 18.5t36 62.5zM396 856q-28 0 -47 19t-19 47q0 31 21.5 52.5t51.5 21.5q28 0 47 -19t19 -47q0 -31 -21.5 -52.5t-51.5 -21.5zM596 856q-28 0 -47 19t-19 47q0 31 21.5 52.5t51.5 21.5q28 0 47 -19t19 -47q0 -31 -21.5 -52.5t-51.5 -21.5z" />
    <glyph glyph-name="Zacute" unicode="&#x179;" horiz-adv-x="729" 
d="M171 55h255q69 0 104 24t112 121h37l-59 -200h-601l3 28l554 697h-237q-66 0 -102.5 -27.5t-77.5 -103.5h-35l26 186h583l-3 -29zM526 1030h146l-227 -208h-45z" />
    <glyph glyph-name="zacute" unicode="&#x17a;" horiz-adv-x="560" 
d="M100 171l317 238q-43 2 -111 23t-102 21q-26 0 -43.5 -12t-17.5 -36q0 -25 24 -38l-28 -33q-48 24 -48 80q0 58 39.5 92t96.5 34q39 0 114.5 -26.5t132.5 -35.5v48q11 14 31 14q33 0 33 -42q0 -34 -19 -63.5t-71 -67.5l-324 -239q29 11 56 11q49 0 118.5 -35t102.5 -35
q22 0 36 12.5t14 34.5q0 32 -27 53l31 28q44 -28 44 -88q0 -55 -36.5 -87t-96.5 -32q-57 0 -135 38.5t-118 38.5q-18 0 -36 -9v-52q-13 -16 -33 -16q-32 0 -32 44q0 38 20 69.5t68 67.5zM441 800h146l-227 -208h-45z" />
    <glyph glyph-name="Zdotaccent" unicode="&#x17b;" horiz-adv-x="729" 
d="M171 55h255q69 0 104 24t112 121h37l-59 -200h-601l3 28l554 697h-237q-66 0 -102.5 -27.5t-77.5 -103.5h-35l26 186h583l-3 -29zM439 856q-28 0 -47 19t-19 47q0 31 21.5 52.5t51.5 21.5q28 0 47 -19t19 -47q0 -31 -21.5 -52.5t-51.5 -21.5z" />
    <glyph glyph-name="zdotaccent" unicode="&#x17c;" horiz-adv-x="560" 
d="M100 171l317 238q-43 2 -111 23t-102 21q-26 0 -43.5 -12t-17.5 -36q0 -25 24 -38l-28 -33q-48 24 -48 80q0 58 39.5 92t96.5 34q39 0 114.5 -26.5t132.5 -35.5v48q11 14 31 14q33 0 33 -42q0 -34 -19 -63.5t-71 -67.5l-324 -239q29 11 56 11q49 0 118.5 -35t102.5 -35
q22 0 36 12.5t14 34.5q0 32 -27 53l31 28q44 -28 44 -88q0 -55 -36.5 -87t-96.5 -32q-57 0 -135 38.5t-118 38.5q-18 0 -36 -9v-52q-13 -16 -33 -16q-32 0 -32 44q0 38 20 69.5t68 67.5zM355 626q-28 0 -47 19t-19 47q0 31 21.5 52.5t51.5 21.5q28 0 47 -19t19 -47
q0 -31 -21.5 -52.5t-51.5 -21.5z" />
    <glyph glyph-name="Zcaron" unicode="&#x17d;" horiz-adv-x="729" 
d="M171 55h255q69 0 104 24t112 121h37l-59 -200h-601l3 28l554 697h-237q-66 0 -102.5 -27.5t-77.5 -103.5h-35l26 186h583l-3 -29zM391 822l-121 208h45l123 -124l153 124h47l-173 -208h-74z" />
    <glyph glyph-name="zcaron" unicode="&#x17e;" horiz-adv-x="560" 
d="M100 171l317 238q-43 2 -111 23t-102 21q-26 0 -43.5 -12t-17.5 -36q0 -25 24 -38l-28 -33q-48 24 -48 80q0 58 39.5 92t96.5 34q39 0 114.5 -26.5t132.5 -35.5v48q11 14 31 14q33 0 33 -42q0 -34 -19 -63.5t-71 -67.5l-324 -239q29 11 56 11q49 0 118.5 -35t102.5 -35
q22 0 36 12.5t14 34.5q0 32 -27 53l31 28q44 -28 44 -88q0 -55 -36.5 -87t-96.5 -32q-57 0 -135 38.5t-118 38.5q-18 0 -36 -9v-52q-13 -16 -33 -16q-32 0 -32 44q0 38 20 69.5t68 67.5zM306 592l-121 208h45l123 -124l153 124h47l-173 -208h-74z" />
    <glyph glyph-name="florin" unicode="&#x192;" horiz-adv-x="538" 
d="M50 -216l134 599h-109l5 47h114l28 123q28 126 79.5 181.5t152.5 55.5q62 0 96 -20.5t34 -58.5q0 -49 -36 -68h-71q5 25 5 46q0 49 -54 49q-41 0 -60 -33t-37 -116l-35 -159h132l-5 -47h-138l-131 -599h-104z" />
    <glyph glyph-name="Scommaaccent" unicode="&#x218;" horiz-adv-x="626" 
d="M292 -10q-75 0 -143 21.5t-102 53.5l15 184h38q22 -108 68.5 -154t135.5 -46q153 0 153 132q0 60 -38.5 97.5t-130.5 85.5q-87 45 -127.5 96.5t-40.5 121.5q0 101 65.5 154.5t177.5 53.5q137 0 224 -66l-19 -162h-37q-15 84 -59.5 126.5t-124.5 42.5q-60 0 -95 -33
t-35 -89q0 -47 31 -81.5t103 -71.5q106 -54 157.5 -108.5t51.5 -138.5q0 -104 -76 -161.5t-192 -57.5zM265 -164h-39q-48 11 -48 56q0 26 18 43t49 17q37 0 58.5 -24.5t21.5 -65.5q0 -50 -36.5 -79.5t-108.5 -31.5l6 41q79 8 79 44z" />
    <glyph glyph-name="scommaaccent" unicode="&#x219;" horiz-adv-x="435" 
d="M201 40q32 0 52 17t20 45q0 27 -19.5 56.5t-46.5 56t-54.5 54.5t-47 62t-19.5 69q0 63 43.5 101.5t125.5 38.5q64 0 101.5 -25.5t37.5 -66.5q0 -31 -34 -49h-35q-9 39 -35.5 63.5t-66.5 24.5q-29 0 -45 -14t-16 -38q0 -29 31 -66.5t67.5 -70t67.5 -77t31 -84.5
q0 -63 -49 -105t-138 -42q-69 0 -112 29t-43 72q0 39 40 57h31q11 -52 40 -80t73 -28zM196 -164h-39q-48 11 -48 56q0 26 18 43t49 17q37 0 58.5 -24.5t21.5 -65.5q0 -50 -36.5 -79.5t-108.5 -31.5l6 41q79 8 79 44z" />
    <glyph glyph-name="dotlessj" unicode="&#x237;" horiz-adv-x="322" 
d="M46 389l-33 22q68 129 173 129q76 0 76 -74q0 -35 -7 -81l-41 -266q-21 -139 -55 -222t-75 -115t-98 -32t-90.5 25.5t-33.5 63.5q0 44 36 64h43q8 -110 61 -110q23 0 37 13.5t28.5 60.5t29.5 139l58 354q8 54 8 76q0 31 -25 31q-37 0 -92 -78z" />
    <glyph glyph-name="circumflex" unicode="&#x2c6;" horiz-adv-x="600" 
d="M363 800l121 -208h-45l-123 124l-153 -124h-47l173 208h74z" />
    <glyph glyph-name="caron" unicode="&#x2c7;" horiz-adv-x="600" 
d="M237 592l-121 208h45l123 -124l153 124h47l-173 -208h-74z" />
    <glyph glyph-name="breve" unicode="&#x2d8;" horiz-adv-x="600" 
d="M276 602q-156 0 -156 152q0 22 3 46h43q0 -130 118 -130q121 0 151 130h44q-25 -198 -203 -198z" />
    <glyph glyph-name="dotaccent" unicode="&#x2d9;" horiz-adv-x="600" 
d="M296 626q-28 0 -47 19t-19 47q0 31 21.5 52.5t51.5 21.5q28 0 47 -19t19 -47q0 -31 -21.5 -52.5t-51.5 -21.5z" />
    <glyph glyph-name="ring" unicode="&#x2da;" horiz-adv-x="600" 
d="M362 709q0 55 -54 55q-33 0 -51.5 -23t-18.5 -58q0 -55 54 -55q33 0 51.5 23t18.5 58zM415 712q0 -56 -37 -93t-92 -37q-46 0 -73.5 28t-27.5 70q0 56 37 93t92 37q46 0 73.5 -28t27.5 -70z" />
    <glyph glyph-name="ogonek" unicode="&#x2db;" horiz-adv-x="600" 
d="M395 31l14 -31q-63 -21 -102 -56t-39 -80q0 -26 18 -40.5t50 -14.5q35 0 67 14l6 -31q-45 -42 -110 -42q-47 0 -77.5 22.5t-30.5 69.5q0 69 53 113.5t151 75.5z" />
    <glyph glyph-name="tilde" unicode="&#x2dc;" horiz-adv-x="600" 
d="M459 745l44 -7q-59 -128 -146 -128q-34 0 -76.5 30.5t-62.5 30.5q-24 0 -40 -13t-38 -46l-44 7q59 128 146 128q34 0 76.5 -30.5t62.5 -30.5q24 0 40 13t38 46z" />
    <glyph glyph-name="hungarumlaut" unicode="&#x2dd;" horiz-adv-x="600" 
d="M215 800h102l-147 -208h-48zM375 800h102l-147 -208h-48z" />
    <glyph glyph-name="uni0300" unicode="&#x300;" horiz-adv-x="600" 
d="M200 1030h132l78 -208h-45z" />
    <glyph glyph-name="uni0301" unicode="&#x301;" horiz-adv-x="600" 
d="M290 1030h146l-227 -208h-45z" />
    <glyph glyph-name="uni0302" unicode="&#x302;" horiz-adv-x="600" 
d="M363 1030l121 -208h-45l-123 124l-153 -124h-47l173 208h74z" />
    <glyph glyph-name="uni0303" unicode="&#x303;" horiz-adv-x="600" 
d="M381 935q24 0 40 13t38 46l44 -7q-59 -128 -146 -128q-34 0 -76.5 30.5t-62.5 30.5q-24 0 -40 -13t-38 -46l-44 7q59 128 146 128q34 0 76.5 -30.5t62.5 -30.5z" />
    <glyph glyph-name="uni0304" unicode="&#x304;" horiz-adv-x="600" 
d="M160 894l8 64h272l-8 -64h-272z" />
    <glyph glyph-name="uni0305" unicode="&#x305;" horiz-adv-x="600" 
d="M276 832q-156 0 -156 152q0 22 3 46h43q0 -130 118 -130q121 0 151 130h44q-25 -198 -203 -198z" />
    <glyph glyph-name="uni0306" unicode="&#x306;" horiz-adv-x="600" 
d="M323 1020q156 0 156 -152q0 -22 -3 -46h-43q0 130 -118 130q-121 0 -151 -130h-44q25 198 203 198z" />
    <glyph glyph-name="uni0307" unicode="&#x307;" horiz-adv-x="600" 
d="M296 856q-28 0 -47 19t-19 47q0 31 21.5 52.5t51.5 21.5q28 0 47 -19t19 -47q0 -31 -21.5 -52.5t-51.5 -21.5z" />
    <glyph glyph-name="uni0308" unicode="&#x308;" horiz-adv-x="600" 
d="M196 856q-28 0 -47 19t-19 47q0 31 21.5 52.5t51.5 21.5q28 0 47 -19t19 -47q0 -31 -21.5 -52.5t-51.5 -21.5zM396 856q-28 0 -47 19t-19 47q0 31 21.5 52.5t51.5 21.5q28 0 47 -19t19 -47q0 -31 -21.5 -52.5t-51.5 -21.5z" />
    <glyph glyph-name="uni0309" unicode="&#x309;" horiz-adv-x="600" 
d="M292 858q33 0 51.5 23t18.5 58q0 55 -54 55q-33 0 -51.5 -23t-18.5 -58q0 -55 54 -55zM286 812q-46 0 -73.5 28t-27.5 70q0 56 37 93t92 37q46 0 73.5 -28t27.5 -70q0 -56 -37 -93t-92 -37z" />
    <glyph glyph-name="uni030A" unicode="&#x30a;" horiz-adv-x="600" 
d="M215 1030h102l-147 -208h-48zM375 1030h102l-147 -208h-48z" />
    <glyph glyph-name="uni030B" unicode="&#x30b;" horiz-adv-x="600" 
d="M309 1030h102l41 -208h-45zM149 1030h102l41 -208h-45z" />
    <glyph glyph-name="uni030C" unicode="&#x30c;" horiz-adv-x="600" 
d="M237 822l-121 208h45l123 -124l153 124h47l-173 -208h-74z" />
    <glyph glyph-name="uni0312" unicode="&#x312;" horiz-adv-x="600" 
d="M286 715h39q48 -11 48 -56q0 -26 -18 -43t-49 -17q-37 0 -58.5 24.5t-21.5 65.5q0 50 36.5 79.5t108.5 31.5l-6 -41q-79 -8 -79 -44z" />
    <glyph glyph-name="Wgrave" unicode="&#x1e80;" horiz-adv-x="1145" 
d="M734 -10l-130 501l-257 -501h-34l-171 706q-5 20 -20.5 28t-43.5 13l5 43h297l-5 -43q-61 -2 -86.5 -12.5t-25.5 -35.5q0 -13 7 -45l112 -475l202 400l-32 127q-5 20 -20.5 28t-43.5 13l5 43h295l-5 -43q-61 -2 -86.5 -12.5t-25.5 -35.5q0 -15 7 -45l116 -480l235 479
q16 30 16 47q0 25 -20 35t-79 12l5 43h252l-5 -43q-20 -3 -31 -6t-23.5 -11.5t-19.5 -23.5l-356 -706h-34zM443 1030h132l78 -208h-45z" />
    <glyph glyph-name="wgrave" unicode="&#x1e81;" horiz-adv-x="853" 
d="M737 391q0 37 -18.5 57.5t-60.5 26.5v31q28 34 73 34q49 0 70.5 -31t21.5 -72q0 -88 -83.5 -208.5t-202.5 -238.5h-39q-22 240 -44 332h-4q-3 -21 -19 -62t-67 -120t-123 -150h-39q-48 358 -60 411q-16 66 -37 66q-13 0 -27 -11t-24.5 -24t-28.5 -38l-33 22
q65 124 157 124q39 0 56 -22.5t28 -67.5q14 -61 26.5 -167t16.5 -191q59 74 105.5 169t46.5 158q0 23 -12.5 53.5t-28.5 51.5q21 16 58 16q30 0 46.5 -19t29.5 -70q15 -56 31 -170.5t20 -191.5q165 182 165 302zM282 800h132l78 -208h-45z" />
    <glyph glyph-name="Wacute" unicode="&#x1e82;" horiz-adv-x="1145" 
d="M734 -10l-130 501l-257 -501h-34l-171 706q-5 20 -20.5 28t-43.5 13l5 43h297l-5 -43q-61 -2 -86.5 -12.5t-25.5 -35.5q0 -13 7 -45l112 -475l202 400l-32 127q-5 20 -20.5 28t-43.5 13l5 43h295l-5 -43q-61 -2 -86.5 -12.5t-25.5 -35.5q0 -15 7 -45l116 -480l235 479
q16 30 16 47q0 25 -20 35t-79 12l5 43h252l-5 -43q-20 -3 -31 -6t-23.5 -11.5t-19.5 -23.5l-356 -706h-34zM741 1030h146l-227 -208h-45z" />
    <glyph glyph-name="wacute" unicode="&#x1e83;" horiz-adv-x="853" 
d="M737 391q0 37 -18.5 57.5t-60.5 26.5v31q28 34 73 34q49 0 70.5 -31t21.5 -72q0 -88 -83.5 -208.5t-202.5 -238.5h-39q-22 240 -44 332h-4q-3 -21 -19 -62t-67 -120t-123 -150h-39q-48 358 -60 411q-16 66 -37 66q-13 0 -27 -11t-24.5 -24t-28.5 -38l-33 22
q65 124 157 124q39 0 56 -22.5t28 -67.5q14 -61 26.5 -167t16.5 -191q59 74 105.5 169t46.5 158q0 23 -12.5 53.5t-28.5 51.5q21 16 58 16q30 0 46.5 -19t29.5 -70q15 -56 31 -170.5t20 -191.5q165 182 165 302zM581 800h146l-227 -208h-45z" />
    <glyph glyph-name="Wdieresis" unicode="&#x1e84;" horiz-adv-x="1145" 
d="M734 -10l-130 501l-257 -501h-34l-171 706q-5 20 -20.5 28t-43.5 13l5 43h297l-5 -43q-61 -2 -86.5 -12.5t-25.5 -35.5q0 -13 7 -45l112 -475l202 400l-32 127q-5 20 -20.5 28t-43.5 13l5 43h295l-5 -43q-61 -2 -86.5 -12.5t-25.5 -35.5q0 -15 7 -45l116 -480l235 479
q16 30 16 47q0 25 -20 35t-79 12l5 43h252l-5 -43q-20 -3 -31 -6t-23.5 -11.5t-19.5 -23.5l-356 -706h-34zM544 856q-28 0 -47 19t-19 47q0 31 21.5 52.5t51.5 21.5q28 0 47 -19t19 -47q0 -31 -21.5 -52.5t-51.5 -21.5zM744 856q-28 0 -47 19t-19 47q0 31 21.5 52.5
t51.5 21.5q28 0 47 -19t19 -47q0 -31 -21.5 -52.5t-51.5 -21.5z" />
    <glyph glyph-name="wdieresis" unicode="&#x1e85;" horiz-adv-x="853" 
d="M737 391q0 37 -18.5 57.5t-60.5 26.5v31q28 34 73 34q49 0 70.5 -31t21.5 -72q0 -88 -83.5 -208.5t-202.5 -238.5h-39q-22 240 -44 332h-4q-3 -21 -19 -62t-67 -120t-123 -150h-39q-48 358 -60 411q-16 66 -37 66q-13 0 -27 -11t-24.5 -24t-28.5 -38l-33 22
q65 124 157 124q39 0 56 -22.5t28 -67.5q14 -61 26.5 -167t16.5 -191q59 74 105.5 169t46.5 158q0 23 -12.5 53.5t-28.5 51.5q21 16 58 16q30 0 46.5 -19t29.5 -70q15 -56 31 -170.5t20 -191.5q165 182 165 302zM385 626q-28 0 -47 19t-19 47q0 31 21.5 52.5t51.5 21.5
q28 0 47 -19t19 -47q0 -31 -21.5 -52.5t-51.5 -21.5zM585 626q-28 0 -47 19t-19 47q0 31 21.5 52.5t51.5 21.5q28 0 47 -19t19 -47q0 -31 -21.5 -52.5t-51.5 -21.5z" />
    <glyph glyph-name="Eszett" unicode="&#x1e9e;" horiz-adv-x="928" 
d="M291 491l-43 -350q-3 -23 -3 -40q0 -34 24 -45t81 -14l-5 -42h-339l5 42q62 2 90.5 18t34.5 63l48 386q17 139 116.5 210t267.5 71q78 0 141 -19.5t98 -51.5l-3 -29l-183 -219l46 -24q104 -55 151.5 -106.5t47.5 -135.5q0 -102 -69.5 -158.5t-176.5 -56.5
q-58 0 -116.5 21t-95.5 54l15 184h38q17 -110 57.5 -155.5t112.5 -45.5q56 0 94 37t38 97q0 56 -39 95.5t-124 83.5l-43 22q-54 27 -76 53l4 28l199 237q-55 19 -124 19q-118 0 -186.5 -59t-82.5 -170z" />
    <glyph glyph-name="enspace" unicode="&#x2002;" horiz-adv-x="500" 
 />
    <glyph glyph-name="emspace" unicode="&#x2003;" horiz-adv-x="1000" 
 />
    <glyph glyph-name="threeperemspace" unicode="&#x2004;" horiz-adv-x="333" 
 />
    <glyph glyph-name="fourperemspace" unicode="&#x2005;" horiz-adv-x="250" 
 />
    <glyph glyph-name="sixperemspace" unicode="&#x2006;" horiz-adv-x="167" 
 />
    <glyph glyph-name="figurespace" unicode="&#x2007;" 
 />
    <glyph glyph-name="punctuationspace" unicode="&#x2008;" horiz-adv-x="280" 
 />
    <glyph glyph-name="thinspace" unicode="&#x2009;" horiz-adv-x="200" 
 />
    <glyph glyph-name="hairspace" unicode="&#x200a;" horiz-adv-x="100" 
 />
    <glyph glyph-name="zerowidthspace" unicode="&#x200b;" horiz-adv-x="0" 
 />
    <glyph glyph-name="figuredash" unicode="&#x2012;" 
d="M646 297h-581l9 76h581z" />
    <glyph glyph-name="endash" unicode="&#x2013;" horiz-adv-x="500" 
d="M446 297h-381l9 76h381z" />
    <glyph glyph-name="emdash" unicode="&#x2014;" horiz-adv-x="1000" 
d="M946 297h-881l9 76h881z" />
    <glyph glyph-name="uni2015" unicode="&#x2015;" horiz-adv-x="1400" 
d="M1346 297h-1281l9 76h1281z" />
    <glyph glyph-name="doublebar" unicode="&#x2016;" horiz-adv-x="402" 
d="M243 830l-116 -951h-62l116 951h62zM383 830l-116 -951h-62l116 951h62z" />
    <glyph glyph-name="quoteleft" unicode="&#x2018;" horiz-adv-x="333" 
d="M205 650h40q53 -12 53 -59q0 -29 -20 -48t-54 -19q-41 0 -65 27.5t-24 72.5q0 72 64 129t160 62l-8 -46q-63 -9 -104.5 -43t-41.5 -76z" />
    <glyph glyph-name="quoteright" unicode="&#x2019;" horiz-adv-x="333" 
d="M247 688h-40q-53 12 -53 59q0 29 20 48t54 19q41 0 65 -27.5t24 -72.5q0 -72 -64 -129t-160 -62l8 46q63 9 104.5 43t41.5 76z" />
    <glyph glyph-name="quotesinglbase" unicode="&#x201a;" horiz-adv-x="333" 
d="M165 54h-40q-53 12 -53 59q0 29 20 48t54 19q41 0 65 -27.5t24 -72.5q0 -72 -64 -129t-160 -62l8 46q63 9 104.5 43t41.5 76z" />
    <glyph glyph-name="reversequoteleft" unicode="&#x201b;" horiz-adv-x="333" 
d="M229 688h-40q0 -42 41.5 -76t104.5 -43l8 -46q-96 5 -160 62t-64 129q0 45 24 72.5t65 27.5q34 0 54 -19t20 -48q0 -47 -53 -59z" />
    <glyph glyph-name="quotedblleft" unicode="&#x201c;" horiz-adv-x="558" 
d="M205 650h40q53 -12 53 -59q0 -29 -20 -48t-54 -19q-41 0 -65 27.5t-24 72.5q0 72 64 129t160 62l-8 -46q-63 -9 -104.5 -43t-41.5 -76zM430 652h40q53 -12 53 -59q0 -29 -20 -48t-54 -19q-41 0 -65 27.5t-24 72.5q0 72 64 129t160 62l-8 -46q-63 -9 -104.5 -43t-41.5 -76
z" />
    <glyph glyph-name="quotedblright" unicode="&#x201d;" horiz-adv-x="558" 
d="M472 690h-40q-53 12 -53 59q0 29 20 48t54 19q41 0 65 -27.5t24 -72.5q0 -72 -64 -129t-160 -62l8 46q63 9 104.5 43t41.5 76zM247 688h-40q-53 12 -53 59q0 29 20 48t54 19q41 0 65 -27.5t24 -72.5q0 -72 -64 -129t-160 -62l8 46q63 9 104.5 43t41.5 76z" />
    <glyph glyph-name="quotedblbase" unicode="&#x201e;" horiz-adv-x="558" 
d="M400 54h-40q-53 12 -53 59q0 29 20 48t54 19q41 0 65 -27.5t24 -72.5q0 -72 -64 -129t-160 -62l8 46q63 9 104.5 43t41.5 76zM175 52h-40q-53 12 -53 59q0 29 20 48t54 19q41 0 65 -27.5t24 -72.5q0 -72 -64 -129t-160 -62l8 46q63 9 104.5 43t41.5 76z" />
    <glyph glyph-name="reversequotedblleft" unicode="&#x201f;" horiz-adv-x="558" 
d="M229 690h-40q0 -42 41.5 -76t104.5 -43l8 -46q-96 5 -160 62t-64 129q0 45 24 72.5t65 27.5q34 0 54 -19t20 -48q0 -47 -53 -59zM454 688h-40q0 -42 41.5 -76t104.5 -43l8 -46q-96 5 -160 62t-64 129q0 45 24 72.5t65 27.5q34 0 54 -19t20 -48q0 -47 -53 -59z" />
    <glyph glyph-name="dagger" unicode="&#x2020;" horiz-adv-x="683" 
d="M358 780h93l7 -28l-70 -254l258 39l27 -10l-11 -93l-29 -10l-250 39l12 -224l-99 -489h-35l21 489l66 224l-258 -39l-27 10l11 93l29 10l250 -39l-8 254z" />
    <glyph glyph-name="daggerdbl" unicode="&#x2021;" horiz-adv-x="659" 
d="M285 268l53 195l-258 -39l-27 10l11 93l29 10l250 -39l-8 254l13 28h93l7 -28l-70 -254l258 39l27 -10l-11 -93l-29 -10l-250 39l5 -195l-52 -191l259 39l27 -10l-12 -93l-29 -10l-249 39l7 -254l-13 -28h-93l-7 28l71 254l-259 -39l-27 10l12 93l29 10l249 -39z" />
    <glyph glyph-name="bullet" unicode="&#x2022;" horiz-adv-x="414" 
d="M91 314q0 50 36 86t86 36t86 -36t36 -86t-36 -86t-86 -36t-86 36t-36 86z" />
    <glyph glyph-name="ellipsis" unicode="&#x2026;" horiz-adv-x="1000" 
d="M80 67q0 32 22.5 54.5t54.5 22.5t54.5 -22.5t22.5 -54.5t-22.5 -54.5t-54.5 -22.5t-54.5 22.5t-22.5 54.5zM408 67q0 32 22.5 54.5t54.5 22.5t54.5 -22.5t22.5 -54.5t-22.5 -54.5t-54.5 -22.5t-54.5 22.5t-22.5 54.5zM736 67q0 32 22.5 54.5t54.5 22.5t54.5 -22.5
t22.5 -54.5t-22.5 -54.5t-54.5 -22.5t-54.5 22.5t-22.5 54.5z" />
    <glyph glyph-name="perthousand" unicode="&#x2030;" horiz-adv-x="1467" 
d="M868 780l-612 -780h-68l612 780h68zM269 375q-79 0 -126.5 47t-47.5 130q0 103 52 170.5t144 67.5q79 0 126.5 -47t47.5 -130q0 -103 -52 -170.5t-144 -67.5zM382 629q0 115 -91 115q-41 0 -67.5 -34.5t-36 -78.5t-9.5 -95q0 -115 91 -115q41 0 67.5 34.5t36 78.5t9.5 95
zM787 359q-41 0 -67.5 -34.5t-36 -78.5t-9.5 -95q0 -115 91 -115q41 0 67.5 34.5t36 78.5t9.5 95q0 115 -91 115zM787 405q79 0 126.5 -47t47.5 -130q0 -103 -52 -170.5t-144 -67.5q-79 0 -126.5 47t-47.5 130q0 103 52 170.5t144 67.5zM1217 359q-41 0 -67.5 -34.5
t-36 -78.5t-9.5 -95q0 -115 91 -115q41 0 67.5 34.5t36 78.5t9.5 95q0 115 -91 115zM1217 405q79 0 126.5 -47t47.5 -130q0 -103 -52 -170.5t-144 -67.5q-79 0 -126.5 47t-47.5 130q0 103 52 170.5t144 67.5z" />
    <glyph glyph-name="minute" unicode="&#x2032;" horiz-adv-x="180" 
d="M125 780h86l-76 -250h-40z" />
    <glyph glyph-name="second" unicode="&#x2033;" horiz-adv-x="330" 
d="M125 780h86l-76 -250h-40zM275 780h86l-76 -250h-40z" />
    <glyph glyph-name="tripleprime" unicode="&#x2034;" horiz-adv-x="542" 
d="M182 510h-62l7 270h114zM346 510h-62l7 270h114zM510 510h-62l7 270h114z" />
    <glyph glyph-name="guilsinglleft" unicode="&#x2039;" horiz-adv-x="308" 
d="M44 269l1 10l190 190h52l-149 -195l101 -195h-45z" />
    <glyph glyph-name="guilsinglright" unicode="&#x203a;" horiz-adv-x="308" 
d="M264 279l-1 -10l-190 -190h-52l149 195l-101 195h45z" />
    <glyph glyph-name="interrobang" unicode="&#x203d;" horiz-adv-x="526" 
d="M351 580l-32 -107q62 33 90.5 67t28.5 85t-32 82t-97 31q-56 0 -87 -29.5t-31 -82.5q0 -15 5 -40h-90q-21 23 -21 58q0 67 66 106.5t160 39.5q110 0 167.5 -46t57.5 -124q0 -86 -44.5 -137t-127.5 -89q-69 -32 -96 -63.5t-27 -83.5v-32h-34q-28 49 -28 99q0 70 63 115
l8 151l5 46h101zM137 67q0 32 22.5 54.5t54.5 22.5t54.5 -22.5t22.5 -54.5t-22.5 -54.5t-54.5 -22.5t-54.5 22.5t-22.5 54.5z" />
    <glyph glyph-name="fraction" unicode="&#x2044;" horiz-adv-x="283" 
d="M-185 0l641 780h68l-641 -780h-68z" />
    <glyph glyph-name="uni2070" unicode="&#x2070;" horiz-adv-x="452" 
d="M234 330q34 0 59.5 28.5t39 73t20 89.5t6.5 86q0 139 -77 139q-34 0 -59.5 -29t-38.5 -74t-19.5 -89t-6.5 -85q0 -139 76 -139zM232 290q-77 0 -123.5 54.5t-46.5 148.5q0 51 13 101t38.5 94t70 71t101.5 27q77 0 123 -54.5t46 -148.5q0 -71 -21.5 -135t-74 -111
t-126.5 -47z" />
    <glyph glyph-name="uni2074" unicode="&#x2074;" horiz-adv-x="444" 
d="M99 463h174l27 214zM339 296h-87l16 124h-235l4 33l303 327h59l-39 -317h80l-5 -43h-80z" />
    <glyph glyph-name="uni2075" unicode="&#x2075;" horiz-adv-x="399" 
d="M379 449q0 -73 -50 -116t-128 -43q-79 0 -118 31t-39 74q0 41 38 59h51q-6 -22 -6 -43q0 -37 19.5 -61t59.5 -24q42 0 67 25t25 68q0 123 -198 123l57 238h143q30 0 44 5.5t27 24.5h34l-41 -113h-189l-20 -83q98 -1 161 -42t63 -123z" />
    <glyph glyph-name="uni2076" unicode="&#x2076;" horiz-adv-x="414" 
d="M407 759q-89 -24 -152.5 -72t-90.5 -117q44 35 103 35q66 0 103.5 -39.5t37.5 -103.5q0 -79 -52 -125.5t-129 -46.5q-82 0 -128 51t-46 131q0 116 93 204t255 110zM222 558q-34 0 -69 -23q-8 -34 -8 -67q0 -62 21 -100.5t64 -38.5q44 0 66.5 32.5t22.5 88.5q0 50 -25 79
t-72 29z" />
    <glyph glyph-name="uni2077" unicode="&#x2077;" horiz-adv-x="405" 
d="M356 692h-173q-29 0 -47.5 -16t-39.5 -50h-31l56 154h316l-2 -24l-255 -460h-83z" />
    <glyph glyph-name="uni2078" unicode="&#x2078;" horiz-adv-x="417" 
d="M416 673q0 -44 -31 -72t-80 -39l15 -9q83 -45 83 -119q0 -63 -46.5 -103.5t-128.5 -40.5q-78 0 -126 35.5t-48 90.5q0 48 33.5 78.5t86.5 41.5l-7 4q-62 34 -62 108q0 61 42.5 99.5t115.5 38.5q71 0 112 -31.5t41 -81.5zM262 486l-63 36q-66 -32 -66 -101q0 -42 26 -67.5
t71 -25.5q40 0 65 22t25 60q0 43 -58 76zM234 603l47 -27q60 33 60 97q0 33 -20.5 54t-58.5 21q-36 0 -56 -20t-20 -53q0 -45 48 -72z" />
    <glyph glyph-name="uni2079" unicode="&#x2079;" horiz-adv-x="414" 
d="M61 317q88 24 151.5 72t91.5 117q-46 -35 -103 -35q-66 0 -103.5 39.5t-37.5 103.5q0 79 52 125.5t129 46.5q82 0 128 -51t46 -131q0 -116 -93 -204t-255 -110zM246 518q35 0 69 22q8 35 8 68q0 62 -21 100.5t-64 38.5q-44 0 -66.5 -32.5t-22.5 -88.5q0 -50 25 -79
t72 -29z" />
    <glyph glyph-name="uni207A" unicode="&#x207a;" horiz-adv-x="438" 
d="M197 351l18 146h-144l6 49h144l17 144h50l-17 -144h144l-6 -49h-144l-18 -146h-50z" />
    <glyph glyph-name="uni207B" unicode="&#x207b;" horiz-adv-x="438" 
d="M409 497h-338l6 49h338z" />
    <glyph glyph-name="uni207C" unicode="&#x207c;" horiz-adv-x="438" 
d="M403 448h-338l6 49h338zM415 546h-338l5 48h338z" />
    <glyph glyph-name="uni207D" unicode="&#x207d;" horiz-adv-x="248" 
d="M74 482q0 208 185 345l29 -33q-78 -70 -119.5 -141t-41.5 -171q0 -67 25 -119.5t70 -104.5l-36 -29q-112 109 -112 253z" />
    <glyph glyph-name="uni207E" unicode="&#x207e;" horiz-adv-x="248" 
d="M233 574q0 -208 -185 -345l-29 33q78 70 119.5 141t41.5 171q0 67 -25 119.5t-70 104.5l36 29q112 -109 112 -253z" />
    <glyph glyph-name="n.superior" unicode="&#x207f;" horiz-adv-x="503" 
d="M143 660q0 17 -16 17q-18 0 -57 -47l-24 18q54 85 129 85q56 0 56 -55q0 -17 -10 -56l-39 -156h3q111 267 225 267q58 0 58 -63q0 -35 -25.5 -134.5t-25.5 -117.5q0 -19 15 -19q20 0 55 43l24 -18q-56 -79 -122 -79q-61 0 -61 58q0 25 24.5 124t24.5 125q0 20 -13 20
q-32 0 -90 -95t-99 -225h-85l50 283q3 13 3 25z" />
    <glyph glyph-name="uni2080" unicode="&#x2080;" horiz-adv-x="452" 
d="M204 34q34 0 59.5 28.5t39 73t20 89.5t6.5 86q0 139 -77 139q-34 0 -59.5 -29t-38.5 -74t-19.5 -89t-6.5 -85q0 -139 76 -139zM202 -6q-77 0 -123.5 54.5t-46.5 148.5q0 51 13 101t38.5 94t70 71t101.5 27q77 0 123 -54.5t46 -148.5q0 -71 -21.5 -135t-74 -111
t-126.5 -47z" />
    <glyph glyph-name="uni2081" unicode="&#x2081;" horiz-adv-x="363" 
d="M253 490h25l-48 -394q-2 -18 -2 -26q0 -20 25 -26.5t82 -9.5l-3 -34h-321l4 34q35 2 51.5 3.5t36.5 6.5t28.5 14.5t10.5 24.5l35 286h-122l3 30l46 8q52 9 85 27.5t64 55.5z" />
    <glyph glyph-name="uni2082" unicode="&#x2082;" horiz-adv-x="399" 
d="M105 76h102q47 0 66 11.5t50 59.5h28l-40 -147h-326l3 24q173 148 219 204t46 115q0 36 -21 56t-59 20q-57 0 -110 -57l-20 18q60 110 171 110q64 0 100.5 -32.5t36.5 -87.5q0 -28 -9 -53.5t-21.5 -45t-39 -45t-47.5 -43t-61.5 -51t-67.5 -56.5z" />
    <glyph glyph-name="uni2083" unicode="&#x2083;" horiz-adv-x="404" 
d="M129 256q62 21 98.5 46.5t36.5 65.5q0 27 -17 43t-48 16q-57 0 -109 -57l-20 20q56 100 165 100q57 0 89.5 -27t32.5 -73q0 -83 -118 -114q55 -7 86.5 -41t31.5 -85q0 -76 -55 -116t-132 -40t-117 31t-40 72q0 42 39 60h50q-5 -25 -5 -43q0 -37 19 -61t56 -24
q44 0 68.5 29t24.5 81q0 44 -24 70t-65 26q-8 0 -40 -4z" />
    <glyph glyph-name="uni2084" unicode="&#x2084;" horiz-adv-x="444" 
d="M69 167h174l27 214zM309 0h-87l16 124h-235l4 33l303 327h59l-39 -317h80l-5 -43h-80z" />
    <glyph glyph-name="uni2085" unicode="&#x2085;" horiz-adv-x="399" 
d="M349 153q0 -73 -50 -116t-128 -43q-79 0 -118 31t-39 74q0 41 38 59h51q-6 -22 -6 -43q0 -37 19.5 -61t59.5 -24q42 0 67 25t25 68q0 123 -198 123l57 238h143q30 0 44 5.5t27 24.5h34l-41 -113h-189l-20 -83q98 -1 161 -42t63 -123z" />
    <glyph glyph-name="uni2086" unicode="&#x2086;" horiz-adv-x="414" 
d="M377 463q-89 -24 -152.5 -72t-90.5 -117q44 35 103 35q66 0 103.5 -39.5t37.5 -103.5q0 -79 -52 -125.5t-129 -46.5q-82 0 -128 51t-46 131q0 116 93 204t255 110zM192 262q-34 0 -69 -23q-8 -34 -8 -67q0 -62 21 -100.5t64 -38.5q44 0 66.5 32.5t22.5 88.5q0 50 -25 79
t-72 29z" />
    <glyph glyph-name="uni2087" unicode="&#x2087;" horiz-adv-x="405" 
d="M326 396h-173q-29 0 -47.5 -16t-39.5 -50h-31l56 154h316l-2 -24l-255 -460h-83z" />
    <glyph glyph-name="uni2088" unicode="&#x2088;" horiz-adv-x="417" 
d="M386 377q0 -44 -31 -72t-80 -39l15 -9q83 -45 83 -119q0 -63 -46.5 -103.5t-128.5 -40.5q-78 0 -126 35.5t-48 90.5q0 48 33.5 78.5t86.5 41.5l-7 4q-62 34 -62 108q0 61 42.5 99.5t115.5 38.5q71 0 112 -31.5t41 -81.5zM232 190l-63 36q-66 -32 -66 -101q0 -42 26 -67.5
t71 -25.5q40 0 65 22t25 60q0 43 -58 76zM204 307l47 -27q60 33 60 97q0 33 -20.5 54t-58.5 21q-36 0 -56 -20t-20 -53q0 -45 48 -72z" />
    <glyph glyph-name="uni2089" unicode="&#x2089;" horiz-adv-x="414" 
d="M31 21q88 24 151.5 72t91.5 117q-45 -35 -103 -35q-66 0 -103.5 39.5t-37.5 103.5q0 79 52 125.5t129 46.5q82 0 128 -51t46 -131q0 -116 -93 -204t-255 -110zM216 222q35 0 69 22q8 35 8 68q0 62 -21 100.5t-64 38.5q-44 0 -66.5 -32.5t-22.5 -88.5q0 -50 25 -79t72 -29
z" />
    <glyph glyph-name="uni208A" unicode="&#x208a;" horiz-adv-x="438" 
d="M167 55l18 146h-144l6 49h144l17 144h50l-17 -144h144l-6 -49h-144l-18 -146h-50z" />
    <glyph glyph-name="uni208B" unicode="&#x208b;" horiz-adv-x="438" 
d="M379 201h-338l6 49h338z" />
    <glyph glyph-name="uni208C" unicode="&#x208c;" horiz-adv-x="438" 
d="M373 152h-338l6 49h338zM385 250h-338l5 48h338z" />
    <glyph glyph-name="uni208D" unicode="&#x208d;" horiz-adv-x="248" 
d="M44 186q0 208 185 345l29 -33q-78 -70 -119.5 -141t-41.5 -171q0 -67 25 -119.5t70 -104.5l-36 -29q-112 109 -112 253z" />
    <glyph glyph-name="uni208E" unicode="&#x208e;" horiz-adv-x="248" 
d="M203 278q0 -208 -185 -345l-29 33q78 70 119.5 141t41.5 171q0 67 -25 119.5t-70 104.5l36 29q112 -109 112 -253z" />
    <glyph glyph-name="Euro" unicode="&#x20ac;" horiz-adv-x="777" 
d="M67 427l6 48h102q36 137 127 226t214 89q74 0 122 -18.5t95 -55.5l-18 -170h-42q-19 185 -163 185q-82 0 -139 -73t-81 -183h291l-16 -48h-283q-6 -39 -6 -78h269l-16 -48h-252q5 -126 46.5 -189t124.5 -63q78 0 130 47.5t92 144.5h45l-37 -189q-89 -62 -230 -62
q-128 0 -205 84.5t-85 226.5h-107l6 48h100q1 35 8 78h-98z" />
    <glyph glyph-name="afii61289" unicode="&#x2113;" horiz-adv-x="364" 
d="M225 -10q-149 0 -149 121v94q-24 -19 -49 -35v81q32 23 48 36v221q0 144 33.5 206.5t105.5 62.5q57 0 85 -40t28 -110q0 -102 -52 -201t-119 -164v-118q0 -45 15 -62t54 -17q36 0 64 12l10 -76q-27 -11 -74 -11zM156 549v-181q42 49 71.5 122t29.5 146q0 69 -42 69
q-59 0 -59 -156z" />
    <glyph glyph-name="numero" unicode="&#x2116;" horiz-adv-x="1475" 
d="M933 0l7 64h404l-7 -64h-404zM240 187l58 484q-25 37 -46.5 51t-60.5 15l5 43h183l350 -588l55 442q12 95 52.5 139.5t117.5 44.5q105 0 105 -82q0 -22 -11.5 -39.5t-25.5 -25.5h-72q5 40 5 51q0 40 -31 40q-30 0 -48 -32.5t-28 -108.5l-76 -621h-47l-371 607l-50 -433
q-11 -95 -52 -139.5t-118 -44.5q-105 0 -105 82q0 22 11.5 39.5t25.5 25.5h72q-5 -40 -5 -51q0 -40 31 -40q58 0 76 141zM1157 212q62 0 97 68t35 160q0 71 -20.5 106t-65.5 35q-62 0 -97 -68t-35 -160q0 -71 20.5 -106t65.5 -35zM1157 166q-89 0 -136 54.5t-47 133.5
q0 106 64.5 189.5t164.5 83.5q89 0 136 -54.5t47 -133.5q0 -106 -64.5 -189.5t-164.5 -83.5z" />
    <glyph glyph-name="published" unicode="&#x2117;" horiz-adv-x="890" 
d="M62 390q0 166 117 283t283 117t283 -117t117 -283t-117 -283t-283 -117t-283 117t-117 283zM92 390q0 -153 108.5 -261.5t261.5 -108.5t261.5 108.5t108.5 261.5t-108.5 261.5t-261.5 108.5t-261.5 -108.5t-108.5 -261.5zM502 346h-86l-9 -73q-4 -26 -4 -41
q0 -22 19 -29.5t73 -11.5l-5 -32h-257l3 32q41 1 62 13t25 42l33 267q4 30 4 42q0 41 -75 41l5 33h219q92 0 138.5 -33.5t46.5 -95.5q0 -73 -51 -113.5t-141 -40.5zM446 589l-25 -203h58q63 0 94 26.5t31 86.5q0 90 -108 90h-50z" />
    <glyph glyph-name="servicemark" unicode="&#x2120;" horiz-adv-x="873" 
d="M213 444q-69 0 -113 38l6 81h23q16 -88 84 -88t68 49q0 23 -15.5 38.5t-56.5 33.5q-41 19 -60.5 42t-19.5 59q0 42 29.5 66t78.5 24q62 0 109 -35l-9 -71h-21q-12 75 -79 75q-55 0 -55 -48q0 -18 13 -31t45 -28q49 -22 73 -45.5t24 -60.5q0 -46 -35.5 -72.5t-88.5 -26.5z
M613 530l124 222q3 5 8 28h100l-3 -27q-37 -3 -43 -29l2 -225q0 -13 8 -17.5t29 -6.5l-3 -27h-150l3 27q27 2 37.5 6.5t10.5 18.5q0 16 0.5 88t0.5 97l-132 -237h-34l-72 242l-37 -157q-7 -23 -7 -35q0 -13 8 -17t34 -6l-3 -27h-121l3 27q36 1 42 24l56 225q0 14 -7.5 21
t-28.5 8l3 27h104q1 -19 4 -28z" />
    <glyph glyph-name="trademark" unicode="&#x2122;" horiz-adv-x="918" 
d="M119 780h316l-4 -98h-24q-11 30 -16 40.5t-16.5 18t-32.5 7.5h-36l-27 -227q-2 -18 -2 -21q0 -13 10.5 -18t35.5 -7l-3 -27h-165l3 27q27 2 39.5 7.5t14.5 22.5l29 243h-36q-29 0 -42.5 -12t-37.5 -54h-25zM658 530l124 222q3 5 8 28h100l-3 -27q-37 -3 -43 -29l2 -225
q0 -13 8 -17.5t29 -6.5l-3 -27h-150l3 27q27 2 37.5 6.5t10.5 18.5q0 16 0.5 88t0.5 97l-132 -237h-34l-72 242l-37 -157q-7 -23 -7 -35q0 -13 8 -17t34 -6l-3 -27h-121l3 27q36 1 42 24l56 225q0 14 -7.5 21t-28.5 8l3 27h104q1 -19 4 -28z" />
    <glyph glyph-name="estimated" unicode="&#x212e;" horiz-adv-x="802" 
d="M791 358h-649q3 -51 13 -94t31 -82t52.5 -66.5t79 -44t107.5 -16.5q116 0 188 54t85 156h78q-15 -137 -108.5 -206t-247.5 -69q-187 0 -298 108.5t-111 291.5q0 181 108 290t282 109t282 -109t108 -290v-32zM401 726q-67 0 -117 -24.5t-79.5 -68t-44 -95.5t-17.5 -116
h517q-3 64 -18 116t-44 95.5t-79.5 68t-117.5 24.5z" />
    <glyph glyph-name="uni2153" unicode="&#x2153;" horiz-adv-x="990" 
d="M283 786h25l-48 -394q-2 -18 -2 -26q0 -20 25 -26.5t82 -9.5l-3 -34h-321l4 34q35 2 51.5 3.5t36.5 6.5t28.5 14.5t10.5 24.5l35 286h-122l3 30l46 8q52 9 85 27.5t64 55.5zM178 0l641 780h68l-641 -780h-68zM715 256q62 21 98.5 46.5t36.5 65.5q0 27 -17 43t-48 16
q-57 0 -109 -57l-20 20q56 100 165 100q57 0 89.5 -27t32.5 -73q0 -83 -118 -114q55 -7 86.5 -41t31.5 -85q0 -76 -55 -116t-132 -40t-117 31t-40 72q0 42 39 60h50q-5 -25 -5 -43q0 -37 19 -61t56 -24q44 0 68.5 29t24.5 81q0 44 -24 70t-65 26q-8 0 -40 -4z" />
    <glyph glyph-name="uni2154" unicode="&#x2154;" horiz-adv-x="996" 
d="M135 372h102q47 0 66 11.5t50 59.5h28l-40 -147h-326l3 24q173 148 219 204t46 115q0 36 -21 56t-59 20q-57 0 -110 -57l-20 18q60 110 171 110q64 0 100.5 -32.5t36.5 -87.5q0 -28 -9 -53.5t-21.5 -45t-39 -45t-47.5 -43t-61.5 -51t-67.5 -56.5zM184 0l641 780h68
l-641 -780h-68zM721 256q62 21 98.5 46.5t36.5 65.5q0 27 -17 43t-48 16q-57 0 -109 -57l-20 20q56 100 165 100q57 0 89.5 -27t32.5 -73q0 -83 -118 -114q55 -7 86.5 -41t31.5 -85q0 -76 -55 -116t-132 -40t-117 31t-40 72q0 42 39 60h50q-5 -25 -5 -43q0 -37 19 -61
t56 -24q44 0 68.5 29t24.5 81q0 44 -24 70t-65 26q-8 0 -40 -4z" />
    <glyph glyph-name="uni2155" unicode="&#x2155;" horiz-adv-x="995" 
d="M283 786h25l-48 -394q-2 -18 -2 -26q0 -20 25 -26.5t82 -9.5l-3 -34h-321l4 34q35 2 51.5 3.5t36.5 6.5t28.5 14.5t10.5 24.5l35 286h-122l3 30l46 8q52 9 85 27.5t64 55.5zM178 0l641 780h68l-641 -780h-68zM945 153q0 -73 -50 -116t-128 -43q-79 0 -118 31t-39 74
q0 41 38 59h51q-6 -22 -6 -43q0 -37 19.5 -61t59.5 -24q42 0 67 25t25 68q0 123 -198 123l57 238h143q30 0 44 5.5t27 24.5h34l-41 -113h-189l-20 -83q98 -1 161 -42t63 -123z" />
    <glyph glyph-name="uni2156" unicode="&#x2156;" horiz-adv-x="1001" 
d="M135 372h102q47 0 66 11.5t50 59.5h28l-40 -147h-326l3 24q173 148 219 204t46 115q0 36 -21 56t-59 20q-57 0 -110 -57l-20 18q60 110 171 110q64 0 100.5 -32.5t36.5 -87.5q0 -28 -9 -53.5t-21.5 -45t-39 -45t-47.5 -43t-61.5 -51t-67.5 -56.5zM184 0l641 780h68
l-641 -780h-68zM951 153q0 -73 -50 -116t-128 -43q-79 0 -118 31t-39 74q0 41 38 59h51q-6 -22 -6 -43q0 -37 19.5 -61t59.5 -24q42 0 67 25t25 68q0 123 -198 123l57 238h143q30 0 44 5.5t27 24.5h34l-41 -113h-189l-20 -83q98 -1 161 -42t63 -123z" />
    <glyph glyph-name="uni2157" unicode="&#x2157;" horiz-adv-x="996" 
d="M159 552q62 21 98.5 46.5t36.5 65.5q0 27 -17 43t-48 16q-57 0 -109 -57l-20 20q56 100 165 100q57 0 89.5 -27t32.5 -73q0 -83 -118 -114q55 -7 86.5 -41t31.5 -85q0 -76 -55 -116t-132 -40t-117 31t-40 72q0 42 39 60h50q-5 -25 -5 -43q0 -37 19 -61t56 -24
q44 0 68.5 29t24.5 81q0 44 -24 70t-65 26q-8 0 -40 -4zM179 0l641 780h68l-641 -780h-68zM946 153q0 -73 -50 -116t-128 -43q-79 0 -118 31t-39 74q0 41 38 59h51q-6 -22 -6 -43q0 -37 19.5 -61t59.5 -24q42 0 67 25t25 68q0 123 -198 123l57 238h143q30 0 44 5.5t27 24.5
h34l-41 -113h-189l-20 -83q98 -1 161 -42t63 -123z" />
    <glyph glyph-name="uni2158" unicode="&#x2158;" horiz-adv-x="1016" 
d="M99 463h174l27 214zM339 296h-87l16 124h-235l4 33l303 327h59l-39 -317h80l-5 -43h-80zM199 0l641 780h68l-641 -780h-68zM966 153q0 -73 -50 -116t-128 -43q-79 0 -118 31t-39 74q0 41 38 59h51q-6 -22 -6 -43q0 -37 19.5 -61t59.5 -24q42 0 67 25t25 68
q0 123 -198 123l57 238h143q30 0 44 5.5t27 24.5h34l-41 -113h-189l-20 -83q98 -1 161 -42t63 -123z" />
    <glyph glyph-name="uni2159" unicode="&#x2159;" horiz-adv-x="990" 
d="M953 463q-89 -24 -152.5 -72t-90.5 -117q44 35 103 35q66 0 103.5 -39.5t37.5 -103.5q0 -79 -52 -125.5t-129 -46.5q-82 0 -128 51t-46 131q0 116 93 204t255 110zM283 786h25l-48 -394q-2 -18 -2 -26q0 -20 25 -26.5t82 -9.5l-3 -34h-321l4 34q35 2 51.5 3.5t36.5 6.5
t28.5 14.5t10.5 24.5l35 286h-122l3 30l46 8q52 9 85 27.5t64 55.5zM178 0l641 780h68l-641 -780h-68zM768 262q-34 0 -69 -23q-8 -34 -8 -67q0 -62 21 -100.5t64 -38.5q44 0 66.5 32.5t22.5 88.5q0 50 -25 79t-72 29z" />
    <glyph glyph-name="uni215A" unicode="&#x215a;" horiz-adv-x="976" 
d="M939 463q-89 -24 -152.5 -72t-90.5 -117q44 35 103 35q66 0 103.5 -39.5t37.5 -103.5q0 -79 -52 -125.5t-129 -46.5q-82 0 -128 51t-46 131q0 116 93 204t255 110zM379 449q0 -73 -50 -116t-128 -43q-79 0 -118 31t-39 74q0 41 38 59h51q-6 -22 -6 -43q0 -37 19.5 -61
t59.5 -24q42 0 67 25t25 68q0 123 -198 123l57 238h143q30 0 44 5.5t27 24.5h34l-41 -113h-189l-20 -83q98 -1 161 -42t63 -123zM164 0l641 780h68l-641 -780h-68zM754 262q-34 0 -69 -23q-8 -34 -8 -67q0 -62 21 -100.5t64 -38.5q44 0 66.5 32.5t22.5 88.5q0 50 -25 79
t-72 29z" />
    <glyph glyph-name="uni215B" unicode="&#x215b;" horiz-adv-x="1013" 
d="M283 786h25l-48 -394q-2 -18 -2 -26q0 -20 25 -26.5t82 -9.5l-3 -34h-321l4 34q35 2 51.5 3.5t36.5 6.5t28.5 14.5t10.5 24.5l35 286h-122l3 30l46 8q52 9 85 27.5t64 55.5zM178 0l641 780h68l-641 -780h-68zM982 377q0 -44 -31 -72t-80 -39l15 -9q83 -45 83 -119
q0 -63 -46.5 -103.5t-128.5 -40.5q-78 0 -126 35.5t-48 90.5q0 48 33.5 78.5t86.5 41.5l-7 4q-62 34 -62 108q0 61 42.5 99.5t115.5 38.5q71 0 112 -31.5t41 -81.5zM828 190l-63 36q-66 -32 -66 -101q0 -42 26 -67.5t71 -25.5q40 0 65 22t25 60q0 43 -58 76zM800 307l47 -27
q60 33 60 97q0 33 -20.5 54t-58.5 21q-36 0 -56 -20t-20 -53q0 -45 48 -72z" />
    <glyph glyph-name="uni215C" unicode="&#x215c;" horiz-adv-x="1014" 
d="M159 552q62 21 98.5 46.5t36.5 65.5q0 27 -17 43t-48 16q-57 0 -109 -57l-20 20q56 100 165 100q57 0 89.5 -27t32.5 -73q0 -83 -118 -114q55 -7 86.5 -41t31.5 -85q0 -76 -55 -116t-132 -40t-117 31t-40 72q0 42 39 60h50q-5 -25 -5 -43q0 -37 19 -61t56 -24
q44 0 68.5 29t24.5 81q0 44 -24 70t-65 26q-8 0 -40 -4zM179 0l641 780h68l-641 -780h-68zM983 377q0 -44 -31 -72t-80 -39l15 -9q83 -45 83 -119q0 -63 -46.5 -103.5t-128.5 -40.5q-78 0 -126 35.5t-48 90.5q0 48 33.5 78.5t86.5 41.5l-7 4q-62 34 -62 108q0 61 42.5 99.5
t115.5 38.5q71 0 112 -31.5t41 -81.5zM829 190l-63 36q-66 -32 -66 -101q0 -42 26 -67.5t71 -25.5q40 0 65 22t25 60q0 43 -58 76zM801 307l47 -27q60 33 60 97q0 33 -20.5 54t-58.5 21q-36 0 -56 -20t-20 -53q0 -45 48 -72z" />
    <glyph glyph-name="uni215D" unicode="&#x215d;" horiz-adv-x="999" 
d="M379 449q0 -73 -50 -116t-128 -43q-79 0 -118 31t-39 74q0 41 38 59h51q-6 -22 -6 -43q0 -37 19.5 -61t59.5 -24q42 0 67 25t25 68q0 123 -198 123l57 238h143q30 0 44 5.5t27 24.5h34l-41 -113h-189l-20 -83q98 -1 161 -42t63 -123zM164 0l641 780h68l-641 -780h-68z
M968 377q0 -44 -31 -72t-80 -39l15 -9q83 -45 83 -119q0 -63 -46.5 -103.5t-128.5 -40.5q-78 0 -126 35.5t-48 90.5q0 48 33.5 78.5t86.5 41.5l-7 4q-62 34 -62 108q0 61 42.5 99.5t115.5 38.5q71 0 112 -31.5t41 -81.5zM814 190l-63 36q-66 -32 -66 -101q0 -42 26 -67.5
t71 -25.5q40 0 65 22t25 60q0 43 -58 76zM786 307l47 -27q60 33 60 97q0 33 -20.5 54t-58.5 21q-36 0 -56 -20t-20 -53q0 -45 48 -72z" />
    <glyph glyph-name="uni215E" unicode="&#x215e;" horiz-adv-x="885" 
d="M356 692h-173q-29 0 -47.5 -16t-39.5 -50h-31l56 154h316l-2 -24l-255 -460h-83zM50 0l641 780h68l-641 -780h-68zM854 377q0 -44 -31 -72t-80 -39l15 -9q83 -45 83 -119q0 -63 -46.5 -103.5t-128.5 -40.5q-78 0 -126 35.5t-48 90.5q0 48 33.5 78.5t86.5 41.5l-7 4
q-62 34 -62 108q0 61 42.5 99.5t115.5 38.5q71 0 112 -31.5t41 -81.5zM700 190l-63 36q-66 -32 -66 -101q0 -42 26 -67.5t71 -25.5q40 0 65 22t25 60q0 43 -58 76zM672 307l47 -27q60 33 60 97q0 33 -20.5 54t-58.5 21q-36 0 -56 -20t-20 -53q0 -45 48 -72z" />
    <glyph glyph-name="uni215F" unicode="&#x215f;" horiz-adv-x="646" 
d="M283 786h25l-48 -394q-2 -18 -2 -26q0 -20 25 -26.5t82 -9.5l-3 -34h-321l4 34q35 2 51.5 3.5t36.5 6.5t28.5 14.5t10.5 24.5l35 286h-122l3 30l46 8q52 9 85 27.5t64 55.5zM178 0l641 780h68l-641 -780h-68z" />
    <glyph glyph-name="arrowleft" unicode="&#x2190;" horiz-adv-x="860" 
d="M452 101l-411 283v12l411 283v-52l-248 -216h627v-42h-627l248 -216v-52z" />
    <glyph glyph-name="arrowup" unicode="&#x2191;" horiz-adv-x="860" 
d="M141 379l283 411h12l283 -411h-52l-216 248v-627h-42v627l-216 -248h-52z" />
    <glyph glyph-name="arrowright" unicode="&#x2192;" horiz-adv-x="860" 
d="M831 384l-411 -283v52l248 216h-627v42h627l-248 216v52l411 -283v-12z" />
    <glyph glyph-name="arrowdown" unicode="&#x2193;" horiz-adv-x="860" 
d="M424 -10l-283 411h52l216 -248v627h42v-627l216 248h52l-283 -411h-12z" />
    <glyph glyph-name="uni2196" unicode="&#x2196;" horiz-adv-x="860" 
d="M119 290l-90 491l8 9l491 -91l-37 -37l-328 23l444 -443l-30 -30l-443 443l22 -328z" />
    <glyph glyph-name="uni2197" unicode="&#x2197;" horiz-adv-x="860" 
d="M831 781l-90 -491l-37 37l22 328l-443 -443l-30 30l444 443l-328 -23l-37 37l491 91z" />
    <glyph glyph-name="uni2198" unicode="&#x2198;" horiz-adv-x="860" 
d="M741 490l90 -491l-8 -9l-491 91l37 37l328 -23l-444 443l30 30l443 -443l-22 328z" />
    <glyph glyph-name="uni2199" unicode="&#x2199;" horiz-adv-x="860" 
d="M29 -1l90 491l37 -37l-22 -328l443 443l30 -30l-444 -443l328 23l37 -37l-491 -91z" />
    <glyph glyph-name="partialdiff" unicode="&#x2202;" horiz-adv-x="636" 
d="M291 42q58 0 101.5 44t63 105.5t19.5 128.5q0 91 -32.5 146.5t-97.5 55.5q-58 0 -101.5 -44t-63.5 -105.5t-20 -128.5q0 -91 33 -146.5t98 -55.5zM474 516q-13 97 -75.5 155t-157.5 58q-61 0 -117 -29l-14 30q68 60 185 60q291 0 291 -395q0 -180 -83 -292.5t-215 -112.5
q-104 0 -171 68t-67 186q0 139 83 234.5t210 95.5q89 0 131 -58z" />
    <glyph glyph-name="increment" unicode="&#x2206;" horiz-adv-x="860" 
d="M34 0l4 37l444 743h44l262 -743l-4 -37h-750zM654 55l-203 570l-336 -570h539z" />
    <glyph glyph-name="product" unicode="&#x220f;" horiz-adv-x="959" 
d="M751 725h-415l-71 -583q-3 -22 -3 -40q0 -34 24.5 -45t81.5 -14l-5 -43h-341l5 43q62 3 90.5 18.5t34.5 62.5l64 524q2 16 2 24q0 37 -24.5 50t-81.5 15l5 43h865l-5 -43q-62 -2 -90.5 -18t-34.5 -63l-63 -514q-3 -22 -3 -40q0 -34 24.5 -45t81.5 -14l-5 -43h-341l5 43
q62 3 90.5 18.5t34.5 62.5z" />
    <glyph glyph-name="summation" unicode="&#x2211;" horiz-adv-x="660" 
d="M553 0h-548l8 70l348 320l-258 310l10 80h541l-20 -186h-33q-23 75 -52.5 103t-95.5 28h-234l246 -290l-5 -41l-338 -299h256q76 0 106.5 17t85.5 93h37z" />
    <glyph glyph-name="minus" unicode="&#x2212;" 
d="M609 258h-540l8 64h540z" />
    <glyph glyph-name="radical" unicode="&#x221a;" horiz-adv-x="775" 
d="M343 120l454 644h62l-538 -764h-70l-52 466h-106l5 40l203 35z" />
    <glyph glyph-name="infinity" unicode="&#x221e;" horiz-adv-x="880" 
d="M219 420q-47 0 -76.5 -34.5t-29.5 -85.5q0 -46 28.5 -71t78.5 -25q97 0 182 101l-87 73q-50 42 -96 42zM504 214l-73 62q-44 -60 -100.5 -93.5t-115.5 -33.5q-74 0 -121.5 37.5t-47.5 113.5q0 95 57 149t141 54q43 0 76 -16t73 -50l73 -62q44 60 100.5 93.5t115.5 33.5
q74 0 121.5 -37.5t47.5 -113.5q0 -95 -57 -149t-141 -54q-43 0 -76 16t-73 50zM678 231q47 0 76.5 34.5t29.5 85.5q0 46 -28.5 71t-78.5 25q-97 0 -182 -101l87 -73q50 -42 96 -42z" />
    <glyph glyph-name="integral" unicode="&#x222b;" horiz-adv-x="628" 
d="M160 -11l125 564q53 237 243 237q60 0 95.5 -28.5t35.5 -66.5q0 -47 -38 -65h-74q9 20 9 49q0 59 -56 59q-38 0 -61 -35t-41 -114l-125 -564q-53 -237 -243 -237q-60 0 -95.5 28.5t-35.5 66.5q0 47 38 65h74q-9 -20 -9 -49q0 -59 56 -59q38 0 61 35t41 114z" />
    <glyph glyph-name="approxequal" unicode="&#x2248;" 
d="M104 326l-24 50q6 7 17 17t51.5 27t88.5 17q59 0 133 -35.5t124 -35.5q36 0 66 12t42 24l13 12l23 -50q-6 -7 -17 -17t-51.5 -27t-88.5 -17q-60 0 -133 35.5t-123 35.5q-36 0 -66.5 -12t-42.5 -24zM84 166l-24 50q6 7 17.5 17t52 27t88.5 17q60 0 133 -35.5t123 -35.5
q36 0 66 12t42 24l13 12l24 -50q-6 -7 -17.5 -17t-52 -27t-88.5 -17q-59 0 -132 35.5t-124 35.5q-36 0 -66.5 -12t-42.5 -24z" />
    <glyph glyph-name="notequal" unicode="&#x2260;" 
d="M143 83l75 95h-158l7 64h201l76 96h-265l8 64h307l76 95h74l-76 -95h159l-8 -64h-201l-76 -96h265l-7 -64h-308l-75 -95h-74z" />
    <glyph glyph-name="equivalence" unicode="&#x2261;" 
d="M602 120h-540l8 61h540zM661 599h-540l8 61h540zM632 360h-540l7 61h540z" />
    <glyph glyph-name="lessequal" unicode="&#x2264;" 
d="M575 17l-519 168l8 63l520 -168zM134 359l138 -41l328 -101l-8 -68l-519 168l10 84l561 168l-9 -68l-353 -101z" />
    <glyph glyph-name="greaterequal" unicode="&#x2265;" 
d="M434 318l148 41l-138 41l-329 101l9 68l519 -168l-10 -84l-561 -168l8 68zM617 184l-561 -168l8 64l560 168z" />
    <glyph glyph-name="squaremultiply" unicode="&#x22a0;" horiz-adv-x="976" 
d="M98 0v780h780v-780h-780zM811 717h-646v-654h646v654zM216 165l225 225l-225 225l47 47l225 -225l224 225l48 -47l-225 -225l225 -225l-48 -47l-224 225l-225 -225z" />
    <glyph glyph-name="house" unicode="&#x2302;" horiz-adv-x="850" 
d="M780 0h-710v450l355 340l355 -340v-450z" />
    <glyph glyph-name="blacksquare" unicode="&#x25a0;" horiz-adv-x="976" 
d="M878 780v-780h-780v780h780z" />
    <glyph glyph-name="blacksquare" unicode="&#xe740;" horiz-adv-x="976" 
d="M878 780v-780h-780v780h780z" />
    <glyph glyph-name="whitesquare" unicode="&#x25a1;" horiz-adv-x="976" 
d="M98 0v780h780v-780h-780zM811 717h-646v-654h646v654z" />
    <glyph glyph-name="blacksmallsquare" unicode="&#x25aa;" horiz-adv-x="726" 
d="M628 530v-530h-530v530h530z" />
    <glyph glyph-name="whitesmallsquare" unicode="&#x25ab;" horiz-adv-x="726" 
d="M98 0v530h530v-530h-530zM561 467h-396v-404h396v404z" />
    <glyph glyph-name="triagup" unicode="&#x25b2;" horiz-adv-x="800" 
d="M790 0h-780l390 676z" />
    <glyph glyph-name="triagrt" unicode="&#x25ba;" horiz-adv-x="800" 
d="M34 0v780l676 -390z" />
    <glyph glyph-name="triagdn" unicode="&#x25bc;" horiz-adv-x="800" 
d="M10 780h780l-390 -676z" />
    <glyph glyph-name="triaglf" unicode="&#x25c4;" horiz-adv-x="800" 
d="M710 780v-780l-676 390z" />
    <glyph glyph-name="lozenge" unicode="&#x25ca;" horiz-adv-x="900" 
d="M429 78l327 316l-243 308l-327 -316zM422 -10l-319 400l417 400l319 -400z" />
    <glyph glyph-name="whitecircle" unicode="&#x25cb;" horiz-adv-x="976" 
d="M88 390q0 166 117 283t283 117t283 -117t117 -283t-117 -283t-283 -117t-283 117t-117 283zM815 390q0 138 -95.5 235.5t-231.5 97.5q-137 0 -232 -97.5t-95 -235.5t95.5 -235.5t231.5 -97.5q137 0 232 97.5t95 235.5z" />
    <glyph glyph-name="whitecircle" unicode="&#x25ef;" horiz-adv-x="976" 
d="M88 390q0 166 117 283t283 117t283 -117t117 -283t-117 -283t-283 -117t-283 117t-117 283zM815 390q0 138 -95.5 235.5t-231.5 97.5q-137 0 -232 -97.5t-95 -235.5t95.5 -235.5t231.5 -97.5q137 0 232 97.5t95 235.5z" />
    <glyph glyph-name="bullseye" unicode="&#x25ce;" horiz-adv-x="960" 
d="M80 390q0 166 117 283t283 117t283 -117t117 -283t-117 -283t-283 -117t-283 117t-117 283zM330 390q0 62 44 106t106 44t106 -44t44 -106t-44 -106t-106 -44t-106 44t-44 106zM157 339q0 -113 79.5 -192.5t192.5 -79.5t193 79.5t80 192.5t-80 193t-193 80t-192.5 -80
t-79.5 -193z" />
    <glyph glyph-name="blackcircle" unicode="&#x25cf;" horiz-adv-x="976" 
d="M88 390q0 166 117 283t283 117t283 -117t117 -283t-117 -283t-283 -117t-283 117t-117 283z" />
    <glyph glyph-name="uni25E2" unicode="&#x25e2;" horiz-adv-x="800" 
d="M26 202l552 552l202 -754z" />
    <glyph glyph-name="uni25E3" unicode="&#x25e3;" horiz-adv-x="800" 
d="M222 754l552 -552l-754 -202z" />
    <glyph glyph-name="uni25E4" unicode="&#x25e4;" horiz-adv-x="800" 
d="M774 578l-552 -552l-202 754z" />
    <glyph glyph-name="uni25E5" unicode="&#x25e5;" horiz-adv-x="800" 
d="M578 26l-552 552l754 202z" />
    <glyph glyph-name="uni2605" unicode="&#x2605;" horiz-adv-x="880" 
d="M440 180l-260 -190l99 307l-260 189h322l99 306l99 -306h322l-260 -189l99 -307z" />
    <glyph glyph-name="ballotboxwithx" unicode="&#x2612;" horiz-adv-x="710" 
d="M90 0v530h530v-530h-530zM550 464h-390v-398h390v398zM180 136l130 129l-130 129l46 46l129 -130l129 130l46 -46l-130 -129l130 -129l-46 -46l-129 130l-129 -130z" />
    <glyph glyph-name="uni263C" unicode="&#x263c;" horiz-adv-x="960" 
d="M880 390l-169 -30l155 -73l-171 15l132 -112l-162 59l98 -141l-141 98l58 -162l-111 130l15 -170l-74 155l-30 -169l-30 169l-74 -155l15 170l-111 -130l58 162l-141 -98l98 141l-162 -59l132 112l-171 -15l155 73l-169 30l169 30l-155 73l171 -15l-132 112l162 -59
l-98 141l141 -98l-58 162l111 -130l-15 170l74 -155l30 169l30 -169l74 155l-15 -170l111 130l-58 -162l141 98l-98 -141l162 59l-132 -112l171 15l-155 -73z" />
    <glyph glyph-name="uni263E" unicode="&#x263e;" horiz-adv-x="960" 
d="M624 728q-134 0 -229 -99t-95 -239t95 -239t229 -99q50 0 96 15q-107 -77 -240 -77q-166 0 -283 117t-117 283t117 283t283 117q131 0 240 -77q-52 15 -96 15z" />
    <glyph glyph-name="spade" unicode="&#x2660;" horiz-adv-x="900" 
d="M451 790q32 -48 97 -116t136 -114q78 -51 121 -103t43 -123q0 -73 -51 -123.5t-125 -50.5q-69 0 -120.5 46t-79.5 115l-3 -1q8 -102 26.5 -174t55.5 -146h-202q37 74 55.5 146t26.5 174l-3 1q-28 -69 -79.5 -115t-120.5 -46q-74 0 -125 50.5t-51 123.5q0 71 43 123
t121 103q71 46 136 114t97 116h2z" />
    <glyph glyph-name="club" unicode="&#x2663;" horiz-adv-x="900" 
d="M349 0q37 74 55.5 146t26.5 174l-3 1q-28 -69 -79.5 -115t-120.5 -46q-74 0 -125 50.5t-51 123.5q0 79 48.5 129.5t125.5 50.5q40 0 84 -23l2 2q-38 57 -38 117q0 75 50.5 127.5t125.5 52.5t125.5 -52.5t50.5 -127.5q0 -60 -38 -117l2 -2q44 23 84 23q77 0 125.5 -50.5
t48.5 -129.5q0 -73 -51 -123.5t-125 -50.5q-69 0 -120.5 46t-79.5 115l-3 -1q8 -102 26.5 -174t55.5 -146h-202z" />
    <glyph glyph-name="heart" unicode="&#x2665;" horiz-adv-x="900" 
d="M451 -10h-2q-28 43 -94 126.5t-139 166.5q-164 185 -164 301q0 90 52 148t139 58q85 0 132.5 -42.5t72.5 -114.5h4q25 72 72.5 114.5t132.5 42.5q87 0 139 -58t52 -148q0 -116 -164 -301q-73 -83 -139 -166.5t-94 -126.5z" />
    <glyph glyph-name="diamond" unicode="&#x2666;" horiz-adv-x="900" 
d="M817 390q-106 -83 -202.5 -188.5t-163.5 -211.5h-2q-67 106 -163.5 211.5t-202.5 188.5q106 83 202.5 188.5t163.5 211.5h2q67 -106 163.5 -211.5t202.5 -188.5z" />
    <glyph glyph-name="musicflatsign" unicode="&#x266d;" horiz-adv-x="473" 
d="M442 355q0 -93 -56.5 -176.5t-141.5 -139t-185 -83.5v864h58v-366q21 38 64.5 63.5t87.5 25.5q173 0 173 -188zM117 339v-293q41 15 80 38.5t81.5 59.5t68.5 89t26 113q0 129 -110 129q-56 0 -98.5 -43t-47.5 -93z" />
    <glyph glyph-name="musicsharpsign" unicode="&#x266f;" horiz-adv-x="458" 
d="M352 880v-205l90 73v-97l-90 -73v-180l90 73v-97l-90 -73v-301h-58v254l-129 -103v-251h-58v204l-91 -72v97l91 73v179l-91 -72v97l91 73v301h58v-255l129 103v252h58zM165 428v-180l129 103v180z" />
    <glyph glyph-name="uni267B" unicode="&#x267b;" horiz-adv-x="960" 
d="M863 266l1 -2l-96 -167q-15 -22 -21.5 -30t-24 -17t-42.5 -9h-57v-49l-113 136l113 135v-49h145q26 0 50 13t34 26zM186 122h-2l-96 168q-11 21 -15 32t-3 30.5t14 40.5l28 49l-42 24l174 31l59 -166l-41 24q-70 -120 -72 -125q-13 -23 -14 -50t4 -42zM404 779v1h193
q24 -1 36 -2.5t28 -12.5t28 -32l28 -49l43 24l-61 -166l-173 31l41 24l-72 125q-13 23 -36 37.5t-39 16.5zM200 598l67 119q10 17 34 31q46 24 97 10t68 -45l-116 -201zM446 41h-135q-22 0 -44 13q-43 25 -57.5 79.5t4.5 80.5h232v-173zM806 527l69 -117q10 -18 10 -44
q1 -48 -38 -87t-74 -39l-116 201z" />
    <glyph glyph-name="uni267C" unicode="&#x267c;" horiz-adv-x="960" 
d="M880 389q0 -166 -116.5 -282.5t-282.5 -116.5q-167 0 -284 116.5t-117 282.5q0 167 117 284t284 117q166 0 282.5 -117t116.5 -284zM313 645l-52 -92l116 -67l90 156q-13 24 -52.5 34.5t-75.5 -7.5q-18 -11 -26 -24zM415 694v-1q48 -5 71 -44l56 -97l-32 -19l134 -24
l47 129l-33 -19l-22 38q-14 24 -29.5 30.5t-41.5 6.5h-150zM343 121h105v134h-180q-15 -20 -3.5 -62.5t44.5 -61.5q17 -10 34 -10zM249 184h1q-20 44 3 84l56 97l32 -19l-46 129l-135 -24l33 -19l-22 -38q-10 -16 -11 -31.5t2 -23.5t12 -25zM784 407l-53 91l-116 -67
l90 -156q27 0 57.5 30t29.5 68q0 20 -8 34zM776 294l-1 1q-3 -4 -9 -11t-25.5 -18t-39.5 -11h-112v38l-88 -105l88 -105v38h44q28 0 41.5 10.5t26.5 32.5z" />
    <glyph glyph-name="uni267D" unicode="&#x267d;" horiz-adv-x="960" 
d="M880 389q0 -166 -116.5 -282.5t-282.5 -116.5q-167 0 -284 116.5t-117 282.5q0 167 117 284t284 117q166 0 282.5 -117t116.5 -284zM860 389q0 158 -111 269.5t-268 111.5q-158 0 -269.5 -111.5t-111.5 -269.5q0 -157 111.5 -268t269.5 -111q157 0 268 111t111 268z
M261 553l52 92q8 13 26 24q36 18 75.5 7.5t52.5 -34.5l-90 -156zM415 693v1h150q26 0 41.5 -6.5t29.5 -30.5l22 -38l33 19l-47 -129l-134 24l32 19l-56 97q-10 17 -28 28t-30 13zM448 121h-105q-17 0 -34 10q-33 19 -44.5 61.5t3.5 62.5h180v-134zM250 184h-1l-75 130
q-9 17 -12 25t-2 23.5t11 31.5l22 38l-33 19l135 24l46 -129l-32 19l-56 -97q-10 -18 -11 -39t4 -33zM731 498l53 -91q8 -14 8 -34q1 -38 -29.5 -68t-57.5 -30l-90 156zM775 295l1 -1l-75 -130q-9 -15 -15 -22.5t-20 -14t-33 -6.5h-44v-38l-88 105l88 105v-38h112
q20 0 38.5 10t26.5 20z" />
    <glyph glyph-name="mediumwhitecircle" unicode="&#x26aa;" horiz-adv-x="710" 
d="M80 265q0 114 80.5 194.5t194.5 80.5t194.5 -80.5t80.5 -194.5t-80.5 -194.5t-194.5 -80.5t-194.5 80.5t-80.5 194.5zM561 265q0 86 -60.5 147t-145.5 61t-145.5 -61t-60.5 -147t60.5 -147t145.5 -61t145.5 61t60.5 147z" />
    <glyph glyph-name="mediumblackcircle" unicode="&#x26ab;" horiz-adv-x="710" 
d="M80 265q0 114 80.5 194.5t194.5 80.5t194.5 -80.5t80.5 -194.5t-80.5 -194.5t-194.5 -80.5t-194.5 80.5t-80.5 194.5z" />
    <glyph glyph-name="anglebracketleft" unicode="&#x3008;" horiz-adv-x="373" 
d="M217 -121l-121 476l235 476h67l-234 -480l117 -472h-64z" />
    <glyph glyph-name="anglebracketright" unicode="&#x3009;" horiz-adv-x="373" 
d="M201 831l121 -476l-235 -476h-67l234 480l-117 472h64z" />
    <glyph glyph-name="ytilde.school" unicode="&#xe160;" horiz-adv-x="631" 
d="M606 530l-114 -477q-39 -164 -112 -233.5t-188 -69.5q-79 0 -130 29.5t-51 86.5q0 46 42 67h49q0 -138 99 -138q73 0 113.5 57t77.5 185l98 340h-4q-42 -105 -88.5 -188t-105 -141t-112.5 -58q-81 0 -81 95q0 50 36.5 187.5t36.5 172.5q0 22 -24 22q-35 0 -90 -78l-33 22
q68 129 173 129q76 0 76 -71q0 -45 -37.5 -184t-37.5 -181q0 -39 24 -39q38 0 96 82t107.5 188t77.5 195h102zM563 745l44 -7q-59 -128 -146 -128q-34 0 -76.5 30.5t-62.5 30.5q-24 0 -40 -13t-38 -46l-44 7q59 128 146 128q34 0 76.5 -30.5t62.5 -30.5q24 0 40 13t38 46z
" />
    <glyph glyph-name="g.school" unicode="&#xe161;" horiz-adv-x="589" 
d="M348 129q-90 -130 -191 -130q-58 0 -87.5 41.5t-29.5 110.5q0 154 99.5 271.5t221.5 117.5q81 0 108 -55l65 63h35l-33 -112l-73 -397q-53 -289 -294 -289q-81 0 -136.5 30t-55.5 86q0 46 42 67h49q0 -67 29 -102.5t81 -35.5q74 0 118.5 61t72.5 181l51 222h-4
q-2 -5 -9.5 -22.5t-11 -25t-11 -22.5t-16.5 -29.5t-20 -30.5zM190 66q64 0 136 103q43 62 72 139t36 131q-14 51 -73 51q-65 0 -117 -48t-79 -120t-27 -149q0 -107 52 -107z" />
    <glyph glyph-name="gcircumflex.school" unicode="&#xe163;" horiz-adv-x="589" 
d="M348 129q-90 -130 -191 -130q-58 0 -87.5 41.5t-29.5 110.5q0 154 99.5 271.5t221.5 117.5q81 0 108 -55l65 63h35l-33 -112l-73 -397q-53 -289 -294 -289q-81 0 -136.5 30t-55.5 86q0 46 42 67h49q0 -67 29 -102.5t81 -35.5q74 0 118.5 61t72.5 181l51 222h-4
q-2 -5 -9.5 -22.5t-11 -25t-11 -22.5t-16.5 -29.5t-20 -30.5zM190 66q64 0 136 103q43 62 72 139t36 131q-14 51 -73 51q-65 0 -117 -48t-79 -120t-27 -149q0 -107 52 -107zM409 800l121 -208h-45l-123 124l-153 -124h-47l173 208h74z" />
    <glyph glyph-name="gbreve.school" unicode="&#xe166;" horiz-adv-x="589" 
d="M348 129q-90 -130 -191 -130q-58 0 -87.5 41.5t-29.5 110.5q0 154 99.5 271.5t221.5 117.5q81 0 108 -55l65 63h35l-33 -112l-73 -397q-53 -289 -294 -289q-81 0 -136.5 30t-55.5 86q0 46 42 67h49q0 -67 29 -102.5t81 -35.5q74 0 118.5 61t72.5 181l51 222h-4
q-2 -5 -9.5 -22.5t-11 -25t-11 -22.5t-16.5 -29.5t-20 -30.5zM190 66q64 0 136 103q43 62 72 139t36 131q-14 51 -73 51q-65 0 -117 -48t-79 -120t-27 -149q0 -107 52 -107zM354 602q-156 0 -156 152q0 22 3 46h43q0 -130 118 -130q121 0 151 130h44q-25 -198 -203 -198z
" />
    <glyph glyph-name="gdotaccent.school" unicode="&#xe167;" horiz-adv-x="589" 
d="M348 129q-90 -130 -191 -130q-58 0 -87.5 41.5t-29.5 110.5q0 154 99.5 271.5t221.5 117.5q81 0 108 -55l65 63h35l-33 -112l-73 -397q-53 -289 -294 -289q-81 0 -136.5 30t-55.5 86q0 46 42 67h49q0 -67 29 -102.5t81 -35.5q74 0 118.5 61t72.5 181l51 222h-4
q-2 -5 -9.5 -22.5t-11 -25t-11 -22.5t-16.5 -29.5t-20 -30.5zM190 66q64 0 136 103q43 62 72 139t36 131q-14 51 -73 51q-65 0 -117 -48t-79 -120t-27 -149q0 -107 52 -107zM357 626q-28 0 -47 19t-19 47q0 31 21.5 52.5t51.5 21.5q28 0 47 -19t19 -47q0 -31 -21.5 -52.5
t-51.5 -21.5z" />
    <glyph glyph-name="gcommaaccent.school" unicode="&#xe168;" horiz-adv-x="589" 
d="M348 129q-90 -130 -191 -130q-58 0 -87.5 41.5t-29.5 110.5q0 154 99.5 271.5t221.5 117.5q81 0 108 -55l65 63h35l-33 -112l-73 -397q-53 -289 -294 -289q-81 0 -136.5 30t-55.5 86q0 46 42 67h49q0 -67 29 -102.5t81 -35.5q74 0 118.5 61t72.5 181l51 222h-4
q-2 -5 -9.5 -22.5t-11 -25t-11 -22.5t-16.5 -29.5t-20 -30.5zM190 66q64 0 136 103q43 62 72 139t36 131q-14 51 -73 51q-65 0 -117 -48t-79 -120t-27 -149q0 -107 52 -107zM348 715h39q48 -11 48 -56q0 -26 -18 -43t-49 -17q-37 0 -58.5 24.5t-21.5 65.5q0 50 36.5 79.5
t108.5 31.5l-6 -41q-79 -8 -79 -44z" />
    <glyph glyph-name="y.school" unicode="&#xe16b;" horiz-adv-x="631" 
d="M606 530l-114 -477q-39 -164 -112 -233.5t-188 -69.5q-79 0 -130 29.5t-51 86.5q0 46 42 67h49q0 -138 99 -138q73 0 113.5 57t77.5 185l98 340h-4q-42 -105 -88.5 -188t-105 -141t-112.5 -58q-81 0 -81 95q0 50 36.5 187.5t36.5 172.5q0 22 -24 22q-35 0 -90 -78l-33 22
q68 129 173 129q76 0 76 -71q0 -45 -37.5 -184t-37.5 -181q0 -39 24 -39q38 0 96 82t107.5 188t77.5 195h102z" />
    <glyph glyph-name="ygrave.school" unicode="&#xe16c;" horiz-adv-x="631" 
d="M606 530l-114 -477q-39 -164 -112 -233.5t-188 -69.5q-79 0 -130 29.5t-51 86.5q0 46 42 67h49q0 -138 99 -138q73 0 113.5 57t77.5 185l98 340h-4q-42 -105 -88.5 -188t-105 -141t-112.5 -58q-81 0 -81 95q0 50 36.5 187.5t36.5 172.5q0 22 -24 22q-35 0 -90 -78l-33 22
q68 129 173 129q76 0 76 -71q0 -45 -37.5 -184t-37.5 -181q0 -39 24 -39q38 0 96 82t107.5 188t77.5 195h102zM210 800h132l78 -208h-45z" />
    <glyph glyph-name="yacute.school" unicode="&#xe16d;" horiz-adv-x="631" 
d="M606 530l-114 -477q-39 -164 -112 -233.5t-188 -69.5q-79 0 -130 29.5t-51 86.5q0 46 42 67h49q0 -138 99 -138q73 0 113.5 57t77.5 185l98 340h-4q-42 -105 -88.5 -188t-105 -141t-112.5 -58q-81 0 -81 95q0 50 36.5 187.5t36.5 172.5q0 22 -24 22q-35 0 -90 -78l-33 22
q68 129 173 129q76 0 76 -71q0 -45 -37.5 -184t-37.5 -181q0 -39 24 -39q38 0 96 82t107.5 188t77.5 195h102zM489 800h146l-227 -208h-45z" />
    <glyph glyph-name="ycircumflex.school" unicode="&#xe16e;" horiz-adv-x="631" 
d="M606 530l-114 -477q-39 -164 -112 -233.5t-188 -69.5q-79 0 -130 29.5t-51 86.5q0 46 42 67h49q0 -138 99 -138q73 0 113.5 57t77.5 185l98 340h-4q-42 -105 -88.5 -188t-105 -141t-112.5 -58q-81 0 -81 95q0 50 36.5 187.5t36.5 172.5q0 22 -24 22q-35 0 -90 -78l-33 22
q68 129 173 129q76 0 76 -71q0 -45 -37.5 -184t-37.5 -181q0 -39 24 -39q38 0 96 82t107.5 188t77.5 195h102zM454 800l121 -208h-45l-123 124l-153 -124h-47l173 208h74z" />
    <glyph glyph-name="ydieresis.school" unicode="&#xe16f;" horiz-adv-x="631" 
d="M606 530l-114 -477q-39 -164 -112 -233.5t-188 -69.5q-79 0 -130 29.5t-51 86.5q0 46 42 67h49q0 -138 99 -138q73 0 113.5 57t77.5 185l98 340h-4q-42 -105 -88.5 -188t-105 -141t-112.5 -58q-81 0 -81 95q0 50 36.5 187.5t36.5 172.5q0 22 -24 22q-35 0 -90 -78l-33 22
q68 129 173 129q76 0 76 -71q0 -45 -37.5 -184t-37.5 -181q0 -39 24 -39q38 0 96 82t107.5 188t77.5 195h102zM303 626q-28 0 -47 19t-19 47q0 31 21.5 52.5t51.5 21.5q28 0 47 -19t19 -47q0 -31 -21.5 -52.5t-51.5 -21.5zM503 626q-28 0 -47 19t-19 47q0 31 21.5 52.5
t51.5 21.5q28 0 47 -19t19 -47q0 -31 -21.5 -52.5t-51.5 -21.5z" />
    <glyph glyph-name="ymacron.school" unicode="&#xe171;" horiz-adv-x="631" 
d="M606 530l-114 -477q-39 -164 -112 -233.5t-188 -69.5q-79 0 -130 29.5t-51 86.5q0 46 42 67h49q0 -138 99 -138q73 0 113.5 57t77.5 185l98 340h-4q-42 -105 -88.5 -188t-105 -141t-112.5 -58q-81 0 -81 95q0 50 36.5 187.5t36.5 172.5q0 22 -24 22q-35 0 -90 -78l-33 22
q68 129 173 129q76 0 76 -71q0 -45 -37.5 -184t-37.5 -181q0 -39 24 -39q38 0 96 82t107.5 188t77.5 195h102zM265 644l8 64h272l-8 -64h-272z" />
    <glyph glyph-name="cordinal" unicode="&#xe181;" horiz-adv-x="342" 
d="M249 694q-47 0 -76.5 -60.5t-29.5 -130.5q0 -105 68 -105q50 0 105 67l25 -18q-23 -43 -63.5 -72.5t-89.5 -29.5q-64 0 -98 38.5t-34 101.5q0 100 62 174t154 74q42 0 66 -18t24 -47q0 -33 -28 -46h-38q-5 72 -47 72z" />
    <glyph glyph-name="p.smcp" unicode="&#xe200;" horiz-adv-x="627" 
d="M252 224l-11 -87q-5 -40 -5 -49q0 -26 23 -35.5t87 -13.5l-5 -39h-313l5 39q49 1 74 15t29 50l40 321q5 45 5 50q0 48 -89 50l5 39h290q110 0 166 -40t56 -115q0 -87 -61.5 -136t-168.5 -49h-127zM288 516l-30 -244h93q75 0 112.5 32t37.5 104q0 54 -31 81t-99 27h-83z
" />
    <glyph glyph-name="p.smcp" unicode="&#xf770;" horiz-adv-x="627" 
d="M252 224l-11 -87q-5 -40 -5 -49q0 -26 23 -35.5t87 -13.5l-5 -39h-313l5 39q49 1 74 15t29 50l40 321q5 45 5 50q0 48 -89 50l5 39h290q110 0 166 -40t56 -115q0 -87 -61.5 -136t-168.5 -49h-127zM288 516l-30 -244h93q75 0 112.5 32t37.5 104q0 54 -31 81t-99 27h-83z
" />
    <glyph glyph-name="a.smcp" unicode="&#xe201;" horiz-adv-x="657" 
d="M451 122l-16 51h-255l-34 -57q-17 -29 -17 -44q0 -17 17.5 -24.5t59.5 -8.5l-5 -39h-211l5 39q41 2 58 30l270 442l-21 58h112l157 -500q8 -26 51 -30l-5 -39h-252l5 39q90 2 90 41q0 10 -9 42zM349 452l-140 -231h211z" />
    <glyph glyph-name="a.smcp" unicode="&#xf761;" horiz-adv-x="657" 
d="M451 122l-16 51h-255l-34 -57q-17 -29 -17 -44q0 -17 17.5 -24.5t59.5 -8.5l-5 -39h-211l5 39q41 2 58 30l270 442l-21 58h112l157 -500q8 -26 51 -30l-5 -39h-252l5 39q90 2 90 41q0 10 -9 42zM349 452l-140 -231h211z" />
    <glyph glyph-name="b.smcp" unicode="&#xe202;" horiz-adv-x="657" 
d="M257 266l-16 -131q-4 -29 -4 -47q0 -40 63 -40h42q63 0 99.5 29t36.5 88q0 51 -32 76t-104 25h-85zM371 516h-83l-25 -202h67q75 0 113 27.5t38 90.5q0 84 -110 84zM97 564h305q89 0 139 -33.5t50 -98.5q0 -63 -47 -98t-126 -42q84 -5 129 -39t45 -90q0 -81 -67 -122
t-172 -41h-325l5 39q49 1 74 15t29 50l40 321q5 45 5 50q0 48 -89 50z" />
    <glyph glyph-name="b.smcp" unicode="&#xf762;" horiz-adv-x="657" 
d="M257 266l-16 -131q-4 -29 -4 -47q0 -40 63 -40h42q63 0 99.5 29t36.5 88q0 51 -32 76t-104 25h-85zM371 516h-83l-25 -202h67q75 0 113 27.5t38 90.5q0 84 -110 84zM97 564h305q89 0 139 -33.5t50 -98.5q0 -63 -47 -98t-126 -42q84 -5 129 -39t45 -90q0 -81 -67 -122
t-172 -41h-325l5 39q49 1 74 15t29 50l40 321q5 45 5 50q0 48 -89 50z" />
    <glyph glyph-name="c.smcp" unicode="&#xe203;" horiz-adv-x="621" 
d="M324 -10q-123 0 -196 68t-73 182q0 140 89.5 237t236.5 97q112 0 200 -59l-15 -126h-34q-28 132 -157 132q-104 0 -157 -80t-53 -204q0 -95 45 -144.5t125 -49.5q123 0 196 142h39l-38 -146q-90 -49 -208 -49z" />
    <glyph glyph-name="c.smcp" unicode="&#xf763;" horiz-adv-x="621" 
d="M324 -10q-123 0 -196 68t-73 182q0 140 89.5 237t236.5 97q112 0 200 -59l-15 -126h-34q-28 132 -157 132q-104 0 -157 -80t-53 -204q0 -95 45 -144.5t125 -49.5q123 0 196 142h39l-38 -146q-90 -49 -208 -49z" />
    <glyph glyph-name="d.smcp" unicode="&#xe204;" horiz-adv-x="693" 
d="M288 516l-47 -381q-4 -29 -4 -47q0 -40 63 -40h26q106 0 164 75t58 204q0 91 -51.5 140t-147.5 49h-61zM28 0l5 39q49 1 74 15t29 50l40 321q5 45 5 50q0 48 -89 50l5 39h256q146 0 225.5 -60.5t79.5 -177.5q0 -146 -90 -236t-240 -90h-300z" />
    <glyph glyph-name="d.smcp" unicode="&#xf764;" horiz-adv-x="693" 
d="M288 516l-47 -381q-4 -29 -4 -47q0 -40 63 -40h26q106 0 164 75t58 204q0 91 -51.5 140t-147.5 49h-61zM28 0l5 39q49 1 74 15t29 50l40 321q5 45 5 50q0 48 -89 50l5 39h256q146 0 225.5 -60.5t79.5 -177.5q0 -146 -90 -236t-240 -90h-300z" />
    <glyph glyph-name="e.smcp" unicode="&#xe205;" horiz-adv-x="641" 
d="M97 564h504l-16 -142h-34q-12 55 -36 74.5t-77 19.5h-150l-25 -202h114q55 0 73 74h35l-26 -196h-34q0 74 -54 74h-114l-16 -131q-4 -29 -4 -47q0 -40 63 -40h85q53 0 84 22.5t77 91.5h37l-48 -162h-507l5 39q49 1 74 15t29 50l40 321q5 45 5 50q0 48 -89 50z" />
    <glyph glyph-name="e.smcp" unicode="&#xf765;" horiz-adv-x="641" 
d="M97 564h504l-16 -142h-34q-12 55 -36 74.5t-77 19.5h-150l-25 -202h114q55 0 73 74h35l-26 -196h-34q0 74 -54 74h-114l-16 -131q-4 -29 -4 -47q0 -40 63 -40h85q53 0 84 22.5t77 91.5h37l-48 -162h-507l5 39q49 1 74 15t29 50l40 321q5 45 5 50q0 48 -89 50z" />
    <glyph glyph-name="f.smcp" unicode="&#xe206;" horiz-adv-x="601" 
d="M97 564h496l-16 -145h-34q-12 56 -36 76.5t-77 20.5h-142l-27 -217h107q55 0 73 74h35l-26 -196h-34q0 74 -54 74h-107l-14 -114q-5 -40 -5 -49q0 -26 23 -35.5t87 -13.5l-6 -39h-312l5 39q49 1 74 15t29 50l40 321q5 45 5 50q0 48 -89 50z" />
    <glyph glyph-name="f.smcp" unicode="&#xf766;" horiz-adv-x="601" 
d="M97 564h496l-16 -145h-34q-12 56 -36 76.5t-77 20.5h-142l-27 -217h107q55 0 73 74h35l-26 -196h-34q0 74 -54 74h-107l-14 -114q-5 -40 -5 -49q0 -26 23 -35.5t87 -13.5l-6 -39h-312l5 39q49 1 74 15t29 50l40 321q5 45 5 50q0 48 -89 50z" />
    <glyph glyph-name="g.smcp" unicode="&#xe207;" horiz-adv-x="673" 
d="M443 74l7 57q5 45 5 50q0 48 -90 50l6 39h282l-4 -39q-47 -1 -68.5 -14.5t-25.5 -50.5l-14 -118q-99 -58 -223 -58q-123 0 -193 67.5t-70 182.5q0 140 89.5 237t236.5 97q112 0 200 -59l-15 -126h-34q-28 132 -157 132q-104 0 -157 -80t-53 -204q0 -95 42.5 -145
t121.5 -50q75 0 114 32z" />
    <glyph glyph-name="g.smcp" unicode="&#xf767;" horiz-adv-x="673" 
d="M443 74l7 57q5 45 5 50q0 48 -90 50l6 39h282l-4 -39q-47 -1 -68.5 -14.5t-25.5 -50.5l-14 -118q-99 -58 -223 -58q-123 0 -193 67.5t-70 182.5q0 140 89.5 237t236.5 97q112 0 200 -59l-15 -126h-34q-28 132 -157 132q-104 0 -157 -80t-53 -204q0 -95 42.5 -145
t121.5 -50q75 0 114 32z" />
    <glyph glyph-name="h.smcp" unicode="&#xe208;" horiz-adv-x="796" 
d="M536 104l20 162h-299l-16 -127q-5 -45 -5 -50q0 -48 89 -50l-5 -39h-292l5 39q49 1 74 15t29 50l40 321q5 45 5 50q0 48 -89 50l5 39h292l-5 -39q-49 -1 -74 -15t-29 -50l-18 -146h299l14 111q5 45 5 50q0 48 -89 50l5 39h292l-5 -39q-49 -1 -74 -15t-29 -50l-40 -321
q-5 -45 -5 -50q0 -48 89 -50l-5 -39h-292l5 39q49 1 74 15t29 50z" />
    <glyph glyph-name="h.smcp" unicode="&#xf768;" horiz-adv-x="796" 
d="M536 104l20 162h-299l-16 -127q-5 -45 -5 -50q0 -48 89 -50l-5 -39h-292l5 39q49 1 74 15t29 50l40 321q5 45 5 50q0 48 -89 50l5 39h292l-5 -39q-49 -1 -74 -15t-29 -50l-18 -146h299l14 111q5 45 5 50q0 48 -89 50l5 39h292l-5 -39q-49 -1 -74 -15t-29 -50l-40 -321
q-5 -45 -5 -50q0 -48 89 -50l-5 -39h-292l5 39q49 1 74 15t29 50z" />
    <glyph glyph-name="i.smcp" unicode="&#xe209;" horiz-adv-x="396" 
d="M136 104l40 321q5 45 5 50q0 48 -89 50l5 39h292l-5 -39q-49 -1 -74 -15t-29 -50l-40 -321q-5 -45 -5 -50q0 -48 89 -50l-5 -39h-292l5 39q49 1 74 15t29 50z" />
    <glyph glyph-name="i.smcp" unicode="&#xf769;" horiz-adv-x="396" 
d="M136 104l40 321q5 45 5 50q0 48 -89 50l5 39h292l-5 -39q-49 -1 -74 -15t-29 -50l-40 -321q-5 -45 -5 -50q0 -48 89 -50l-5 -39h-292l5 39q49 1 74 15t29 50z" />
    <glyph glyph-name="j.smcp" unicode="&#xe20a;" horiz-adv-x="517" 
d="M285 150l34 275q5 45 5 50q0 48 -89 50l5 39h292l-5 -39q-49 -1 -74 -15t-29 -50l-37 -297q-21 -173 -211 -173q-83 0 -124.5 30t-41.5 78q0 47 41 67h75q-8 -27 -8 -55q0 -76 65 -76q44 0 69.5 27.5t32.5 88.5z" />
    <glyph glyph-name="j.smcp" unicode="&#xf76a;" horiz-adv-x="517" 
d="M285 150l34 275q5 45 5 50q0 48 -89 50l5 39h292l-5 -39q-49 -1 -74 -15t-29 -50l-37 -297q-21 -173 -211 -173q-83 0 -124.5 30t-41.5 78q0 47 41 67h75q-8 -27 -8 -55q0 -76 65 -76q44 0 69.5 27.5t32.5 88.5z" />
    <glyph glyph-name="k.smcp" unicode="&#xe20b;" horiz-adv-x="680" 
d="M379 313l150 -190q35 -44 63.5 -63.5t69.5 -20.5l-5 -39h-144q-36 28 -105 115l-134 173l220 181q24 21 24 33q0 11 -10.5 16t-45.5 7l4 39h224l-5 -39q-48 -3 -90 -36zM136 104l40 321q5 45 5 50q0 48 -89 50l5 39h292l-5 -39q-49 -1 -74 -15t-29 -50l-40 -321
q-5 -45 -5 -50q0 -48 89 -50l-5 -39h-292l5 39q49 1 74 15t29 50z" />
    <glyph glyph-name="k.smcp" unicode="&#xf76b;" horiz-adv-x="680" 
d="M379 313l150 -190q35 -44 63.5 -63.5t69.5 -20.5l-5 -39h-144q-36 28 -105 115l-134 173l220 181q24 21 24 33q0 11 -10.5 16t-45.5 7l4 39h224l-5 -39q-48 -3 -90 -36zM136 104l40 321q5 45 5 50q0 48 -89 50l5 39h292l-5 -39q-49 -1 -74 -15t-29 -50l-40 -321
q-5 -45 -5 -50q0 -48 89 -50l-5 -39h-292l5 39q49 1 74 15t29 50z" />
    <glyph glyph-name="l.smcp" unicode="&#xe20c;" horiz-adv-x="604" 
d="M281 460l-41 -328q-4 -29 -4 -47q0 -40 63 -40h67q49 0 83 28t86 106h39l-55 -179h-491l5 39q49 1 74 15t29 50l40 321q5 45 5 50q0 48 -89 50l5 39h292l-5 -39q-49 -1 -74 -15t-29 -50z" />
    <glyph glyph-name="l.smcp" unicode="&#xf76c;" horiz-adv-x="604" 
d="M281 460l-41 -328q-4 -29 -4 -47q0 -40 63 -40h67q49 0 83 28t86 106h39l-55 -179h-491l5 39q49 1 74 15t29 50l40 321q5 45 5 50q0 48 -89 50l5 39h292l-5 -39q-49 -1 -74 -15t-29 -50z" />
    <glyph glyph-name="m.smcp" unicode="&#xe20d;" horiz-adv-x="886" 
d="M841 564l-5 -39q-43 -2 -64.5 -14t-25.5 -43l16 -377q1 -29 18 -39.5t54 -12.5l-5 -39h-272l5 39q102 5 102 55q0 8 -0.5 21t-0.5 15l-11 310l-236 -440h-40l-113 431l-97 -308q-7 -21 -7 -42q0 -22 18.5 -31t61.5 -11l-5 -39h-229l5 39q73 3 87 49l120 380
q0 32 -15.5 43.5t-57.5 13.5l5 39h183q0 -20 7 -47l100 -376l197 376q15 28 19 47h186z" />
    <glyph glyph-name="m.smcp" unicode="&#xf76d;" horiz-adv-x="886" 
d="M841 564l-5 -39q-43 -2 -64.5 -14t-25.5 -43l16 -377q1 -29 18 -39.5t54 -12.5l-5 -39h-272l5 39q102 5 102 55q0 8 -0.5 21t-0.5 15l-11 310l-236 -440h-40l-113 431l-97 -308q-7 -21 -7 -42q0 -22 18.5 -31t61.5 -11l-5 -39h-229l5 39q73 3 87 49l120 380
q0 32 -15.5 43.5t-57.5 13.5l5 39h183q0 -20 7 -47l100 -376l197 376q15 28 19 47h186z" />
    <glyph glyph-name="n.smcp" unicode="&#xe20e;" horiz-adv-x="744" 
d="M557 163l30 262q5 45 5 50q0 48 -89 50l5 39h251l-5 -39q-49 -1 -74 -15t-29 -50l-56 -460h-40l-318 446l-37 -307q-5 -45 -5 -50q0 -48 90 -50l-5 -39h-252l5 39q49 1 74 15t29 50l45 367q0 52 -89 54l5 39h178z" />
    <glyph glyph-name="n.smcp" unicode="&#xf76e;" horiz-adv-x="744" 
d="M557 163l30 262q5 45 5 50q0 48 -89 50l5 39h251l-5 -39q-49 -1 -74 -15t-29 -50l-56 -460h-40l-318 446l-37 -307q-5 -45 -5 -50q0 -48 90 -50l-5 -39h-252l5 39q49 1 74 15t29 50l45 367q0 52 -89 54l5 39h178z" />
    <glyph glyph-name="o.smcp" unicode="&#xe20f;" horiz-adv-x="648" 
d="M312 43q89 0 140 81t51 198q0 88 -37.5 143.5t-109.5 55.5q-89 0 -140 -81t-51 -198q0 -88 37.5 -143.5t109.5 -55.5zM304 -10q-110 0 -179.5 68.5t-69.5 182.5q0 136 84 234.5t225 98.5q110 0 179.5 -68.5t69.5 -182.5q0 -136 -84 -234.5t-225 -98.5z" />
    <glyph glyph-name="o.smcp" unicode="&#xf76f;" horiz-adv-x="648" 
d="M312 43q89 0 140 81t51 198q0 88 -37.5 143.5t-109.5 55.5q-89 0 -140 -81t-51 -198q0 -88 37.5 -143.5t109.5 -55.5zM304 -10q-110 0 -179.5 68.5t-69.5 182.5q0 136 84 234.5t225 98.5q110 0 179.5 -68.5t69.5 -182.5q0 -136 -84 -234.5t-225 -98.5z" />
    <glyph glyph-name="q.smcp" unicode="&#xe211;" horiz-adv-x="648" 
d="M503 -92q47 -34 97 -34h31v-32q-45 -28 -109 -28q-81 0 -141 63l-109 115q-97 9 -157 76.5t-60 172.5q0 136 84 234.5t225 98.5q110 0 179.5 -68.5t69.5 -182.5q0 -116 -63 -207.5t-172 -116.5zM312 43q89 0 140 81t51 198q0 88 -37.5 143.5t-109.5 55.5q-89 0 -140 -81
t-51 -198q0 -88 37.5 -143.5t109.5 -55.5z" />
    <glyph glyph-name="q.smcp" unicode="&#xf771;" horiz-adv-x="648" 
d="M503 -92q47 -34 97 -34h31v-32q-45 -28 -109 -28q-81 0 -141 63l-109 115q-97 9 -157 76.5t-60 172.5q0 136 84 234.5t225 98.5q110 0 179.5 -68.5t69.5 -182.5q0 -116 -63 -207.5t-172 -116.5zM312 43q89 0 140 81t51 198q0 88 -37.5 143.5t-109.5 55.5q-89 0 -140 -81
t-51 -198q0 -88 37.5 -143.5t109.5 -55.5z" />
    <glyph glyph-name="r.smcp" unicode="&#xe212;" horiz-adv-x="676" 
d="M254 248l-13 -109q-5 -45 -5 -50q0 -48 89 -50l-5 -39h-292l5 39q49 1 74 15t29 50l40 321q5 45 5 50q0 48 -89 50l5 39h295q102 0 152.5 -37t50.5 -105q0 -69 -53 -110.5t-124 -49.5l99 -133q36 -48 66.5 -68.5t75.5 -21.5l-5 -39h-147q-49 40 -103 120l-88 128h-62z
M288 516l-28 -221h76q150 0 150 127q0 94 -120 94h-78z" />
    <glyph glyph-name="r.smcp" unicode="&#xf772;" horiz-adv-x="676" 
d="M254 248l-13 -109q-5 -45 -5 -50q0 -48 89 -50l-5 -39h-292l5 39q49 1 74 15t29 50l40 321q5 45 5 50q0 48 -89 50l5 39h295q102 0 152.5 -37t50.5 -105q0 -69 -53 -110.5t-124 -49.5l99 -133q36 -48 66.5 -68.5t75.5 -21.5l-5 -39h-147q-49 40 -103 120l-88 128h-62z
M288 516l-28 -221h76q150 0 150 127q0 94 -120 94h-78z" />
    <glyph glyph-name="s.smcp" unicode="&#xe213;" horiz-adv-x="505" 
d="M236 -10q-59 0 -111.5 18.5t-84.5 46.5l11 137h38q14 -72 51.5 -111t98.5 -39q108 0 108 84q0 40 -27.5 66.5t-93.5 56.5q-71 32 -103 70.5t-32 100.5q0 73 50.5 113.5t137.5 40.5q100 0 179 -59l-14 -122h-37q-18 129 -133 129q-93 0 -93 -81q0 -32 21.5 -55.5
t76.5 -48.5q83 -38 122.5 -77t39.5 -102q0 -79 -57 -123.5t-148 -44.5z" />
    <glyph glyph-name="s.smcp" unicode="&#xf773;" horiz-adv-x="505" 
d="M236 -10q-59 0 -111.5 18.5t-84.5 46.5l11 137h38q14 -72 51.5 -111t98.5 -39q108 0 108 84q0 40 -27.5 66.5t-93.5 56.5q-71 32 -103 70.5t-32 100.5q0 73 50.5 113.5t137.5 40.5q100 0 179 -59l-14 -122h-37q-18 129 -133 129q-93 0 -93 -81q0 -32 21.5 -55.5
t76.5 -48.5q83 -38 122.5 -77t39.5 -102q0 -79 -57 -123.5t-148 -44.5z" />
    <glyph glyph-name="t.smcp" unicode="&#xe214;" horiz-adv-x="647" 
d="M410 516l-46 -377q-5 -45 -5 -50q0 -48 89 -50l-5 -39h-292l5 39q49 1 74 15t29 50l51 412h-54q-32 0 -53 -6t-40.5 -25.5t-30.5 -36t-35 -57.5h-37l35 173h542l-10 -173h-36q-23 74 -44.5 99.5t-77.5 25.5h-59z" />
    <glyph glyph-name="t.smcp" unicode="&#xf774;" horiz-adv-x="647" 
d="M410 516l-46 -377q-5 -45 -5 -50q0 -48 89 -50l-5 -39h-292l5 39q49 1 74 15t29 50l51 412h-54q-32 0 -53 -6t-40.5 -25.5t-30.5 -36t-35 -57.5h-37l35 173h542l-10 -173h-36q-23 74 -44.5 99.5t-77.5 25.5h-59z" />
    <glyph glyph-name="u.smcp" unicode="&#xe215;" horiz-adv-x="666" 
d="M507 220l27 205q5 45 5 50q0 48 -89 50l5 39h251l-5 -39q-49 -1 -74 -15t-29 -50l-32 -256q-13 -102 -75 -158t-166 -56q-106 0 -167.5 48.5t-61.5 135.5q0 23 5 62l24 189q5 45 5 50q0 48 -89 50l5 39h292l-5 -39q-49 -1 -74 -15t-29 -50l-29 -224q-4 -28 -4 -54
q0 -61 39 -97t103 -36q79 0 118 42.5t50 128.5z" />
    <glyph glyph-name="u.smcp" unicode="&#xf775;" horiz-adv-x="666" 
d="M507 220l27 205q5 45 5 50q0 48 -89 50l5 39h251l-5 -39q-49 -1 -74 -15t-29 -50l-32 -256q-13 -102 -75 -158t-166 -56q-106 0 -167.5 48.5t-61.5 135.5q0 23 5 62l24 189q5 45 5 50q0 48 -89 50l5 39h292l-5 -39q-49 -1 -74 -15t-29 -50l-29 -224q-4 -28 -4 -54
q0 -61 39 -97t103 -36q79 0 118 42.5t50 128.5z" />
    <glyph glyph-name="v.smcp" unicode="&#xe216;" horiz-adv-x="641" 
d="M459 564h212l-5 -39q-42 -2 -59 -30l-303 -501h-32l-161 501q-9 28 -51 30l5 39h255l-5 -39q-91 -2 -91 -41q0 -10 9 -42l92 -315l189 321q17 29 17 44q0 17 -17.5 24.5t-59.5 8.5z" />
    <glyph glyph-name="v.smcp" unicode="&#xf776;" horiz-adv-x="641" 
d="M459 564h212l-5 -39q-42 -2 -59 -30l-303 -501h-32l-161 501q-9 28 -51 30l5 39h255l-5 -39q-91 -2 -91 -41q0 -10 9 -42l92 -315l189 321q17 29 17 44q0 17 -17.5 24.5t-59.5 8.5z" />
    <glyph glyph-name="w.smcp" unicode="&#xe217;" horiz-adv-x="912" 
d="M546 442l80 -312l166 318q17 32 17 44q0 17 -17.5 24.5t-59.5 8.5l5 39h205l-5 -39q-44 -2 -59 -30l-267 -501h-35l-99 347l-193 -347h-36l-137 501q-8 28 -51 30l5 39h250l-5 -39q-91 -2 -91 -41q0 -10 9 -42l80 -308l151 274l-24 87q-8 28 -51 30l5 39h244l-5 -39
q-91 -2 -91 -41q0 -10 9 -42z" />
    <glyph glyph-name="w.smcp" unicode="&#xf777;" horiz-adv-x="912" 
d="M546 442l80 -312l166 318q17 32 17 44q0 17 -17.5 24.5t-59.5 8.5l5 39h205l-5 -39q-44 -2 -59 -30l-267 -501h-35l-99 347l-193 -347h-36l-137 501q-8 28 -51 30l5 39h250l-5 -39q-91 -2 -91 -41q0 -10 9 -42l80 -308l151 274l-24 87q-8 28 -51 30l5 39h244l-5 -39
q-91 -2 -91 -41q0 -10 9 -42z" />
    <glyph glyph-name="x.smcp" unicode="&#xe218;" horiz-adv-x="633" 
d="M273 459l79 -116l108 114q26 28 26 43q0 14 -11.5 19.5t-50.5 5.5l5 39h213l-5 -39q-26 -2 -41.5 -9.5t-34.5 -27.5l-178 -185l155 -227q24 -36 64 -37l-5 -39h-252l5 39q72 0 72 26q0 17 -16 39l-101 145l-139 -144q-26 -28 -26 -43q0 -12 13 -17.5t50 -5.5l-5 -39h-215
l5 39q46 0 81 37l207 215l-139 197q-23 34 -63 37l5 39h251l-5 -39q-40 0 -54 -6t-14 -20q0 -16 16 -40z" />
    <glyph glyph-name="x.smcp" unicode="&#xf778;" horiz-adv-x="633" 
d="M273 459l79 -116l108 114q26 28 26 43q0 14 -11.5 19.5t-50.5 5.5l5 39h213l-5 -39q-26 -2 -41.5 -9.5t-34.5 -27.5l-178 -185l155 -227q24 -36 64 -37l-5 -39h-252l5 39q72 0 72 26q0 17 -16 39l-101 145l-139 -144q-26 -28 -26 -43q0 -12 13 -17.5t50 -5.5l-5 -39h-215
l5 39q46 0 81 37l207 215l-139 197q-23 34 -63 37l5 39h251l-5 -39q-40 0 -54 -6t-14 -20q0 -16 16 -40z" />
    <glyph glyph-name="y.smcp" unicode="&#xe219;" horiz-adv-x="608" 
d="M353 220l-11 -81q-5 -45 -5 -50q0 -48 89 -50l-5 -39h-292l5 39q49 1 74 15t29 50l15 115l-144 276q-15 29 -48 30l5 39h241l-5 -39q-45 -2 -61.5 -9t-16.5 -26q0 -13 10 -35l96 -188l152 191q17 23 17 37q0 16 -13.5 22.5t-55.5 7.5l5 39h204l-5 -39q-33 -3 -56 -30z
" />
    <glyph glyph-name="y.smcp" unicode="&#xf779;" horiz-adv-x="608" 
d="M353 220l-11 -81q-5 -45 -5 -50q0 -48 89 -50l-5 -39h-292l5 39q49 1 74 15t29 50l15 115l-144 276q-15 29 -48 30l5 39h241l-5 -39q-45 -2 -61.5 -9t-16.5 -26q0 -13 10 -35l96 -188l152 191q17 23 17 37q0 16 -13.5 22.5t-55.5 7.5l5 39h204l-5 -39q-33 -3 -56 -30z
" />
    <glyph glyph-name="z.smcp" unicode="&#xe21a;" horiz-adv-x="581" 
d="M152 48h175q51 0 85 25.5t85 95.5h41l-52 -169h-476l3 25l415 491h-163q-47 0 -76 -25.5t-66 -86.5h-36l24 160h460l-3 -26z" />
    <glyph glyph-name="z.smcp" unicode="&#xf77a;" horiz-adv-x="581" 
d="M152 48h175q51 0 85 25.5t85 95.5h41l-52 -169h-476l3 25l415 491h-163q-47 0 -76 -25.5t-66 -86.5h-36l24 160h460l-3 -26z" />
    <glyph glyph-name="anocross.smcp" unicode="&#xe220;" horiz-adv-x="657" 
d="M349 452l-203 -336q-17 -29 -17 -44q0 -17 17.5 -24.5t59.5 -8.5l-5 -39h-211l5 39q41 2 58 30l270 442l-21 58h112l157 -500q8 -26 51 -30l-5 -39h-252l5 39q90 2 90 41q0 10 -9 42z" />
    <glyph glyph-name="aacute.smcp" unicode="&#xe221;" horiz-adv-x="657" 
d="M451 122l-16 51h-255l-34 -57q-17 -29 -17 -44q0 -17 17.5 -24.5t59.5 -8.5l-5 -39h-211l5 39q41 2 58 30l270 442l-21 58h112l157 -500q8 -26 51 -30l-5 -39h-252l5 39q90 2 90 41q0 10 -9 42zM349 452l-140 -231h211zM470 820h146l-227 -208h-45z" />
    <glyph glyph-name="aacute.smcp" unicode="&#xf7e1;" horiz-adv-x="657" 
d="M451 122l-16 51h-255l-34 -57q-17 -29 -17 -44q0 -17 17.5 -24.5t59.5 -8.5l-5 -39h-211l5 39q41 2 58 30l270 442l-21 58h112l157 -500q8 -26 51 -30l-5 -39h-252l5 39q90 2 90 41q0 10 -9 42zM349 452l-140 -231h211zM470 820h146l-227 -208h-45z" />
    <glyph glyph-name="agrave.smcp" unicode="&#xe222;" horiz-adv-x="657" 
d="M451 122l-16 51h-255l-34 -57q-17 -29 -17 -44q0 -17 17.5 -24.5t59.5 -8.5l-5 -39h-211l5 39q41 2 58 30l270 442l-21 58h112l157 -500q8 -26 51 -30l-5 -39h-252l5 39q90 2 90 41q0 10 -9 42zM349 452l-140 -231h211zM191 820h132l78 -208h-45z" />
    <glyph glyph-name="agrave.smcp" unicode="&#xf7e0;" horiz-adv-x="657" 
d="M451 122l-16 51h-255l-34 -57q-17 -29 -17 -44q0 -17 17.5 -24.5t59.5 -8.5l-5 -39h-211l5 39q41 2 58 30l270 442l-21 58h112l157 -500q8 -26 51 -30l-5 -39h-252l5 39q90 2 90 41q0 10 -9 42zM349 452l-140 -231h211zM191 820h132l78 -208h-45z" />
    <glyph glyph-name="acircumflex.smcp" unicode="&#xe223;" horiz-adv-x="657" 
d="M451 122l-16 51h-255l-34 -57q-17 -29 -17 -44q0 -17 17.5 -24.5t59.5 -8.5l-5 -39h-211l5 39q41 2 58 30l270 442l-21 58h112l157 -500q8 -26 51 -30l-5 -39h-252l5 39q90 2 90 41q0 10 -9 42zM435 820l121 -208h-45l-123 124l-153 -124h-47l173 208h74zM349 452
l-140 -231h211z" />
    <glyph glyph-name="acircumflex.smcp" unicode="&#xf7e2;" horiz-adv-x="657" 
d="M451 122l-16 51h-255l-34 -57q-17 -29 -17 -44q0 -17 17.5 -24.5t59.5 -8.5l-5 -39h-211l5 39q41 2 58 30l270 442l-21 58h112l157 -500q8 -26 51 -30l-5 -39h-252l5 39q90 2 90 41q0 10 -9 42zM435 820l121 -208h-45l-123 124l-153 -124h-47l173 208h74zM349 452
l-140 -231h211z" />
    <glyph glyph-name="adieresis.smcp" unicode="&#xe224;" horiz-adv-x="657" 
d="M451 122l-16 51h-255l-34 -57q-17 -29 -17 -44q0 -17 17.5 -24.5t59.5 -8.5l-5 -39h-211l5 39q41 2 58 30l270 442l-21 58h112l157 -500q8 -26 51 -30l-5 -39h-252l5 39q90 2 90 41q0 10 -9 42zM349 452l-140 -231h211zM284 646q-28 0 -47 19t-19 47q0 31 21.5 52.5
t51.5 21.5q28 0 47 -19t19 -47q0 -31 -21.5 -52.5t-51.5 -21.5zM484 646q-28 0 -47 19t-19 47q0 31 21.5 52.5t51.5 21.5q28 0 47 -19t19 -47q0 -31 -21.5 -52.5t-51.5 -21.5z" />
    </font>
</defs>
</svg>
